{
.appVersion = "1230";
DisplayStrings = (
"  ",
" ",
"H/Germandbls ÅBKL/Delta/Omega O/mu 5/pi/florin fv///divisionslash l/integral uµ/carriagereturn",
"ß",
"IHakL4/Germandbls O3",
"/florin",
"OL/Omega",
" /partialdiff"
);
copyright = "Copyright 2019 Rene Sorensen (https://github.com/renesune)";
customParameters = (
{
name = license;
value = "Licensed under the Apache License, Version 2.0\"";
},
{
name = fsType;
value = (
);
},
{
name = licenseURL;
value = "http://scripts.sil.org/OFL";
},
{
name = "Name Table Entry";
value = "14; http://scripts.sil.org/OFL";
},
{
name = vendorID;
value = CZOO;
}
);
date = "2019-03-21 12:31:21 +0000";
designer = "Rene Sorensen";
designerURL = www.czoo.dk;
familyName = "Creative Zoo Sans";
featurePrefixes = (
{
automatic = 1;
code = "languagesystem DFLT dflt;\012languagesystem latn dflt;\012languagesystem cyrl dflt;\012languagesystem latn ROM;\012languagesystem latn MOL;\012languagesystem latn KAZ;\012languagesystem latn TRK;\012languagesystem latn CRT;\012languagesystem latn AZE;\012languagesystem cyrl TAT;\012";
name = Languagesystems;
}
);
features = (
{
automatic = 1;
code = "feature locl;\012feature numr;\012feature dnom;\012feature frac;\012feature lnum;\012feature pnum;\012feature tnum;\012feature onum;\012feature c2sc;\012feature smcp;\012feature case;\012feature salt;\012feature subs;\012feature sinf;\012feature sups;\012feature ordn;\012";
name = aalt;
},
{
automatic = 1;

glyphs = (
{
glyphname = A;
lastChange = "2018-10-02 08:55:11 +0000";
layers = (
{
anchors = (
{
name = bottom;
position = "{362, 0}";
},
{
name = ogonek;
position = "{745, 10}";
},
{
name = top;
position = "{362, 700}";
}
);
background = {
paths = (
{
closed = 1;
nodes = (
"54 122 LINE",
"54 0 LINE",
"181 0 LINE",
"451 700 LINE",
"280 700 LINE"
);
},
{
closed = 1;
nodes = (
"605 144 LINE",
"605 283 LINE",
"145 283 LINE",
"145 144 LINE"
);
},
{
closed = 1;
nodes = (
"275 122 LINE",
"461 122 LINE",
"511 144 LINE",
"225 144 LINE"
);
},
{
closed = 1;
nodes = (
"280 700 LINE",
"550 0 LINE",
"677 0 LINE",
"677 122 LINE",
"451 700 LINE"
);
},
{
closed = 1;
nodes = (
"280 700 LINE",
"54 122 LINE",
"54 0 LINE",
"181 0 LINE",
"235 139 LINE",
"273 122 LINE",
"459 122 LINE",
"497 139 LINE",
"550 0 LINE",
"677 0 LINE",
"677 122 LINE",
"451 700 LINE"
);
},
{
closed = 1;
nodes = (
"291 283 LINE",
"366 478 LINE",
"441 283 LINE"
);
}
);
};
guideLines = (
{
angle = -70.88;
position = "{652, 700}";
},
{
angle = -24.444;
position = "{215, 142}";
}
);
layerId = "631A315E-0C3F-4988-8BF6-333737037850";
paths = (
{
closed = 1;
nodes = (
"164 0 LINE",
"215 147 LINE",
"259 127 LINE",
"465 127 LINE",
"509 147 LINE",
"560 0 LINE",
"696 0 LINE",
"696 89 LINE",
"461 700 LINE",
"263 700 LINE",
"28 89 LINE",
"28 0 LINE"
);
},
{
closed = 1;
nodes = (
"372 600 LINE",
"352 600 LINE",
"462 278 LINE",
"262 278 LINE"
);
}
);
width = 724;
},
{
anchors = (
{
name = bottom;
position = "{334, 0}";
},
{
name = ogonek;
position = "{599, 10}";
},
{
name = top;
position = "{334, 700}";
}
);
layerId = "3129A168-24FD-451B-9986-F27775A960CA";
paths = (
{
closed = 1;
nodes = (
"85 0 LINE",
"162 192 LINE",
"206 163 LINE",
"463 163 LINE",
"507 192 LINE",
"583 0 LINE",
"635 0 LINE",
"635 25 LINE",
"372 700 LINE",
"296 700 LINE",
"33 25 LINE",
"33 0 LINE"
);
},
{
closed = 1;
nodes = (
"350 681 LINE",
"318 681 LINE",
"499 214 LINE",
"170 214 LINE"
);
}
);
width = 668;
}
);
leftKerningGroup = A;
rightKerningGroup = A;
unicode = 0041;
},
{
glyphname = Aring;
lastChange = "2018-10-01 12:45:21 +0000";
layers = (
{
guideLines = (
{
angle = 250.8803;
position = "{374, 600}";
}
);
layerId = "631A315E-0C3F-4988-8BF6-333737037850";
paths = (
{
closed = 1;
nodes = (
"164 0 LINE",
"215 147 LINE",
"259 127 LINE",
"465 127 LINE",
"509 147 LINE",
"560 0 LINE",
"696 0 LINE",
"696 89 LINE",
"461 700 LINE",
"263 700 LINE",
"28 89 LINE",
"28 0 LINE"
);
},
{
closed = 1;
nodes = (
"372 600 LINE",
"352 600 LINE",
"462 278 LINE",
"262 278 LINE"
);
},
{
closed = 1;
nodes = (
"438 728 OFFCURVE",
"499 789 OFFCURVE",
"499 865 CURVE SMOOTH",
"499 940 OFFCURVE",
"438 1001 OFFCURVE",
"363 1001 CURVE SMOOTH",
"287 1001 OFFCURVE",
"226 940 OFFCURVE",
"226 865 CURVE SMOOTH",
"226 789 OFFCURVE",
"287 728 OFFCURVE",
"363 728 CURVE SMOOTH"
);
},
{
closed = 1;
nodes = (
"342 825 OFFCURVE",
"323 844 OFFCURVE",
"323 865 CURVE SMOOTH",
"323 885 OFFCURVE",
"342 904 OFFCURVE",
"363 904 CURVE SMOOTH",
"383 904 OFFCURVE",
"402 885 OFFCURVE",
"402 865 CURVE SMOOTH",
"402 844 OFFCURVE",
"383 825 OFFCURVE",
"363 825 CURVE SMOOTH"
);
}
);
width = 724;
},
{
layerId = "3129A168-24FD-451B-9986-F27775A960CA";
paths = (
{
closed = 1;
nodes = (
"85 0 LINE",
"162 192 LINE",
"206 163 LINE",
"463 163 LINE",
"507 192 LINE",
"583 0 LINE",
"635 0 LINE",
"635 25 LINE",
"372 700 LINE",
"296 700 LINE",
"33 25 LINE",
"33 0 LINE"
);
},
{
closed = 1;
nodes = (
"356 696 LINE",
"312 696 LINE",
"498 214 LINE",
"170 214 LINE"
);
},
{
closed = 1;
nodes = (
"382 744 OFFCURVE",
"420 783 OFFCURVE",
"420 830 CURVE SMOOTH",
"420 877 OFFCURVE",
"382 915 OFFCURVE",
"335 915 CURVE SMOOTH",
"288 915 OFFCURVE",
"249 877 OFFCURVE",
"249 830 CURVE SMOOTH",
"249 783 OFFCURVE",
"288 744 OFFCURVE",
"335 744 CURVE SMOOTH"
);
},
{
closed = 1;
nodes = (
"312 789 OFFCURVE",
"294 807 OFFCURVE",
"294 830 CURVE SMOOTH",
"294 852 OFFCURVE",
"312 870 OFFCURVE",
"335 870 CURVE SMOOTH",
"356 870 OFFCURVE",
"374 852 OFFCURVE",
"374 830 CURVE SMOOTH",
"374 807 OFFCURVE",
"356 789 OFFCURVE",
"335 789 CURVE SMOOTH"
);
}
);
width = 668;
}
);
leftKerningGroup = A;
leftMetricsKey = A;
rightKerningGroup = A;
rightMetricsKey = A;
unicode = 00C5;
},
{
glyphname = AE;
lastChange = "2018-10-02 11:02:36 +0000";
layers = (
{
guideLines = (
{
position = "{431, 478}";
},
{
angle = 61.4104;
position = "{61, 122}";
},
{
position = "{62, 61}";
},
{
angle = 62.2684;
position = "{28, 61}";
},
{
position = "{597, 151}";
},
{
position = "{597, 549}";
},
{
angle = 244.359;
position = "{448, 577}";
}
);
layerId = "631A315E-0C3F-4988-8BF6-333737037850";
paths = (
{
closed = 1;
nodes = (
"172 0 LINE",
"243 150 LINE",
"293 128 LINE",
"385 128 LINE",
"435 150 LINE",
"435 0 LINE",
"902 0 LINE",
"902 149 LINE",
"595 149 LINE",
"595 275 LINE",
"765 295 LINE",
"765 406 LINE",
"595 426 LINE",
"595 551 LINE",
"902 551 LINE",
"902 700 LINE",
"358 700 LINE",
"28 61 LINE",
"28 0 LINE"
);
},
{
closed = 1;
nodes = (
"448 577 LINE",
"435 582 LINE",
"435 277 LINE",
"304 277 LINE"
);
}
);
width = 953;
},
{
guideLines = (
{
angle = 241.3318;
position = "{28, 25}";
},
{
angle = 90;
position = "{433, 700}";
},
{
angle = 61.9723;
position = "{-17, 96}";
},
{
position = "{702, 425}";
}
);
layerId = "3129A168-24FD-451B-9986-F27775A960CA";
paths = (
{
closed = 1;
nodes = (
"82 0 LINE",
"187 192 LINE",
"231 163 LINE",
"389 163 LINE",
"433 192 LINE",
"433 0 LINE",
"903 0 LINE",
"903 54 LINE",
"492 54 LINE",
"492 324 LINE",
"731 331 LINE",
"731 371 LINE",
"492 378 LINE",
"492 646 LINE",
"903 646 LINE",
"903 700 LINE",
"402 700 LINE",
"33 25 LINE",
"33 0 LINE"
);
},
{
closed = 1;
nodes = (
"462 695 LINE",
"433 700 LINE",
"433 214 LINE",
"199 214 LINE"
);
}
);
width = 964;
}
);
leftMetricsKey = A;
rightKerningGroup = E;
rightMetricsKey = E;
unicode = 00C6;
},
{
glyphname = B;
lastChange = "2019-06-13 09:27:27 +0000";
layers = (
{
anchors = (
{
name = bottom;
position = "{350, 0}";
},
{
name = top;
position = "{350, 700}";
}
);
background = {
paths = (
{
closed = 1;
nodes = (
"429 0 LINE SMOOTH",
"550 0 OFFCURVE",
"649 95 OFFCURVE",
"649 216 CURVE SMOOTH",
"649 288 OFFCURVE",
"614 338 OFFCURVE",
"566.288 374.543 CURVE",
"601 409 OFFCURVE",
"619 445 OFFCURVE",
"619 493 CURVE SMOOTH",
"619 604 OFFCURVE",
"525 700 OFFCURVE",
"409 700 CURVE SMOOTH",
"77 700 LINE",
"77 0 LINE"
);
},
{
closed = 1;
nodes = (
"239 286 LINE",
"432 286 LINE SMOOTH",
"463 286 OFFCURVE",
"488 257 OFFCURVE",
"488 221 CURVE SMOOTH",
"488 185 OFFCURVE",
"463 151 OFFCURVE",
"432 151 CURVE SMOOTH",
"239 151 LINE"
);
},
{
closed = 1;
nodes = (
"239 549 LINE",
"411 549 LINE SMOOTH",
"438 549 OFFCURVE",
"460 525 OFFCURVE",
"460 490 CURVE SMOOTH",
"460 454 OFFCURVE",
"438 424 OFFCURVE",
"411 424 CURVE SMOOTH",
"239 424 LINE"
);
}
);
};
guideLines = (
{
angle = 90;
position = "{414, 544}";
},
{
angle = 270;
position = "{95, 234}";
}
);
layerId = "631A315E-0C3F-4988-8BF6-333737037850";
paths = (
{
closed = 1;
nodes = (
"429 0 LINE SMOOTH",
"550 0 OFFCURVE",
"649 95 OFFCURVE",
"649 216 CURVE SMOOTH",
"649 300 OFFCURVE",
"602 364 OFFCURVE",
"500 391 CURVE",
"498 352 LINE",
"591 382 OFFCURVE",
"619 445 OFFCURVE",
"619 509 CURVE SMOOTH",
"619 628 OFFCURVE",
"523 700 OFFCURVE",
"409 700 CURVE SMOOTH",
"77 700 LINE",
"77 0 LINE"
);
},
{
closed = 1;
nodes = (
"237 288 LINE",
"432 288 LINE SMOOTH",
"463 288 OFFCURVE",
"488 259 OFFCURVE",
"488 221 CURVE SMOOTH",
"488 183 OFFCURVE",
"463 149 OFFCURVE",
"432 149 CURVE SMOOTH",
"237 149 LINE"
);
},
{
closed = 1;
nodes = (
"237 551 LINE",
"411 551 LINE SMOOTH",
"438 551 OFFCURVE",
"460 527 OFFCURVE",
"460 490 CURVE SMOOTH",
"460 452 OFFCURVE",
"438 422 OFFCURVE",
"411 422 CURVE SMOOTH",
"237 422 LINE"
);
}
);
width = 700;
},
{
anchors = (
{
name = bottom;
position = "{340, 0}";
},
{
name = top;
position = "{340, 700}";
}
);
background = {
paths = (
{
closed = 1;
nodes = (
"399 544 OFFCURVE",
"421 520 OFFCURVE",
"421 490 CURVE SMOOTH",
"421 454 OFFCURVE",
"399 424 OFFCURVE",
"372 424 CURVE",
"337 305 LINE",
"469 305 OFFCURVE",
"577 388 OFFCURVE",
"577 490 CURVE SMOOTH",
"577 606 OFFCURVE",
"483 700 OFFCURVE",
"367 700 CURVE",
"189 700 LINE",
"189 544 LINE",
"372 544 LINE"
);
}
);
};
guideLines = (
{
angle = 90;
position = "{389, -136}";
}
);
layerId = "3129A168-24FD-451B-9986-F27775A960CA";
paths = (
{
closed = 1;
nodes = (
"339 0 LINE SMOOTH",
"467 0 OFFCURVE",
"572 92 OFFCURVE",
"573 204 CURVE SMOOTH",
"574 291 OFFCURVE",
"510 366 OFFCURVE",
"419 395 CURVE",
"421 369 LINE",
"489 396 OFFCURVE",
"537 457 OFFCURVE",
"538 527 CURVE SMOOTH",
"539 622 OFFCURVE",
"449 700 OFFCURVE",
"337 700 CURVE SMOOTH",
"87 700 LINE",
"87 0 LINE"
);
},
{
closed = 1;
nodes = (
"146 353 LINE",
"337 353 LINE SMOOTH",
"434 353 OFFCURVE",
"514 286 OFFCURVE",
"514 204 CURVE SMOOTH",
"514 121 OFFCURVE",
"435 54 OFFCURVE",
"339 54 CURVE SMOOTH",
"146 54 LINE"
);
},
{
closed = 1;
nodes = (
"146 646 LINE",
"337 646 LINE SMOOTH",
"415 646 OFFCURVE",
"479 592 OFFCURVE",
"479 527 CURVE SMOOTH",
"479 461 OFFCURVE",
"416 407 OFFCURVE",
"339 407 CURVE SMOOTH",
"146 407 LINE"
);
}
);
width = 623;
}
);
leftKerningGroup = I;
leftMetricsKey = N;
rightKerningGroup = O;
unicode = 0042;
},
{
glyphname = C;
lastChange = "2018-10-02 09:02:38 +0000";
layers = (
{
anchors = (
{
name = bottom;
position = "{410, 0}";
},
{
name = top;
position = "{410, 700}";
}
);
background = {
paths = (
{
closed = 1;
nodes = (
"544 517 OFFCURVE",
"484 554 OFFCURVE",
"415 554 CURVE",
"305 554 OFFCURVE",
"215 462 OFFCURVE",
"215 350 CURVE",
"215 238 OFFCURVE",
"305 146 OFFCURVE",
"415 146 CURVE",
"497 146 OFFCURVE",
"567 197 OFFCURVE",
"597 269 CURVE",
"770 269 LINE",
"734 107 OFFCURVE",
"588 -15 OFFCURVE",
"415 -15 CURVE",
"213 -15 OFFCURVE",
"48 149 OFFCURVE",
"49 350 CURVE",
"50 551 OFFCURVE",
"215 715 OFFCURVE",
"415 715 CURVE",
"576 715 OFFCURVE",
"714 608 OFFCURVE",
"761 461 CURVE",
"580 461 LINE"
);
}
);
};
guideLines = (
{
position = "{622, 461}";
},
{
angle = -61.5809;
position = "{676, 269}";
},
{
angle = 90;
position = "{563, 701}";
},
{
angle = 61.4293;
position = "{676, 431}";
}
);
layerId = "631A315E-0C3F-4988-8BF6-333737037850";
paths = (
{
closed = 1;
nodes = (
"550 -15 OFFCURVE",
"668 59 OFFCURVE",
"731 168 CURVE",
"676 269 LINE",
"599 269 LINE",
"569 195 OFFCURVE",
"499 142 OFFCURVE",
"415 142 CURVE",
"301 142 OFFCURVE",
"211 234 OFFCURVE",
"211 350 CURVE",
"211 466 OFFCURVE",
"301 558 OFFCURVE",
"415 558 CURVE",
"499 558 OFFCURVE",
"569 507 OFFCURVE",
"599 431 CURVE",
"676 431 LINE",
"731 532 LINE",
"668 641 OFFCURVE",
"550 715 OFFCURVE",
"415 715 CURVE",
"213 715 OFFCURVE",
"48 551 OFFCURVE",
"49 350 CURVE",
"48 149 OFFCURVE",
"213 -15 OFFCURVE",
"415 -15 CURVE"
);
}
);
width = 779;
},
{
anchors = (
{
name = bottom;
position = "{397, 0}";
},
{
name = top;
position = "{397, 700}";
}
);
background = {
paths = (
{
closed = 1;
nodes = (
"670 42 OFFCURVE",
"742 141 CURVE",
"710 198 LINE",
"688 198 LINE",
"637 113 OFFCURVE",
"545 39 OFFCURVE",
"439 39 CURVE SMOOTH",
"278 39 OFFCURVE",
"129 191 OFFCURVE",
"129 350 CURVE SMOOTH",
"129 509 OFFCURVE",
"278 661 OFFCURVE",
"439 661 CURVE SMOOTH",
"545 661 OFFCURVE",
"637 587 OFFCURVE",
"688 502 CURVE",
"710 502 LINE",
"742 559 LINE",
"672 656 OFFCURVE",
"565 713 OFFCURVE",
"438 715 CURVE SMOOTH",
"241 718 OFFCURVE",
"70 547 OFFCURVE",
"70 350 CURVE SMOOTH",
"70 153 OFFCURVE",
"241 -18 OFFCURVE",
"438 -15 CURVE SMOOTH",
"562 -13 OFFCURVE"
);
}
);
};
guideLines = (
{
position = "{688, 502}";
},
{
position = "{688, 198}";
},
{
angle = -65.254;
position = "{716, 198}";
},
{
angle = 65.254;
position = "{716, 502}";
}
);
layerId = "3129A168-24FD-451B-9986-F27775A960CA";
paths = (
{
closed = 1;
nodes = (
"555 -15 OFFCURVE",
"670 54 OFFCURVE",
"735 158 CURVE",
"716 198 LINE",
"690 198 LINE",
"636 104 OFFCURVE",
"536 39 OFFCURVE",
"425 39 CURVE SMOOTH",
"260 39 OFFCURVE",
"118 183 OFFCURVE",
"118 349 CURVE SMOOTH",
"118 517 OFFCURVE",
"260 661 OFFCURVE",
"425 661 CURVE SMOOTH",
"535 661 OFFCURVE",
"635 596 OFFCURVE",
"688 502 CURVE",
"716 502 LINE",
"734 541 LINE",
"670 646 OFFCURVE",
"555 715 OFFCURVE",
"425 715 CURVE SMOOTH",
"224 715 OFFCURVE",
"59 550 OFFCURVE",
"59 349 CURVE SMOOTH",
"59 148 OFFCURVE",
"224 -15 OFFCURVE",
"425 -15 CURVE SMOOTH"
);
}
);
width = 793;
}
);
leftKerningGroup = O;
leftMetricsKey = O;
rightMetricsKey = "=O-1";
unicode = 0043;
},
{
glyphname = D;
lastChange = "2019-01-09 10:49:13 +0000";
layers = (
{
anchors = (
{
name = bottom;
position = "{380, 0}";
},
{
name = center;
position = "{200, 350}";
},
{
name = top;
position = "{340, 700}";
}
);
layerId = "631A315E-0C3F-4988-8BF6-333737037850";
paths = (
{
closed = 1;
nodes = (
"340 0 LINE SMOOTH",
"541 0 OFFCURVE",
"705 157 OFFCURVE",
"704 350 CURVE SMOOTH",
"703 543 OFFCURVE",
"539 700 OFFCURVE",
"340 700 CURVE SMOOTH",
"77 700 LINE",
"77 0 LINE"
);
},
{
closed = 1;
nodes = (
"237 149 LINE",
"237 551 LINE",
"340 551 LINE SMOOTH",
"450 551 OFFCURVE",
"539 466 OFFCURVE",
"540 350 CURVE SMOOTH",
"541 234 OFFCURVE",
"452 149 OFFCURVE",
"340 149 CURVE SMOOTH"
);
}
);
width = 753;
},
{
anchors = (
{
name = bottom;
position = "{384, 0}";
},
{
name = center;
position = "{203, 350}";
},
{
name = top;
position = "{384, 700}";
}
);
background = {
paths = (
{
closed = 1;
nodes = (
"498 629 OFFCURVE",
"631 503 OFFCURVE",
"631 348 CURVE SMOOTH",
"631 196 OFFCURVE",
"498 71 OFFCURVE",
"335 71 CURVE SMOOTH",
"156 71 LINE",
"156 629 LINE",
"335 629 LINE SMOOTH"
);
},
{
closed = 1;
nodes = (
"540 0 OFFCURVE",
"707 157 OFFCURVE",
"707 348 CURVE SMOOTH",
"707 542 OFFCURVE",
"540 700 OFFCURVE",
"335 700 CURVE SMOOTH",
"80 700 LINE",
"80 0 LINE",
"335 0 LINE SMOOTH"
);
}
);
};
layerId = "3129A168-24FD-451B-9986-F27775A960CA";
paths = (
{
closed = 1;
nodes = (
"335 0 LINE SMOOTH",
"535 0 OFFCURVE",
"699 157 OFFCURVE",
"699 348 CURVE SMOOTH",
"699 542 OFFCURVE",
"535 700 OFFCURVE",
"335 700 CURVE SMOOTH",
"87 700 LINE",
"87 0 LINE"
);
},
{
closed = 1;
nodes = (
"146 54 LINE",
"146 646 LINE",
"335 646 LINE SMOOTH",
"503 646 OFFCURVE",
"640 512 OFFCURVE",
"640 348 CURVE SMOOTH",
"640 186 OFFCURVE",
"503 54 OFFCURVE",
"335 54 CURVE SMOOTH"
);
}
);
width = 758;
}
);
leftKerningGroup = I;
leftMetricsKey = N;
rightKerningGroup = O;
rightMetricsKey = O;
unicode = 0044;
},
{
glyphname = E;
lastChange = "2019-01-09 10:46:54 +0000";
layers = (
{
anchors = (
{
name = bottom;
position = "{321, 0}";
},
{
name = ogonek;
position = "{615, 10}";
},
{
name = top;
position = "{311, 702}";
},
{
name = topleft;
position = "{35, 700}";
}
);
background = {
paths = (
{
closed = 1;
nodes = (
"95 0 LINE",
"261 0 LINE",
"261 700 LINE",
"95 700 LINE"
);
},
{
closed = 1;
nodes = (
"261 539 LINE",
"566 539 LINE",
"566 700 LINE",
"261 700 LINE"
);
},
{
closed = 1;
nodes = (
"261 0 LINE",
"566 0 LINE",
"566 161 LINE",
"261 161 LINE"
);
},
{
closed = 1;
nodes = (
"261 270 LINE",
"429 290 LINE",
"429 411 LINE",
"261 431 LINE"
);
}
);
};
guideLines = (
{
position = "{356, 198}";
}
);
layerId = "631A315E-0C3F-4988-8BF6-333737037850";
paths = (
{
closed = 1;
nodes = (
"566 0 LINE",
"566 149 LINE",
"237 149 LINE",
"237 275 LINE",
"429 295 LINE",
"429 406 LINE",
"237 426 LINE",
"237 551 LINE",
"566 551 LINE",
"566 700 LINE",
"77 700 LINE",
"77 0 LINE"
);
}
);
width = 617;
},
{
anchors = (
{
name = bottom;
position = "{312, 0}";
},
{
name = ogonek;
position = "{599, 23}";
},
{
name = top;
position = "{312, 700}";
},
{
name = topleft;
position = "{47, 700}";
}
);
background = {
paths = (
{
closed = 1;
nodes = (
"557 0 LINE",
"557 71 LINE",
"146 71 LINE",
"146 312 LINE",
"385 327 LINE",
"385 375 LINE",
"146 390 LINE",
"146 629 LINE",
"557 629 LINE",
"557 700 LINE",
"70 700 LINE",
"70 0 LINE"
);
}
);
};
layerId = "3129A168-24FD-451B-9986-F27775A960CA";
paths = (
{
closed = 1;
nodes = (
"557 0 LINE",
"557 54 LINE",
"146 54 LINE",
"146 324 LINE",
"385 331 LINE",
"385 371 LINE",
"146 378 LINE",
"146 646 LINE",
"557 646 LINE",
"557 700 LINE",
"87 700 LINE",
"87 0 LINE"
);
}
);
width = 618;
}
);
leftKerningGroup = I;
leftMetricsKey = N;
rightKerningGroup = E;
unicode = 0045;
},
{
glyphname = F;
lastChange = "2018-10-02 09:25:10 +0000";
layers = (
{
anchors = (
{
name = bottom;
position = "{321, 0}";
},
{
name = top;
position = "{321, 700}";
}
);
layerId = "631A315E-0C3F-4988-8BF6-333737037850";
paths = (
{
closed = 1;
nodes = (
"237 0 LINE",
"237 700 LINE",
"77 700 LINE",
"77 0 LINE"
);
},
{
closed = 1;
nodes = (
"427 295 LINE",
"427 406 LINE",
"237 426 LINE",
"237 275 LINE"
);
},
{
closed = 1;
nodes = (
"564 551 LINE",
"564 700 LINE",
"237 700 LINE",
"237 551 LINE"
);
}
);
width = 612;
},
{
anchors = (
{
name = bottom;
position = "{312, 0}";
},
{
name = top;
position = "{312, 700}";
}
);
layerId = "3129A168-24FD-451B-9986-F27775A960CA";
paths = (
{
closed = 1;
nodes = (
"146 0 LINE",
"146 700 LINE",
"87 700 LINE",
"87 0 LINE"
);
},
{
closed = 1;
nodes = (
"386 331 LINE",
"385 371 LINE",
"146 378 LINE",
"146 324 LINE"
);
},
{
closed = 1;
nodes = (
"558 646 LINE",
"557 700 LINE",
"146 700 LINE",
"146 646 LINE"
);
}
);
width = 616;
}
);
leftKerningGroup = I;
leftMetricsKey = N;
unicode = 0046;
},
{
glyphname = G;
lastChange = "2018-10-01 12:45:17 +0000";
layers = (
{
anchors = (
{
name = bottom;
position = "{407, 0}";
},
{
name = top;
position = "{407, 700}";
}
);
background = {
paths = (
{
closed = 1;
nodes = (
"671 238 LINE",
"671 399 LINE",
"366 399 LINE",
"366 238 LINE"
);
},
{
closed = 1;
nodes = (
"610 382 OFFCURVE",
"613 360 OFFCURVE",
"613 350 CURVE",
"614 238 OFFCURVE",
"525 146 OFFCURVE",
"415 146 CURVE",
"305 146 OFFCURVE",
"215 238 OFFCURVE",
"215 350 CURVE",
"215 462 OFFCURVE",
"305 554 OFFCURVE",
"415 554 CURVE",
"473 554 OFFCURVE",
"547 512 OFFCURVE",
"580 461 CURVE",
"761 461 LINE",
"716 601 OFFCURVE",
"560 715 OFFCURVE",
"415 715 CURVE",
"215 715 OFFCURVE",
"50 551 OFFCURVE",
"49 350 CURVE",
"48 149 OFFCURVE",
"213 -15 OFFCURVE",
"415 -15 CURVE",
"616 -15 OFFCURVE",
"780 149 OFFCURVE",
"779 350 CURVE",
"779 364 OFFCURVE",
"778 386 OFFCURVE",
"776 399 CURVE",
"607 399 LINE"
);
}
);
};
guideLines = (
{
position = "{594, 461}";
},
{
position = "{596, 399}";
},
{
angle = -61.429;
position = "{683, 399}";
},
{
angle = 61.4293;
position = "{683, 461}";
}
);
layerId = "631A315E-0C3F-4988-8BF6-333737037850";
paths = (
{
closed = 1;
nodes = (
"581 -15 OFFCURVE",
"721 97 OFFCURVE",
"765 248 CURVE",
"683 394 LINE",
"366 394 LINE",
"366 245 LINE",
"583 245 LINE",
"556 183 OFFCURVE",
"489 144 OFFCURVE",
"415 144 CURVE SMOOTH",
"303 144 OFFCURVE",
"213 236 OFFCURVE",
"213 348 CURVE SMOOTH",
"213 462 OFFCURVE",
"306 556 OFFCURVE",
"409 556 CURVE SMOOTH",
"479 556 OFFCURVE",
"547 515 OFFCURVE",
"582 461 CURVE",
"683 461 LINE",
"724 537 LINE",
"658 637 OFFCURVE",
"540 715 OFFCURVE",
"409 715 CURVE SMOOTH",
"219 715 OFFCURVE",
"50 551 OFFCURVE",
"49 350 CURVE SMOOTH",
"48 149 OFFCURVE",
"213 -15 OFFCURVE",
"415 -15 CURVE SMOOTH"
);
}
);
width = 811;
},
{
anchors = (
{
name = bottom;
position = "{421, 0}";
},
{
name = top;
position = "{421, 700}";
}
);
background = {
paths = (
{
closed = 1;
nodes = (
"713 188 OFFCURVE",
"583 56 OFFCURVE",
"425 56 CURVE SMOOTH",
"265 56 OFFCURVE",
"135 188 OFFCURVE",
"135 350 CURVE SMOOTH",
"135 512 OFFCURVE",
"265 644 OFFCURVE",
"425 644 CURVE SMOOTH",
"513 644 OFFCURVE",
"593 602 OFFCURVE",
"646 537 CURVE",
"704 537 LINE",
"719 564 LINE",
"653 656 OFFCURVE",
"545 715 OFFCURVE",
"425 715 CURVE SMOOTH",
"224 715 OFFCURVE",
"59 550 OFFCURVE",
"59 348 CURVE SMOOTH",
"59 148 OFFCURVE",
"224 -15 OFFCURVE",
"425 -15 CURVE SMOOTH",
"594 -15 OFFCURVE",
"738 103 OFFCURVE",
"778 260 CURVE",
"729 349 LINE",
"713 349 LINE"
);
},
{
closed = 1;
nodes = (
"428 278 LINE",
"729 278 LINE",
"729 349 LINE",
"428 349 LINE"
);
}
);
};
guideLines = (
{
position = "{646, 537}";
},
{
angle = 60.9234;
position = "{704, 537}";
},
{
position = "{428, 278}";
},
{
angle = 118.728;
position = "{745, 349}";
},
{
position = "{428, 349}";
}
);
layerId = "3129A168-24FD-451B-9986-F27775A960CA";
paths = (
{
closed = 1;
nodes = (
"602 -15 OFFCURVE",
"751 113 OFFCURVE",
"783 281 CURVE",
"745 349 LINE",
"428 349 LINE",
"428 295 LINE",
"725 295 LINE",
"699 154 OFFCURVE",
"572 39 OFFCURVE",
"425 39 CURVE SMOOTH",
"260 39 OFFCURVE",
"118 183 OFFCURVE",
"118 350 CURVE SMOOTH",
"118 517 OFFCURVE",
"260 661 OFFCURVE",
"425 661 CURVE SMOOTH",
"521 661 OFFCURVE",
"609 612 OFFCURVE",
"665 537 CURVE",
"704 537 LINE",
"719 564 LINE",
"652 656 OFFCURVE",
"545 715 OFFCURVE",
"425 715 CURVE SMOOTH",
"224 715 OFFCURVE",
"59 550 OFFCURVE",
"59 348 CURVE SMOOTH",
"59 148 OFFCURVE",
"224 -15 OFFCURVE",
"425 -15 CURVE SMOOTH"
);
}
);
width = 839;
}
);
leftKerningGroup = O;
leftMetricsKey = O;
rightKerningGroup = O;
rightMetricsKey = "=O-3";
unicode = 0047;
},
{
glyphname = H;
lastChange = "2018-10-02 09:29:48 +0000";
layers = (
{
anchors = (
{
name = bottom;
position = "{384, 0}";
},
{
name = center;
position = "{384, 350}";
},
{
name = top;
position = "{384, 700}";
},
{
name = topleft;
position = "{20, 700}";
}
);
guideLines = (
{
angle = -23.7495;
position = "{241, 276}";
}
);
layerId = "631A315E-0C3F-4988-8BF6-333737037850";
paths = (
{
closed = 1;
nodes = (
"237 0 LINE",
"237 275 LINE",
"287 255 LINE",
"481 255 LINE",
"531 275 LINE",
"531 0 LINE",
"691 0 LINE",
"691 700 LINE",
"531 700 LINE",
"531 414 LINE",
"237 414 LINE",
"237 700 LINE",
"77 700 LINE",
"77 0 LINE"
);
}
);
width = 766;
},
{
anchors = (
{
name = bottom;
position = "{334, 0}";
},
{
name = center;
position = "{334, 350}";
},
{
name = top;
position = "{334, 700}";
},
{
name = topleft;
position = "{60, 700}";
}
);
background = {
paths = (
{
closed = 1;
nodes = (
"557 0 LINE",
"557 54 LINE",
"146 54 LINE",
"146 324 LINE",
"385 331 LINE",
"385 371 LINE",
"146 378 LINE",
"146 646 LINE",
"557 646 LINE",
"557 700 LINE",
"87 700 LINE",
"87 0 LINE"
);
}
);
};
guideLines = (
{
position = "{147, 339}";
},
{
angle = 23.749;
position = "{522, 339}";
}
);
layerId = "3129A168-24FD-451B-9986-F27775A960CA";
paths = (
{
closed = 1;
nodes = (
"146 0 LINE",
"146 339 LINE",
"203 314 LINE",
"485 314 LINE",
"542 339 LINE",
"542 0 LINE",
"601 0 LINE",
"601 700 LINE",
"542 700 LINE",
"542 368 LINE",
"146 368 LINE",
"146 700 LINE",
"87 700 LINE",
"87 0 LINE"
);
}
);
width = 686;
}
);
leftKerningGroup = N;
leftMetricsKey = N;
rightKerningGroup = N;
rightMetricsKey = N;
unicode = 0048;
},
{
glyphname = Hbar;
lastChange = "2016-06-27 07:49:32 +0000";
layers = (
{
guideLines = (
{
angle = 90;
position = "{221, 277}";
},
{
angle = 90;
position = "{517, 276}";
}
);
layerId = "631A315E-0C3F-4988-8BF6-333737037850";
paths = (
{
closed = 1;
nodes = (
"678 0 LINE",
"678 700 LINE",
"512 700 LINE",
"512 0 LINE"
);
},
{
closed = 1;
nodes = (
"226 0 LINE",
"226 700 LINE",
"60 700 LINE",
"60 0 LINE"
);
},
{
closed = 1;
nodes = (
"462 254 LINE",
"517 276 LINE",
"517 415 LINE",
"221 415 LINE",
"221 276 LINE",
"276 254 LINE"
);
},
{
closed = 1;
nodes = (
"593 501 LINE",
"593 604 LINE",
"133 604 LINE",
"133 501 LINE"
);
}
);
width = 738;
},
{
layerId = "3129A168-24FD-451B-9986-F27775A960CA";
paths = (
{
closed = 1;
nodes = (
"534 0 LINE",
"534 700 LINE",
"475 700 LINE",
"475 0 LINE"
);
},
{
closed = 1;
nodes = (
"99 0 LINE",
"99 700 LINE",
"40 700 LINE",
"40 0 LINE"
);
},
{
closed = 1;
nodes = (
"418 314 LINE",
"475 339 LINE",
"475 368 LINE",
"99 368 LINE",
"99 339 LINE",
"156 314 LINE"
);
},
{
closed = 1;
nodes = (
"475 506 LINE",
"475 558 LINE",
"99 558 LINE",
"99 506 LINE"
);
}
);
width = 574;
}
);
unicode = 0126;
},
{
glyphname = I;
lastChange = "2018-10-01 12:00:49 +0000";
layers = (
{
anchors = (
{
name = bottom;
position = "{160, 0}";
},
{
name = ogonek;
position = "{291, 10}";
},
{
name = top;
position = "{160, 700}";
},
{
name = topleft;
position = "{37, 700}";
}
);
guideLines = (
{
angle = 90;
position = "{160, 700}";
}
);
layerId = "631A315E-0C3F-4988-8BF6-333737037850";
paths = (
{
closed = 1;
nodes = (
"240 0 LINE",
"240 700 LINE",
"80 700 LINE",
"80 0 LINE"
);
}
);
width = 320;
},
{
anchors = (
{
name = bottom;
position = "{115, 0}";
},
{
name = ogonek;
position = "{186, 10}";
},
{
name = top;
position = "{115, 700}";
},
{
name = topleft;
position = "{45, 700}";
}
);
layerId = "3129A168-24FD-451B-9986-F27775A960CA";
paths = (
{
closed = 1;
nodes = (
"144 0 LINE",
"144 700 LINE",
"85 700 LINE",
"85 0 LINE"
);
}
);
width = 229;
}
);
leftKerningGroup = N;
rightKerningGroup = N;
unicode = 0049;
},
{
glyphname = J;
lastChange = "2018-10-02 09:31:04 +0000";
layers = (
{
anchors = (
{
name = bottom;
position = "{280, 0}";
},
{
name = top;
position = "{280, 700}";
}
);
background = {
paths = (
{
closed = 1;
nodes = (
"336 267 LINE",
"336 200 OFFCURVE",
"282 146 OFFCURVE",
"217 146 CURVE",
"150 146 OFFCURVE",
"96 200 OFFCURVE",
"96 267 CURVE",
"-70 267 LINE",
"-71 112 OFFCURVE",
"58 -15 OFFCURVE",
"217 -15 CURVE",
"375 -15 OFFCURVE",
"503 112 OFFCURVE",
"502 267 CURVE"
);
}
);
};
guideLines = (
{
angle = -90;
position = "{42, 128}";
},
{
position = "{-54, 172}";
}
);
layerId = "631A315E-0C3F-4988-8BF6-333737037850";
paths = (
{
closed = 1;
nodes = (
"367 -15 OFFCURVE",
"500 99 OFFCURVE",
"500 267 CURVE SMOOTH",
"500 700 LINE",
"340 700 LINE",
"340 267 LINE SMOOTH",
"340 192 OFFCURVE",
"283 140 OFFCURVE",
"222 140 CURVE SMOOTH",
"190 140 OFFCURVE",
"159 155 OFFCURVE",
"141 172 CURVE",
"42 128 LINE",
"42 44 LINE",
"85 12 OFFCURVE",
"157 -15 OFFCURVE",
"226 -15 CURVE SMOOTH"
);
}
);
width = 577;
},
{
anchors = (
{
name = bottom;
position = "{235, 0}";
},
{
name = top;
position = "{235, 700}";
}
);
background = {
paths = (
{
closed = 1;
nodes = (
"297 -20 OFFCURVE",
"410 111 OFFCURVE",
"410 256 CURVE SMOOTH",
"410 701 LINE",
"334 701 LINE",
"334 256 LINE SMOOTH",
"334 151 OFFCURVE",
"269 57 OFFCURVE",
"170 57 CURVE SMOOTH",
"148 57 OFFCURVE",
"117 65 OFFCURVE",
"91 80 CURVE",
"45 56 LINE",
"45 28 LINE",
"76 7 OFFCURVE",
"127 -12 OFFCURVE",
"171 -14 CURVE SMOOTH"
);
}
);
};
guideLines = (
{
angle = 207.5528;
position = "{91, 80}";
},
{
angle = 90;
position = "{45, 56}";
}
);
layerId = "3129A168-24FD-451B-9986-F27775A960CA";
paths = (
{
closed = 1;
nodes = (
"305 -15 OFFCURVE",
"410 103 OFFCURVE",
"410 247 CURVE SMOOTH",
"410 698 LINE",
"350 698 LINE",
"350 247 LINE SMOOTH",
"350 133 OFFCURVE",
"272 39 OFFCURVE",
"178 39 CURVE SMOOTH",
"143 39 OFFCURVE",
"110 52 OFFCURVE",
"83 74 CURVE",
"50 56 LINE",
"50 29 LINE",
"86 1 OFFCURVE",
"130 -15 OFFCURVE",
"177 -15 CURVE SMOOTH"
);
}
);
width = 480;
}
);
unicode = 004A;
},
{
glyphname = K;
lastChange = "2018-10-01 12:47:51 +0000";
layers = (
{
anchors = (
{
name = bottom;
position = "{346, 0}";
},
{
name = top;
position = "{346, 700}";
}
);
background = {
paths = (
{
closed = 1;
nodes = (
"241 0 LINE",
"241 700 LINE",
"75 700 LINE",
"75 0 LINE"
);
},
{
closed = 1;
nodes = (
"616 0 LINE",
"616 112 LINE",
"387 400 LINE",
"260 282 LINE",
"484 0 LINE"
);
},
{
closed = 1;
nodes = (
"146 350 LINE",
"146 118 LINE",
"586 589 LINE",
"586 701 LINE",
"474 701 LINE"
);
}
);
};
guideLines = (
{
angle = 226.9401;
position = "{586, 589}";
},
{
angle = 226.9401;
position = "{474, 701}";
},
{
angle = -51.5104;
position = "{220, 282}";
},
{
angle = -51.5104;
position = "{387, 400}";
}
);
layerId = "631A315E-0C3F-4988-8BF6-333737037850";
paths = (
{
closed = 1;
nodes = (
"237 0 LINE",
"237 265 LINE",
"208 187 LINE",
"314 298 LINE",
"272 300 LINE",
"506 0 LINE",
"636 0 LINE",
"636 88 LINE",
"363 422 LINE",
"360 354 LINE",
"606 610 LINE",
"606 701 LINE",
"483 701 LINE",
"220 417 LINE",
"237 410 LINE",
"237 700 LINE",
"77 700 LINE",
"77 0 LINE"
);
}
);
width = 672;
},
{
anchors = (
{
name = bottom;
position = "{322, 0}";
},
{
name = top;
position = "{322, 700}";
}
);
guideLines = (
{
angle = 49.1327;
position = "{146, 241}";
},
{
angle = -53.5836;
position = "{503, 0}";
}
);
layerId = "3129A168-24FD-451B-9986-F27775A960CA";
paths = (
{
closed = 1;
nodes = (
"146 0 LINE",
"146 286 LINE",
"117 207 LINE",
"272 387 LINE",
"216 389 LINE",
"503 0 LINE",
"565 0 LINE",
"565 14 LINE",
"255 434 LINE",
"253 364 LINE",
"533 689 LINE",
"533 700 LINE",
"467 700 LINE",
"117 295 LINE",
"146 284 LINE",
"146 700 LINE",
"87 700 LINE",
"87 0 LINE"
);
}
);
width = 605;
}
);
leftKerningGroup = N;
leftMetricsKey = N;
unicode = 004B;
},
{
glyphname = L;
lastChange = "2018-10-01 12:01:11 +0000";
layers = (
{
anchors = (
{
name = bottom;
position = "{311, 0}";
},
{
name = center;
position = "{171, 350}";
},
{
name = top;
position = "{311, 700}";
},
{
name = topright;
position = "{586, 700}";
}
);
layerId = "631A315E-0C3F-4988-8BF6-333737037850";
paths = (
{
closed = 1;
nodes = (
"546 0 LINE",
"546 149 LINE",
"237 149 LINE",
"237 700 LINE",
"77 700 LINE",
"77 0 LINE"
);
}
);
width = 591;
},
{
anchors = (
{
name = bottom;
position = "{266, 0}";
},
{
name = center;
position = "{116, 350}";
},
{
name = top;
position = "{266, 700}";
},
{
name = topright;
position = "{494, 700}";
}
);
layerId = "3129A168-24FD-451B-9986-F27775A960CA";
paths = (
{
closed = 1;
nodes = (
"454 0 LINE",
"454 51 LINE",
"146 51 LINE",
"146 700 LINE",
"87 700 LINE",
"87 0 LINE"
);
}
);
width = 509;
}
);
leftKerningGroup = N;
leftMetricsKey = N;
unicode = 004C;
},
{
glyphname = Lcaron;
lastChange = "2016-06-27 07:49:53 +0000";
layers = (
{
layerId = "631A315E-0C3F-4988-8BF6-333737037850";
paths = (
{
closed = 1;
nodes = (
"531 0 LINE",
"531 161 LINE",
"226 161 LINE",
"226 724 LINE",
"60 724 LINE",
"60 0 LINE"
);
},
{
closed = 1;
nodes = (
"387 579 LINE",
"478 730 LINE",
"338 730 LINE",
"283 579 LINE"
);
}
);
width = 591;
},
{
layerId = "3129A168-24FD-451B-9986-F27775A960CA";
paths = (
{
closed = 1;
nodes = (
"407 0 LINE",
"407 51 LINE",
"99 51 LINE",
"99 700 LINE",
"40 700 LINE",
"40 0 LINE"
);
},
{
closed = 1;
nodes = (
"217 522 LINE",
"288 673 LINE",
"223 673 LINE",
"168 522 LINE"
);
}
);
width = 447;
}
);
unicode = 013D;
},
{
glyphname = M;
lastChange = "2018-10-01 11:56:06 +0000";
layers = (
{
anchors = (
{
name = bottom;
position = "{454, 0}";
},
{
name = top;
position = "{454, 700}";
}
);
background = {
paths = (
{
closed = 1;
nodes = (
"508 153 LINE",
"765 578 LINE",
"765 700 LINE",
"657 700 LINE",
"454 334 LINE",
"251 700 LINE",
"143 700 LINE",
"143 578 LINE",
"400 153 LINE"
);
},
{
closed = 1;
nodes = (
"241 0 LINE",
"241 700 LINE",
"75 700 LINE",
"75 0 LINE"
);
},
{
closed = 1;
nodes = (
"833 0 LINE",
"833 700 LINE",
"667 700 LINE",
"667 0 LINE"
);
}
);
};
layerId = "631A315E-0C3F-4988-8BF6-333737037850";
paths = (
{
closed = 1;
nodes = (
"237 0 LINE",
"235 481 LINE",
"218 475 LINE",
"400 123 LINE",
"508 123 LINE",
"690 475 LINE",
"673 481 LINE",
"671 0 LINE",
"831 0 LINE",
"831 700 LINE",
"663 700 LINE",
"435 265 LINE",
"473 265 LINE",
"245 700 LINE",
"77 700 LINE",
"77 0 LINE"
);
}
);
width = 906;
},
{
anchors = (
{
name = bottom;
position = "{439, 0}";
},
{
name = top;
position = "{439, 700}";
}
);
guideLines = (
{
angle = 121.0408;
position = "{183, 700}";
},
{
angle = 58.9592;
position = "{695, 700}";
},
{
angle = 121.0408;
position = "{409, 209}";
},
{
angle = 58.9592;
position = "{469, 209}";
}
);
layerId = "3129A168-24FD-451B-9986-F27775A960CA";
paths = (
{
closed = 1;
nodes = (
"146 0 LINE",
"146 691 LINE",
"123 685 LINE",
"409 159 LINE",
"469 159 LINE",
"755 685 LINE",
"732 691 LINE",
"732 0 LINE",
"791 0 LINE",
"791 700 LINE",
"696 700 LINE",
"417 176 LINE",
"461 176 LINE",
"182 700 LINE",
"87 700 LINE",
"87 0 LINE"
);
}
);
width = 876;
}
);
leftKerningGroup = N;
leftMetricsKey = N;
rightKerningGroup = N;
rightMetricsKey = N;
unicode = 004D;
},
{
glyphname = N;
lastChange = "2018-10-01 12:40:06 +0000";
layers = (
{
anchors = (
{
name = bottom;
position = "{399, 0}";
},
{
name = top;
position = "{359, 700}";
}
);
guideLines = (
{
angle = 126.1848;
position = "{557, 0}";
}
);
layerId = "631A315E-0C3F-4988-8BF6-333737037850";
paths = (
{
closed = 1;
nodes = (
"237 0 LINE",
"232 489 LINE",
"217 480 LINE",
"562 0 LINE",
"721 0 LINE",
"721 700 LINE",
"561 700 LINE",
"566 211 LINE",
"581 220 LINE",
"236 700 LINE",
"77 700 LINE",
"77 0 LINE"
);
}
);
width = 796;
},
{
anchors = (
{
name = bottom;
position = "{383, 0}";
},
{
name = top;
position = "{383, 700}";
}
);
guideLines = (
{
angle = -55.1228;
position = "{176, 700}";
}
);
layerId = "3129A168-24FD-451B-9986-F27775A960CA";
paths = (
{
closed = 1;
nodes = (
"146 0 LINE",
"146 685 LINE",
"120 677 LINE",
"590 0 LINE",
"679 0 LINE",
"679 700 LINE",
"620 700 LINE",
"620 15 LINE",
"646 23 LINE",
"176 700 LINE",
"87 700 LINE",
"87 0 LINE"
);
}
);
width = 764;
}
);
leftKerningGroup = N;
rightKerningGroup = N;
unicode = 004E;
},
{
glyphname = Eng;
lastChange = "2018-10-02 12:53:38 +0000";
layers = (
{
layerId = "631A315E-0C3F-4988-8BF6-333737037850";
paths = (
{
closed = 1;
nodes = (
"226 0 LINE",
"226 432 LINE",
"542 0 LINE",
"708 0 LINE",
"708 700 LINE",
"542 700 LINE",
"542 268 LINE",
"226 700 LINE",
"60 700 LINE",
"60 0 LINE"
);
},
{
closed = 1;
nodes = (
"585 -208 OFFCURVE",
"708 -109 OFFCURVE",
"708 0 CURVE",
"542 0 LINE",
"542 -31 OFFCURVE",
"504 -47 OFFCURVE",
"446 -47 CURVE",
"446 -208 LINE"
);
}
);
width = 768;
},
{
layerId = "3129A168-24FD-451B-9986-F27775A960CA";
paths = (
{
closed = 1;
nodes = (
"99 0 LINE",
"99 640 LINE",
"563 0 LINE",
"632 0 LINE",
"632 700 LINE",
"573 700 LINE",
"573 80 LINE",
"129 700 LINE",
"40 700 LINE",
"40 0 LINE"
);
},
{
closed = 1;
nodes = (
"578 -156 OFFCURVE",
"632 -96 OFFCURVE",
"632 0 CURVE",
"563 0 LINE",
"563 -69 OFFCURVE",
"543 -92 OFFCURVE",
"463 -92 CURVE",
"463 -156 LINE"
);
}
);
width = 592;
}
);
unicode = 014A;
},
{
glyphname = O;
lastChange = "2018-10-02 09:16:44 +0000";
layers = (
{
anchors = (
{
name = bottom;
position = "{415, 0}";
},
{
name = center;
position = "{414, 350}";
},
{
name = ogonek;
position = "{738, 10}";
},
{
name = top;
position = "{415, 700}";
},
{
name = topleft;
position = "{29, 700}";
},
{
name = topright;
position = "{799, 700}";
}
);
guideLines = (
{
position = "{1690, 113}";
},
{
angle = 90;
position = "{1551, 112}";
},
{
position = "{411, 756}";
}
);
layerId = "631A315E-0C3F-4988-8BF6-333737037850";
paths = (
{
closed = 1;
nodes = (
"616 -15 OFFCURVE",
"780 149 OFFCURVE",
"779 350 CURVE SMOOTH",
"778 551 OFFCURVE",
"614 715 OFFCURVE",
"415 715 CURVE SMOOTH",
"215 715 OFFCURVE",
"50 551 OFFCURVE",
"49 350 CURVE SMOOTH",
"48 149 OFFCURVE",
"213 -15 OFFCURVE",
"415 -15 CURVE SMOOTH"
);
},
{
closed = 1;
nodes = (
"303 144 OFFCURVE",
"213 236 OFFCURVE",
"213 350 CURVE SMOOTH",
"213 464 OFFCURVE",
"303 556 OFFCURVE",
"414 556 CURVE SMOOTH",
"525 556 OFFCURVE",
"614 464 OFFCURVE",
"615 350 CURVE SMOOTH",
"616 236 OFFCURVE",
"527 144 OFFCURVE",
"415 144 CURVE SMOOTH"
);
}
);
width = 828;
},
{
anchors = (
{
name = bottom;
position = "{424, 0}";
},
{
name = center;
position = "{424, 350}";
},
{
name = ogonek;
position = "{748, 10}";
},
{
name = top;
position = "{424, 700}";
},
{
name = topleft;
position = "{39, 700}";
},
{
name = topright;
position = "{809, 700}";
}
);
layerId = "3129A168-24FD-451B-9986-F27775A960CA";
paths = (
{
closed = 1;
nodes = (
"625 -15 OFFCURVE",
"789 148 OFFCURVE",
"789 348 CURVE SMOOTH",
"789 550 OFFCURVE",
"625 715 OFFCURVE",
"425 715 CURVE SMOOTH",
"224 715 OFFCURVE",
"59 550 OFFCURVE",
"59 348 CURVE SMOOTH",
"59 148 OFFCURVE",
"224 -15 OFFCURVE",
"425 -15 CURVE SMOOTH"
);
},
{
closed = 1;
nodes = (
"260 39 OFFCURVE",
"118 183 OFFCURVE",
"118 350 CURVE SMOOTH",
"118 517 OFFCURVE",
"260 661 OFFCURVE",
"425 661 CURVE SMOOTH",
"589 661 OFFCURVE",
"730 516 OFFCURVE",
"730 348 CURVE SMOOTH",
"730 182 OFFCURVE",
"589 39 OFFCURVE",
"425 39 CURVE SMOOTH"
);
}
);
width = 848;
}
);
leftKerningGroup = O;
rightKerningGroup = O;
unicode = 004F;
},
{
glyphname = Oslash;
lastChange = "2018-10-01 12:42:34 +0000";
layers = (
{
layerId = "631A315E-0C3F-4988-8BF6-333737037850";
paths = (
{
closed = 1;
nodes = (
"612 -15 OFFCURVE",
"776 149 OFFCURVE",
"775 350 CURVE SMOOTH",
"774 551 OFFCURVE",
"610 715 OFFCURVE",
"411 715 CURVE SMOOTH",
"211 715 OFFCURVE",
"46 551 OFFCURVE",
"45 350 CURVE SMOOTH",
"44 149 OFFCURVE",
"209 -15 OFFCURVE",
"411 -15 CURVE SMOOTH"
);
},
{
closed = 1;
nodes = (
"299 144 OFFCURVE",
"209 236 OFFCURVE",
"209 350 CURVE SMOOTH",
"209 464 OFFCURVE",
"299 556 OFFCURVE",
"410 556 CURVE SMOOTH",
"521 556 OFFCURVE",
"610 464 OFFCURVE",
"611 350 CURVE SMOOTH",
"612 236 OFFCURVE",
"523 144 OFFCURVE",
"411 144 CURVE SMOOTH"
);
},
{
closed = 1;
nodes = (
"769 651 LINE",
"769 700 LINE",
"636 700 LINE",
"51 49 LINE",
"51 0 LINE",
"181 0 LINE"
);
}
);
width = 820;
},
{
layerId = "3129A168-24FD-451B-9986-F27775A960CA";
paths = (
{
closed = 1;
nodes = (
"623 -15 OFFCURVE",
"787 148 OFFCURVE",
"787 348 CURVE SMOOTH",
"787 550 OFFCURVE",
"623 715 OFFCURVE",
"423 715 CURVE SMOOTH",
"222 715 OFFCURVE",
"57 550 OFFCURVE",
"57 348 CURVE SMOOTH",
"57 148 OFFCURVE",
"222 -15 OFFCURVE",
"423 -15 CURVE SMOOTH"
);
},
{
closed = 1;
nodes = (
"258 39 OFFCURVE",
"116 183 OFFCURVE",
"116 350 CURVE SMOOTH",
"116 517 OFFCURVE",
"258 661 OFFCURVE",
"423 661 CURVE SMOOTH",
"587 661 OFFCURVE",
"728 516 OFFCURVE",
"728 348 CURVE SMOOTH",
"728 182 OFFCURVE",
"587 39 OFFCURVE",
"423 39 CURVE SMOOTH"
);
},
{
closed = 1;
nodes = (
"790 681 LINE",
"790 700 LINE",
"732 700 LINE",
"55 19 LINE",
"55 0 LINE",
"113 0 LINE"
);
}
);
width = 845;
}
);
unicode = 00D8;
},
{
glyphname = OE;
lastChange = "2016-06-27 07:50:18 +0000";
layers = (
{
layerId = "631A315E-0C3F-4988-8BF6-333737037850";
paths = (
{
closed = 1;
nodes = (
"607 -15 OFFCURVE",
"771 149 OFFCURVE",
"770 350 CURVE",
"769 551 OFFCURVE",
"605 715 OFFCURVE",
"406 715 CURVE",
"206 715 OFFCURVE",
"41 551 OFFCURVE",
"40 350 CURVE",
"39 149 OFFCURVE",
"204 -15 OFFCURVE",
"406 -15 CURVE"
);
},
{
closed = 1;
nodes = (
"296 146 OFFCURVE",
"206 238 OFFCURVE",
"206 350 CURVE",
"206 462 OFFCURVE",
"296 554 OFFCURVE",
"406 554 CURVE",
"514 554 OFFCURVE",
"603 462 OFFCURVE",
"604 350 CURVE",
"605 238 OFFCURVE",
"516 146 OFFCURVE",
"406 146 CURVE"
);
},
{
closed = 1;
nodes = (
"1095 0 LINE",
"1095 161 LINE",
"770 161 LINE",
"770 270 LINE",
"958 290 LINE",
"958 411 LINE",
"770 431 LINE",
"770 539 LINE",
"1095 539 LINE",
"1095 700 LINE",
"604 700 LINE",
"604 0 LINE"
);
}
);
width = 1135;
},
{
layerId = "3129A168-24FD-451B-9986-F27775A960CA";
paths = (
{
closed = 1;
nodes = (
"606 -15 OFFCURVE",
"770 148 OFFCURVE",
"770 348 CURVE SMOOTH",
"770 550 OFFCURVE",
"606 715 OFFCURVE",
"406 715 CURVE SMOOTH",
"205 715 OFFCURVE",
"40 550 OFFCURVE",
"40 348 CURVE SMOOTH",
"40 148 OFFCURVE",
"205 -15 OFFCURVE",
"406 -15 CURVE SMOOTH"
);
},
{
closed = 1;
nodes = (
"241 39 OFFCURVE",
"99 183 OFFCURVE",
"99 350 CURVE SMOOTH",
"99 517 OFFCURVE",
"241 661 OFFCURVE",
"406 661 CURVE SMOOTH",
"570 661 OFFCURVE",
"711 516 OFFCURVE",
"711 348 CURVE SMOOTH",
"711 182 OFFCURVE",
"570 39 OFFCURVE",
"406 39 CURVE SMOOTH"
);
},
{
closed = 1;
nodes = (
"1181 0 LINE",
"1181 54 LINE",
"770 54 LINE",
"770 324 LINE",
"1009 331 LINE",
"1009 371 LINE",
"770 378 LINE",
"770 646 LINE",
"1181 646 LINE",
"1181 700 LINE",
"711 700 LINE",
"711 0 LINE"
);
}
);
width = 1141;
}
);
unicode = 0152;
},
{
glyphname = P;
lastChange = "2019-01-23 12:09:45 +0000";
layers = (
{
anchors = (
{
name = bottom;
position = "{342, 0}";
},
{
name = top;
position = "{342, 700}";
}
);
layerId = "631A315E-0C3F-4988-8BF6-333737037850";
paths = (
{
closed = 1;
nodes = (
"375 191 LINE SMOOTH",
"514 191 OFFCURVE",
"628 306 OFFCURVE",
"628 446 CURVE SMOOTH",
"628 586 OFFCURVE",
"512 700 OFFCURVE",
"371 700 CURVE SMOOTH",
"229 700 LINE",
"229 551 LINE",
"376 551 LINE SMOOTH",
"423 551 OFFCURVE",
"462 509 OFFCURVE",
"462 446 CURVE SMOOTH",
"462 383 OFFCURVE",
"423 340 OFFCURVE",
"376 340 CURVE SMOOTH",
"229 340 LINE",
"229 191 LINE"
);
},
{
closed = 1;
nodes = (
"237 0 LINE",
"237 700 LINE",
"77 700 LINE",
"77 0 LINE"
);
}
);
width = 669;
},
{
anchors = (
{
name = bottom;
position = "{310, 0}";
},
{
name = top;
position = "{310, 700}";
}
);
background = {
paths = (
{
closed = 1;
nodes = (
"88 700 LINE",
"88 0 LINE",
"164 0 LINE",
"164 223 LINE",
"307 223 LINE",
"442 223 OFFCURVE",
"552 331 OFFCURVE",
"551 462 CURVE SMOOTH",
"550 593 OFFCURVE",
"439 700 OFFCURVE",
"304 700 CURVE"
);
},
{
closed = 1;
nodes = (
"399 629 OFFCURVE",
"476 554 OFFCURVE",
"475 462 CURVE SMOOTH",
"474 370 OFFCURVE",
"398 294 OFFCURVE",
"307 294 CURVE",
"164 294 LINE",
"164 629 LINE",
"304 629 LINE"
);
},
{
closed = 1;
nodes = (
"388 191 LINE SMOOTH",
"527 191 OFFCURVE",
"641 306 OFFCURVE",
"641 446 CURVE SMOOTH",
"641 586 OFFCURVE",
"525 700 OFFCURVE",
"384 700 CURVE SMOOTH",
"244 700 LINE",
"244 539 LINE",
"389 539 LINE SMOOTH",
"436 539 OFFCURVE",
"475 497 OFFCURVE",
"475 446 CURVE SMOOTH",
"475 395 OFFCURVE",
"436 352 OFFCURVE",
"389 352 CURVE SMOOTH",
"244 352 LINE",
"244 191 LINE"
);
},
{
closed = 1;
nodes = (
"254 0 LINE",
"254 700 LINE",
"88 700 LINE",
"88 0 LINE"
);
}
);
};
layerId = "3129A168-24FD-451B-9986-F27775A960CA";
paths = (
{
closed = 1;
nodes = (
"331 223 LINE SMOOTH",
"461 223 OFFCURVE",
"569 331 OFFCURVE",
"570 462 CURVE SMOOTH",
"571 593 OFFCURVE",
"463 700 OFFCURVE",
"329 700 CURVE SMOOTH",
"118 700 LINE",
"118 646 LINE",
"329 646 LINE SMOOTH",
"429 646 OFFCURVE",
"511 563 OFFCURVE",
"511 462 CURVE SMOOTH",
"511 360 OFFCURVE",
"430 277 OFFCURVE",
"331 277 CURVE SMOOTH",
"108 277 LINE",
"108 223 LINE"
);
},
{
closed = 1;
nodes = (
"146 0 LINE",
"146 700 LINE",
"87 700 LINE",
"87 0 LINE"
);
}
);
width = 621;
}
);
leftKerningGroup = N;
leftMetricsKey = N;
unicode = 0050;
},
{
glyphname = Thorn;
lastChange = "2017-06-02 12:44:35 +0000";
layers = (
{
layerId = "631A315E-0C3F-4988-8BF6-333737037850";
paths = (
{
closed = 1;
nodes = (
"360 91 LINE SMOOTH",
"499 91 OFFCURVE",
"613 206 OFFCURVE",
"613 346 CURVE SMOOTH",
"613 486 OFFCURVE",
"497 600 OFFCURVE",
"356 600 CURVE SMOOTH",
"216 600 LINE",
"216 439 LINE",
"361 439 LINE SMOOTH",
"408 439 OFFCURVE",
"447 397 OFFCURVE",
"447 346 CURVE SMOOTH",
"447 295 OFFCURVE",
"408 252 OFFCURVE",
"361 252 CURVE SMOOTH",
"216 252 LINE",
"216 91 LINE"
);
},
{
closed = 1;
nodes = (
"60 0 LINE",
"226 0 LINE",
"226 700 LINE",
"60 700 LINE"
);
}
);
width = 600;
},
{
layerId = "3129A168-24FD-451B-9986-F27775A960CA";
paths = (
{
closed = 1;
nodes = (
"294 133 LINE SMOOTH",
"424 133 OFFCURVE",
"532 241 OFFCURVE",
"533 372 CURVE SMOOTH",
"534 503 OFFCURVE",
"426 610 OFFCURVE",
"292 610 CURVE SMOOTH",
"81 610 LINE",
"81 556 LINE",
"292 556 LINE SMOOTH",
"392 556 OFFCURVE",
"474 473 OFFCURVE",
"474 372 CURVE SMOOTH",
"474 270 OFFCURVE",
"393 187 OFFCURVE",
"294 187 CURVE SMOOTH",
"71 187 LINE",
"71 133 LINE"
);
},
{
closed = 1;
nodes = (
"50 0 LINE",
"109 0 LINE",
"109 700 LINE",
"50 700 LINE"
);
}
);
width = 573;
}
);
unicode = 00DE;
},
{
glyphname = Q;
lastChange = "2018-10-01 12:50:02 +0000";
layers = (
{
anchors = (
{
name = bottom;
position = "{414, 0}";
},
{
name = top;
position = "{414, 700}";
}
);
background = {
paths = (
{
closed = 1;
nodes = (
"374 274 LINE",
"621 0 LINE",
"753 0 LINE",
"753 49 LINE",
"551 274 LINE"
);
}
);
};
guideLines = (
{
angle = -61.429;
position = "{401, 282}";
},
{
angle = -61.429;
position = "{602, 282}";
}
);
layerId = "631A315E-0C3F-4988-8BF6-333737037850";
paths = (
{
closed = 1;
nodes = (
"616 -15 OFFCURVE",
"780 149 OFFCURVE",
"779 350 CURVE SMOOTH",
"778 551 OFFCURVE",
"614 715 OFFCURVE",
"415 715 CURVE SMOOTH",
"215 715 OFFCURVE",
"50 551 OFFCURVE",
"49 350 CURVE SMOOTH",
"48 149 OFFCURVE",
"213 -15 OFFCURVE",
"415 -15 CURVE"
);
},
{
closed = 1;
nodes = (
"303 144 OFFCURVE",
"213 236 OFFCURVE",
"213 350 CURVE SMOOTH",
"213 464 OFFCURVE",
"303 556 OFFCURVE",
"414 556 CURVE SMOOTH",
"525 556 OFFCURVE",
"614 464 OFFCURVE",
"615 350 CURVE SMOOTH",
"616 236 OFFCURVE",
"527 144 OFFCURVE",
"415 144 CURVE SMOOTH"
);
},
{
closed = 1;
nodes = (
"376 274 LINE",
"623 0 LINE",
"753 0 LINE",
"753 49 LINE",
"551 274 LINE"
);
}
);
width = 835;
},
{
anchors = (
{
name = bottom;
position = "{424, 0}";
},
{
name = top;
position = "{424, 700}";
}
);
background = {
paths = (
{
closed = 1;
nodes = (
"512 218 LINE",
"728 0 LINE",
"789 0 LINE",
"789 19 LINE",
"592 218 LINE"
);
}
);
};
guideLines = (
{
angle = 125.6939;
position = "{741, -15}";
}
);
layerId = "3129A168-24FD-451B-9986-F27775A960CA";
paths = (
{
closed = 1;
nodes = (
"625 -15 OFFCURVE",
"789 148 OFFCURVE",
"789 348 CURVE SMOOTH",
"789 550 OFFCURVE",
"625 715 OFFCURVE",
"425 715 CURVE SMOOTH",
"224 715 OFFCURVE",
"59 550 OFFCURVE",
"59 348 CURVE SMOOTH",
"59 148 OFFCURVE",
"224 -15 OFFCURVE",
"425 -15 CURVE SMOOTH"
);
},
{
closed = 1;
nodes = (
"260 39 OFFCURVE",
"118 183 OFFCURVE",
"118 350 CURVE SMOOTH",
"118 517 OFFCURVE",
"260 661 OFFCURVE",
"425 661 CURVE SMOOTH",
"589 661 OFFCURVE",
"730 516 OFFCURVE",
"730 348 CURVE SMOOTH",
"730 182 OFFCURVE",
"589 39 OFFCURVE",
"425 39 CURVE SMOOTH"
);
},
{
closed = 1;
nodes = (
"482 218 LINE",
"698 0 LINE",
"759 0 LINE",
"759 19 LINE",
"562 218 LINE"
);
}
);
width = 855;
}
);
leftKerningGroup = O;
leftMetricsKey = O;
rightKerningGroup = O;
unicode = 0051;
},
{
glyphname = R;
lastChange = "2018-10-01 12:03:27 +0000";
layers = (
{
anchors = (
{
name = bottom;
position = "{352, 0}";
},
{
name = top;
position = "{352, 700}";
}
);
background = {
paths = (
{
closed = 1;
nodes = (
"375 191 LINE SMOOTH",
"514 191 OFFCURVE",
"628 306 OFFCURVE",
"628 446 CURVE SMOOTH",
"628 586 OFFCURVE",
"512 700 OFFCURVE",
"371 700 CURVE SMOOTH",
"231 700 LINE",
"231 539 LINE",
"376 539 LINE SMOOTH",
"423 539 OFFCURVE",
"462 497 OFFCURVE",
"462 446 CURVE SMOOTH",
"462 395 OFFCURVE",
"423 352 OFFCURVE",
"376 352 CURVE SMOOTH",
"231 352 LINE",
"231 191 LINE"
);
},
{
closed = 1;
nodes = (
"241 0 LINE",
"241 700 LINE",
"75 700 LINE",
"75 0 LINE"
);
},
{
closed = 1;
nodes = (
"626 0 LINE",
"626 112 LINE",
"491 282 LINE",
"290 282 LINE",
"514 0 LINE"
);
},
{
closed = 0;
nodes = (
"308 247 LINE",
"495 0 LINE",
"633 0 LINE",
"633 96 LINE",
"413 386 LINE"
);
}
);
};
guideLines = (
{
angle = 90;
position = "{628, 446}";
},
{
angle = 127.0938;
position = "{633, 89}";
},
{
position = "{19, 89}";
}
);
layerId = "631A315E-0C3F-4988-8BF6-333737037850";
paths = (
{
closed = 1;
nodes = (
"375 191 LINE SMOOTH",
"514 191 OFFCURVE",
"628 306 OFFCURVE",
"628 446 CURVE SMOOTH",
"628 586 OFFCURVE",
"512 700 OFFCURVE",
"371 700 CURVE SMOOTH",
"229 700 LINE",
"229 551 LINE",
"376 551 LINE SMOOTH",
"423 551 OFFCURVE",
"462 509 OFFCURVE",
"462 446 CURVE SMOOTH",
"462 383 OFFCURVE",
"423 340 OFFCURVE",
"376 340 CURVE SMOOTH",
"229 340 LINE",
"229 191 LINE"
);
},
{
closed = 1;
nodes = (
"237 0 LINE",
"237 700 LINE",
"77 700 LINE",
"77 0 LINE"
);
},
{
closed = 1;
nodes = (
"633 0 LINE",
"633 89 LINE",
"465 288 LINE",
"325 247 LINE",
"502 0 LINE"
);
}
);
width = 684;
},
{
anchors = (
{
name = bottom;
position = "{324, 0}";
},
{
name = top;
position = "{324, 700}";
}
);
background = {
paths = (
{
closed = 1;
nodes = (
"164 0 LINE",
"164 223 LINE",
"307 223 LINE",
"442 223 OFFCURVE",
"552 331 OFFCURVE",
"551 462 CURVE SMOOTH",
"550 593 OFFCURVE",
"439 700 OFFCURVE",
"304 700 CURVE",
"88 700 LINE",
"88 0 LINE"
);
},
{
closed = 1;
nodes = (
"559 0 LINE",
"559 36 LINE",
"414 259 LINE",
"328 252 LINE",
"492 0 LINE"
);
},
{
closed = 1;
nodes = (
"164 629 LINE",
"304 629 LINE",
"399 629 OFFCURVE",
"476 554 OFFCURVE",
"475 462 CURVE SMOOTH",
"474 370 OFFCURVE",
"398 294 OFFCURVE",
"307 294 CURVE",
"164 294 LINE"
);
}
);
};
guideLines = (
{
angle = 123.0329;
position = "{559, 26}";
},
{
angle = 90;
position = "{551, 462}";
}
);
layerId = "3129A168-24FD-451B-9986-F27775A960CA";
paths = (
{
closed = 1;
nodes = (
"334 223 LINE SMOOTH",
"464 223 OFFCURVE",
"569 331 OFFCURVE",
"570 462 CURVE SMOOTH",
"571 593 OFFCURVE",
"463 700 OFFCURVE",
"329 700 CURVE SMOOTH",
"118 700 LINE",
"118 646 LINE",
"329 646 LINE SMOOTH",
"429 646 OFFCURVE",
"511 563 OFFCURVE",
"511 462 CURVE SMOOTH",
"511 360 OFFCURVE",
"430 277 OFFCURVE",
"331 277 CURVE SMOOTH",
"108 277 LINE",
"108 223 LINE"
);
},
{
closed = 1;
nodes = (
"146 0 LINE",
"146 700 LINE",
"87 700 LINE",
"87 0 LINE"
);
},
{
closed = 1;
nodes = (
"559 0 LINE",
"559 26 LINE",
"407 259 LINE",
"341 252 LINE",
"505 0 LINE"
);
}
);
width = 631;
}
);
leftKerningGroup = N;
leftMetricsKey = N;
unicode = 0052;
},
{
glyphname = S;
lastChange = "2018-10-01 14:07:12 +0000";
layers = (
{
anchors = (
{
name = bottom;
position = "{369, 0}";
},
{
name = top;
position = "{339, 700}";
}
);
background = {
paths = (
{
closed = 1;
nodes = (
"78 612 OFFCURVE",
"199 713 OFFCURVE",
"346 713 CURVE SMOOTH",
"491 713 OFFCURVE",
"609 612 OFFCURVE",
"609 488 CURVE",
"449 488 LINE",
"449 527 OFFCURVE",
"402 559 OFFCURVE",
"345 559 CURVE SMOOTH",
"286 559 OFFCURVE",
"238 527 OFFCURVE",
"238 488 CURVE",
"78 488 LINE"
);
},
{
closed = 1;
nodes = (
"467 176 OFFCURVE",
"410 138 OFFCURVE",
"341 138 CURVE SMOOTH",
"269 138 OFFCURVE",
"210 181 OFFCURVE",
"211 234 CURVE",
"51 234 LINE",
"50 96 OFFCURVE",
"181 -16 OFFCURVE",
"341 -16 CURVE SMOOTH",
"499 -16 OFFCURVE",
"628 91 OFFCURVE",
"627 222 CURVE",
"467 222 LINE"
);
},
{
closed = 1;
nodes = (
"628 462 OFFCURVE",
"238 382 OFFCURVE",
"238 488 CURVE",
"78 488 LINE",
"78 248 OFFCURVE",
"467 328 OFFCURVE",
"467 222 CURVE",
"627 222 LINE"
);
}
);
};
guideLines = (
{
angle = 90;
position = "{11, 488}";
},
{
angle = 90;
position = "{550, 488}";
}
);
layerId = "631A315E-0C3F-4988-8BF6-333737037850";
paths = (
{
closed = 1;
nodes = (
"486 -16 OFFCURVE",
"610 91 OFFCURVE",
"609 222 CURVE",
"610 470 OFFCURVE",
"238 392 OFFCURVE",
"238 488 CURVE SMOOTH",
"238 529 OFFCURVE",
"282 561 OFFCURVE",
"337 561 CURVE SMOOTH",
"391 561 OFFCURVE",
"433 529 OFFCURVE",
"433 488 CURVE",
"591 488 LINE",
"591 612 OFFCURVE",
"477 713 OFFCURVE",
"338 713 CURVE SMOOTH",
"196 713 OFFCURVE",
"80 612 OFFCURVE",
"80 488 CURVE SMOOTH",
"80 248 OFFCURVE",
"449 319 OFFCURVE",
"449 222 CURVE SMOOTH",
"449 176 OFFCURVE",
"397 138 OFFCURVE",
"333 138 CURVE SMOOTH",
"266 138 OFFCURVE",
"212 181 OFFCURVE",
"213 234 CURVE",
"53 234 LINE",
"52 96 OFFCURVE",
"178 -16 OFFCURVE",
"333 -16 CURVE SMOOTH"
);
}
);
width = 662;
},
{
anchors = (
{
name = bottom;
position = "{291, 0}";
},
{
name = top;
position = "{291, 700}";
}
);
background = {
paths = (
{
closed = 1;
nodes = (
"363 -16 OFFCURVE",
"462 75 OFFCURVE",
"460 181 CURVE SMOOTH",
"457 347 OFFCURVE",
"91 355 OFFCURVE",
"91 510 CURVE SMOOTH",
"91 603 OFFCURVE",
"173 650 OFFCURVE",
"238 650 CURVE SMOOTH",
"288 650 OFFCURVE",
"345 622 OFFCURVE",
"370 568 CURVE",
"434 568 LINE",
"409 647 OFFCURVE",
"332 714 OFFCURVE",
"239 713 CURVE SMOOTH",
"119 712 OFFCURVE",
"31 613 OFFCURVE",
"31 510 CURVE SMOOTH",
"31 305 OFFCURVE",
"400 276 OFFCURVE",
"400 182 CURVE SMOOTH",
"400 79 OFFCURVE",
"309 47 OFFCURVE",
"234 47 CURVE SMOOTH",
"192 47 OFFCURVE",
"151 60 OFFCURVE",
"117 92 CURVE SMOOTH",
"97 110 OFFCURVE",
"82 132 OFFCURVE",
"73 158 CURVE",
"11 158 LINE",
"36 64 OFFCURVE",
"125 -16 OFFCURVE",
"234 -16 CURVE SMOOTH"
);
}
);
};
layerId = "3129A168-24FD-451B-9986-F27775A960CA";
paths = (
{
closed = 1;
nodes = (
"417 -12 OFFCURVE",
"519 72 OFFCURVE",
"518 174 CURVE",
"518 367 OFFCURVE",
"149 347 OFFCURVE",
"149 530 CURVE SMOOTH",
"149 611 OFFCURVE",
"221 659 OFFCURVE",
"296 659 CURVE SMOOTH",
"377 659 OFFCURVE",
"441 604 OFFCURVE",
"441 536 CURVE",
"500 536 LINE",
"500 632 OFFCURVE",
"410 710 OFFCURVE",
"296 710 CURVE SMOOTH",
"189 710 OFFCURVE",
"90 641 OFFCURVE",
"90 527 CURVE SMOOTH",
"90 307 OFFCURVE",
"459 324 OFFCURVE",
"459 171 CURVE SMOOTH",
"459 102 OFFCURVE",
"384 39 OFFCURVE",
"292 39 CURVE SMOOTH",
"197 39 OFFCURVE",
"120 105 OFFCURVE",
"122 186 CURVE",
"63 186 LINE",
"62 77 OFFCURVE",
"165 -12 OFFCURVE",
"293 -12 CURVE SMOOTH"
);
}
);
width = 581;
}
);
leftKerningGroup = O;
rightKerningGroup = O;
unicode = 0053;
},
{
glyphname = Germandbls;
lastChange = "2019-06-13 09:26:09 +0000";
layers = (
{
background = {
paths = (
{
closed = 1;
nodes = (
"444 394 LINE",
"622 700 LINE",
"128 700 LINE",
"128 549 LINE",
"423 549 LINE",
"415 588 LINE",
"244 309 LINE"
);
},
{
closed = 1;
nodes = (
"181 0 LINE",
"181 700 LINE",
"21 700 LINE",
"21 0 LINE"
);
},
{
closed = 1;
nodes = (
"533 -2 OFFCURVE",
"617 86 OFFCURVE",
"617 218 CURVE SMOOTH",
"617 323 OFFCURVE",
"564 394 OFFCURVE",
"444 394 CURVE",
"244 309 LINE",
"400 309 OFFCURVE",
"453 292 OFFCURVE",
"453 227 CURVE SMOOTH",
"453 168 OFFCURVE",
"409 151 OFFCURVE",
"330 151 CURVE SMOOTH",
"275 151 LINE",
"275 0 LINE",
"306 -1 OFFCURVE",
"345 -2 OFFCURVE",
"363 -2 CURVE SMOOTH"
);
}
);
};
layerId = "3129A168-24FD-451B-9986-F27775A960CA";
paths = (
{
closed = 1;
nodes = (
"352 377 LINE",
"524 700 LINE",
"123 700 LINE",
"123 646 LINE",
"466 646 LINE",
"464 690 LINE",
"272 333 LINE"
);
},
{
closed = 1;
nodes = (
"146 0 LINE",
"146 700 LINE",
"87 700 LINE",
"87 0 LINE"
);
},
{
closed = 1;
nodes = (
"461 0 OFFCURVE",
"562 56 OFFCURVE",
"562 188 CURVE SMOOTH",
"562 320 OFFCURVE",
"467 378 OFFCURVE",
"352 377 CURVE",
"272 333 LINE",
"385 333 OFFCURVE",
"503 328 OFFCURVE",
"503 181 CURVE SMOOTH",
"503 93 OFFCURVE",
"433 51 OFFCURVE",
"316 51 CURVE SMOOTH",
"249 51 LINE",
"249 0 LINE",
"252 0 OFFCURVE",
"306 0 OFFCURVE",
"309 0 CURVE SMOOTH"
);
}
);
width = 621;
},
{
layerId = "631A315E-0C3F-4988-8BF6-333737037850";
paths = (
{
closed = 1;
nodes = (
"500 394 LINE",
"678 700 LINE",
"184 700 LINE",
"184 549 LINE",
"479 549 LINE",
"471 588 LINE",
"300 309 LINE"
);
},
{
closed = 1;
nodes = (
"237 0 LINE",
"237 700 LINE",
"77 700 LINE",
"77 0 LINE"
);
},
{
closed = 1;
nodes = (
"589 -2 OFFCURVE",
"673 86 OFFCURVE",
"673 218 CURVE SMOOTH",
"673 323 OFFCURVE",
"620 394 OFFCURVE",
"500 394 CURVE",
"300 309 LINE",
"456 309 OFFCURVE",
"509 292 OFFCURVE",
"509 227 CURVE SMOOTH",
"509 168 OFFCURVE",
"465 151 OFFCURVE",
"386 151 CURVE SMOOTH",
"331 151 LINE",
"331 0 LINE",
"362 -1 OFFCURVE",
"401 -2 OFFCURVE",
"419 -2 CURVE SMOOTH"
);
}
);
width = 727;
}
);
leftMetricsKey = "=N";
unicode = 1E9E;
},
{
glyphname = T;
lastChange = "2018-10-02 11:17:52 +0000";
layers = (
{
anchors = (
{
name = bottom;
position = "{314, 0}";
},
{
name = center;
position = "{314, 350}";
},
{
name = top;
position = "{314, 700}";
}
);
guideLines = (
{
angle = 90;
position = "{231, 539}";
},
{
angle = 90;
position = "{397, 539}";
},
{
angle = 90;
position = "{314, 0}";
}
);
layerId = "631A315E-0C3F-4988-8BF6-333737037850";
paths = (
{
closed = 1;
nodes = (
"394 0 LINE",
"394 596 LINE",
"351 546 LINE",
"588 571 LINE",
"588 700 LINE",
"40 700 LINE",
"40 571 LINE",
"277 546 LINE",
"234 596 LINE",
"234 0 LINE"
);
}
);
width = 628;
},
{
anchors = (
{
name = bottom;
position = "{250, -5}";
},
{
name = center;
position = "{269, 350}";
},
{
name = top;
position = "{269, 700}";
}
);
layerId = "3129A168-24FD-451B-9986-F27775A960CA";
paths = (
{
closed = 1;
nodes = (
"299 0 LINE",
"299 691 LINE",
"254 644 LINE",
"493 654 LINE",
"493 700 LINE",
"45 700 LINE",
"45 654 LINE",
"285 644 LINE",
"240 691 LINE",
"240 0 LINE"
);
}
);
width = 538;
}
);
unicode = 0054;
},
{
glyphname = U;
lastChange = "2018-10-02 10:27:25 +0000";
layers = (
{
anchors = (
{
name = bottom;
position = "{385, 0}";
},
{
name = ogonek;
position = "{532, 10}";
},
{
name = top;
position = "{386, 700}";
},
{
name = topright;
position = "{740, 700}";
}
);
guideLines = (
{
angle = 90;
position = "{386, 148}";
}
);
layerId = "631A315E-0C3F-4988-8BF6-333737037850";
paths = (
{
closed = 1;
nodes = (
"558 -15 OFFCURVE",
"699 127 OFFCURVE",
"698 300 CURVE",
"698 700 LINE",
"538 700 LINE",
"538 300 LINE",
"539 213 OFFCURVE",
"472 144 OFFCURVE",
"386 144 CURVE",
"299 144 OFFCURVE",
"232 213 OFFCURVE",
"232 300 CURVE",
"232 700 LINE",
"72 700 LINE",
"72 300 LINE",
"71 127 OFFCURVE",
"213 -15 OFFCURVE",
"386 -15 CURVE"
);
}
);
width = 770;
},
{
anchors = (
{
name = bottom;
position = "{364, 0}";
},
{
name = ogonek;
position = "{605, 10}";
},
{
name = top;
position = "{364, 700}";
},
{
name = topright;
position = "{645, 700}";
}
);
layerId = "3129A168-24FD-451B-9986-F27775A960CA";
paths = (
{
closed = 1;
nodes = (
"528 -15 OFFCURVE",
"645 111 OFFCURVE",
"645 265 CURVE SMOOTH",
"645 700 LINE",
"586 700 LINE",
"586 265 LINE SMOOTH",
"586 141 OFFCURVE",
"495 40 OFFCURVE",
"364 40 CURVE SMOOTH",
"232 40 OFFCURVE",
"141 141 OFFCURVE",
"141 265 CURVE SMOOTH",
"141 700 LINE",
"82 700 LINE",
"82 265 LINE SMOOTH",
"82 111 OFFCURVE",
"200 -15 OFFCURVE",
"364 -15 CURVE SMOOTH"
);
}
);
width = 727;
}
);
unicode = 0055;
},
{
glyphname = V;
lastChange = "2018-10-02 11:18:12 +0000";
layers = (
{
anchors = (
{
name = bottom;
position = "{367, 0}";
},
{
name = top;
position = "{367, 700}";
}
);
background = {
paths = (
{
closed = 1;
nodes = (
"683 578 LINE",
"683 700 LINE",
"551 700 LINE",
"351 180 LINE",
"383 180 LINE",
"182 700 LINE",
"50 700 LINE",
"50 578 LINE",
"276 0 LINE",
"457 0 LINE"
);
}
);
};
layerId = "631A315E-0C3F-4988-8BF6-333737037850";
paths = (
{
closed = 1;
nodes = (
"455 0 LINE",
"703 610 LINE",
"703 700 LINE",
"572 700 LINE",
"361 138 LINE",
"375 138 LINE",
"164 700 LINE",
"30 700 LINE",
"30 610 LINE",
"276 0 LINE"
);
}
);
width = 733;
},
{
anchors = (
{
name = bottom;
position = "{351, 0}";
},
{
name = top;
position = "{351, 700}";
}
);
guideLines = (
{
angle = 68.616;
position = "{661, 684}";
}
);
layerId = "3129A168-24FD-451B-9986-F27775A960CA";
paths = (
{
closed = 1;
nodes = (
"393 0 LINE",
"661 684 LINE",
"661 700 LINE",
"604 700 LINE",
"335 9 LINE",
"367 9 LINE",
"97 700 LINE",
"40 700 LINE",
"40 684 LINE",
"308 0 LINE"
);
}
);
width = 701;
}
);
unicode = 0056;
},
{
glyphname = W;
lastChange = "2018-10-02 10:43:19 +0000";
layers = (
{
anchors = (
{
name = bottom;
position = "{510, 0}";
},
{
name = top;
position = "{510, 700}";
}
);
background = {
paths = (
{
closed = 1;
nodes = (
"586 578 LINE",
"586 700 LINE",
"447 700 LINE",
"296 180 LINE",
"329 180 LINE",
"178 700 LINE",
"39 700 LINE",
"39 578 LINE",
"215 0 LINE",
"410 0 LINE"
);
},
{
closed = 1;
nodes = (
"994 578 LINE",
"994 700 LINE",
"855 700 LINE",
"704 180 LINE",
"737 180 LINE",
"586 700 LINE",
"447 700 LINE",
"447 578 LINE",
"623 0 LINE",
"818 0 LINE"
);
},
{
closed = 1;
nodes = (
"1389 180 LINE",
"1238 700 LINE",
"1092 700 LINE",
"1092 610 LINE",
"1278 0 LINE",
"1460 0 LINE",
"1645 610 LINE",
"1645 700 LINE",
"1499 700 LINE",
"1348 180 LINE"
);
},
{
closed = 1;
nodes = (
"1796 180 LINE",
"1645 700 LINE",
"1499 700 LINE",
"1499 610 LINE",
"1685 0 LINE",
"1867 0 LINE",
"2052 610 LINE",
"2052 700 LINE",
"1906 700 LINE",
"1755 180 LINE"
);
}
);
};
guideLines = (
{
position = "{716, 167}";
}
);
layerId = "631A315E-0C3F-4988-8BF6-333737037850";
paths = (
{
closed = 1;
nodes = (
"393 0 LINE",
"520 502 LINE",
"492 502 LINE",
"620 0 LINE",
"820 0 LINE",
"985 610 LINE",
"985 700 LINE",
"850 700 LINE",
"708 104 LINE",
"734 104 LINE",
"584 700 LINE",
"442 700 LINE",
"293 104 LINE",
"318 104 LINE",
"175 700 LINE",
"30 700 LINE",
"30 610 LINE",
"196 0 LINE"
);
}
);
width = 1015;
},
{
anchors = (
{
name = bottom;
position = "{493, 0}";
},
{
name = top;
position = "{493, 700}";
}
);
guideLines = (
{
position = "{274, 51}";
}
);
layerId = "3129A168-24FD-451B-9986-F27775A960CA";
paths = (
{
closed = 1;
nodes = (
"322 0 LINE",
"506 628 LINE",
"480 628 LINE",
"664 0 LINE",
"747 0 LINE",
"946 680 LINE",
"946 698 LINE",
"890 698 LINE",
"697 22 LINE",
"715 22 LINE",
"521 700 LINE",
"465 700 LINE",
"272 24 LINE",
"290 24 LINE",
"96 702 LINE",
"40 702 LINE",
"40 684 LINE",
"239 0 LINE"
);
}
);
width = 986;
}
);
leftMetricsKey = V;
rightMetricsKey = V;
unicode = 0057;
},
{
glyphname = X;
lastChange = "2018-10-02 10:49:28 +0000";
layers = (
{
anchors = (
{
name = bottom;
position = "{333, 0}";
},
{
name = top;
position = "{333, 700}";
}
);
background = {
paths = (
{
closed = 1;
nodes = (
"493 0 LINE",
"611 0 LINE",
"611 122 LINE",
"173 700 LINE",
"55 700 LINE",
"55 578 LINE"
);
},
{
closed = 1;
nodes = (
"611 700 LINE",
"493 700 LINE",
"55 122 LINE",
"55 0 LINE",
"173 0 LINE",
"611 578 LINE"
);
}
);
};
guideLines = (
{
angle = 52.846;
position = "{173, 0}";
},
{
position = "{438, 350}";
},
{
position = "{228, 350}";
},
{
position = "{333, 489}";
},
{
position = "{333, 211}";
},
{
angle = -52.8278;
position = "{173, 700}";
},
{
angle = -52.8278;
position = "{35, 604}";
},
{
angle = 52.846;
position = "{35, 96}";
}
);
layerId = "631A315E-0C3F-4988-8BF6-333737037850";
paths = (
{
closed = 1;
nodes = (
"161 0 LINE",
"353 269 LINE",
"313 269 LINE",
"505 0 LINE",
"631 0 LINE",
"631 96 LINE",
"404 386 LINE",
"404 314 LINE",
"631 604 LINE",
"631 700 LINE",
"505 700 LINE",
"313 431 LINE",
"353 431 LINE",
"161 700 LINE",
"35 700 LINE",
"35 604 LINE",
"262 314 LINE",
"262 386 LINE",
"35 96 LINE",
"35 0 LINE"
);
}
);
width = 666;
},
{
anchors = (
{
name = bottom;
position = "{313, 0}";
},
{
name = top;
position = "{313, 700}";
}
);
guideLines = (
{
angle = -54.496;
position = "{104, 700}";
},
{
angle = -54.496;
position = "{45, 681}";
},
{
angle = 54.496;
position = "{580, 681}";
}
);
layerId = "3129A168-24FD-451B-9986-F27775A960CA";
paths = (
{
closed = 1;
nodes = (
"104 0 LINE",
"329 315 LINE",
"303 315 LINE",
"528 0 LINE",
"587 0 LINE",
"587 19 LINE",
"325 387 LINE",
"325 313 LINE",
"587 681 LINE",
"587 700 LINE",
"528 700 LINE",
"303 385 LINE",
"329 385 LINE",
"104 700 LINE",
"45 700 LINE",
"45 681 LINE",
"307 313 LINE",
"307 387 LINE",
"45 19 LINE",
"45 0 LINE"
);
}
);
width = 632;
}
);
unicode = 0058;
},
{
glyphname = Y;
lastChange = "2018-10-02 10:53:56 +0000";
layers = (
{
anchors = (
{
name = bottom;
position = "{349, 0}";
},
{
name = top;
position = "{349, 700}";
},
{
name = topleft;
position = "{5, 700}";
}
);
background = {
paths = (
{
closed = 1;
nodes = (
"430 0 LINE",
"430 228 LINE",
"673 608 LINE",
"673 700 LINE",
"548 700 LINE",
"338 339 LINE",
"360 339 LINE",
"150 700 LINE",
"25 700 LINE",
"25 608 LINE",
"268 228 LINE",
"268 0 LINE"
);
}
);
};
guideLines = (
{
angle = -65.5411;
position = "{-540, 680}";
},
{
angle = -57.6167;
position = "{370, 369}";
},
{
angle = 237.6167;
position = "{328, 369}";
}
);
layerId = "631A315E-0C3F-4988-8BF6-333737037850";
paths = (
{
closed = 1;
nodes = (
"429 0 LINE",
"429 215 LINE",
"673 608 LINE",
"673 700 LINE",
"555 700 LINE",
"345 334 LINE",
"358 334 LINE",
"148 700 LINE",
"25 700 LINE",
"25 608 LINE",
"269 215 LINE",
"269 0 LINE"
);
}
);
width = 698;
},
{
anchors = (
{
name = bottom;
position = "{319, 0}";
},
{
name = top;
position = "{319, 700}";
},
{
name = topleft;
position = "{23, 700}";
}
);
guideLines = (
{
angle = -61.861;
position = "{35, 683}";
},
{
angle = 61.861;
position = "{545, 700}";
},
{
position = "{35, 683}";
},
{
position = "{289, 208}";
}
);
layerId = "3129A168-24FD-451B-9986-F27775A960CA";
paths = (
{
closed = 1;
nodes = (
"348 0 LINE",
"348 208 LINE",
"603 683 LINE",
"603 700 LINE",
"548 700 LINE",
"312 249 LINE",
"329 249 LINE",
"93 700 LINE",
"35 700 LINE",
"35 683 LINE",
"289 208 LINE",
"289 0 LINE"
);
}
);
width = 638;
}
);
unicode = 0059;
},
{
glyphname = Z;
lastChange = "2018-10-02 11:00:27 +0000";
layers = (
{
anchors = (
{
name = bottom;
position = "{296, 0}";
},
{
name = top;
position = "{296, 700}";
}
);
background = {
paths = (
{
closed = 1;
nodes = (
"78 569 LINE",
"379 539 LINE",
"585 539 LINE",
"585 700 LINE",
"78 700 LINE"
);
},
{
closed = 1;
nodes = (
"60 0 LINE",
"251 0 LINE",
"417 0 LINE",
"607 0 LINE",
"607 131 LINE",
"266 161 LINE",
"60 161 LINE"
);
},
{
closed = 1;
nodes = (
"60 161 LINE",
"266 161 LINE",
"585 539 LINE",
"379 539 LINE"
);
},
{
closed = 1;
nodes = (
"379 539 LINE",
"349 542 LINE",
"406 571 LINE"
);
},
{
closed = 1;
nodes = (
"266 161 LINE",
"297 158 LINE",
"239 129 LINE"
);
}
);
};
guideLines = (
{
angle = 270;
position = "{37, 0}";
},
{
position = "{378, 550}";
}
);
layerId = "631A315E-0C3F-4988-8BF6-333737037850";
paths = (
{
closed = 1;
nodes = (
"567 0 LINE",
"567 124 LINE",
"221 153 LINE",
"225 125 LINE",
"585 541 LINE",
"585 700 LINE",
"78 700 LINE",
"78 576 LINE",
"424 547 LINE",
"420 575 LINE",
"60 159 LINE",
"60 0 LINE"
);
}
);
width = 645;
},
{
anchors = (
{
name = bottom;
position = "{333, 0}";
},
{
name = top;
position = "{333, 700}";
}
);
layerId = "3129A168-24FD-451B-9986-F27775A960CA";
paths = (
{
closed = 1;
nodes = (
"573 0 LINE",
"573 48 LINE",
"93 55 LINE",
"110 19 LINE",
"595 638 LINE",
"595 700 LINE",
"92 700 LINE",
"92 652 LINE",
"572 645 LINE",
"555 681 LINE",
"70 62 LINE",
"70 0 LINE"
);
}
);
width = 665;
}
);
unicode = 005A;
},
{
glyphname = a;
lastChange = "2018-10-02 10:55:13 +0000";
layers = (
{
anchors = (
{
name = bottom;
position = "{295, 0}";
},
{
name = ogonek;
position = "{594, 10}";
},
{
name = top;
position = "{295, 500}";
}
);
background = {
paths = (
{
closed = 1;
nodes = (
"361 -10 OFFCURVE",
"404 43 OFFCURVE",
"419 88 CURVE",
"399 84 LINE",
"399 0 LINE",
"555 0 LINE",
"555 500 LINE",
"402 500 LINE",
"402 421 LINE",
"427 418 LINE",
"425 454 OFFCURVE",
"373 510 OFFCURVE",
"277 510 CURVE SMOOTH",
"144 510 OFFCURVE",
"23 403 OFFCURVE",
"23 245 CURVE SMOOTH",
"23 116 OFFCURVE",
"103 -10 OFFCURVE",
"259 -10 CURVE SMOOTH"
);
},
{
closed = 1;
nodes = (
"231 136 OFFCURVE",
"174 182 OFFCURVE",
"174 256 CURVE SMOOTH",
"174 329 OFFCURVE",
"229 368 OFFCURVE",
"292 368 CURVE SMOOTH",
"368 368 OFFCURVE",
"398 312 OFFCURVE",
"398 302 CURVE",
"398 198 LINE",
"398 183 OFFCURVE",
"360 136 OFFCURVE",
"295 136 CURVE SMOOTH"
);
}
);
};
guideLines = (
{
angle = 90;
position = "{402, 500}";
}
);
layerId = "631A315E-0C3F-4988-8BF6-333737037850";
paths = (
{
closed = 1;
nodes = (
"364 -8 OFFCURVE",
"409 38 OFFCURVE",
"424 83 CURVE",
"404 79 LINE",
"404 0 LINE",
"560 0 LINE",
"560 500 LINE",
"407 500 LINE",
"407 421 LINE",
"425 418 LINE",
"424 449 OFFCURVE",
"379 508 OFFCURVE",
"287 508 CURVE SMOOTH",
"170 508 OFFCURVE",
"35 410 OFFCURVE",
"35 241 CURVE SMOOTH",
"35 111 OFFCURVE",
"114 -8 OFFCURVE",
"268 -8 CURVE SMOOTH"
);
},
{
closed = 1;
nodes = (
"246 131 OFFCURVE",
"195 183 OFFCURVE",
"195 254 CURVE SMOOTH",
"195 320 OFFCURVE",
"238 373 OFFCURVE",
"303 373 CURVE SMOOTH",
"354 373 OFFCURVE",
"392 341 OFFCURVE",
"409 307 CURVE",
"409 193 LINE",
"390 156 OFFCURVE",
"352 131 OFFCURVE",
"309 131 CURVE SMOOTH"
);
}
);
width = 630;
},
{
anchors = (
{
name = bottom;
position = "{298, 0}";
},
{
name = ogonek;
position = "{583, 23}";
},
{
name = top;
position = "{298, 490}";
}
);
background = {
paths = (
{
closed = 1;
nodes = (
"409 486 LINE",
"387 502 OFFCURVE",
"342 515 OFFCURVE",
"310 515 CURVE SMOOTH",
"164 515 OFFCURVE",
"45 396 OFFCURVE",
"45 250 CURVE SMOOTH",
"45 104 OFFCURVE",
"164 -15 OFFCURVE",
"310 -15 CURVE SMOOTH",
"342 -15 OFFCURVE",
"387 -2 OFFCURVE",
"409 14 CURVE",
"409 0 LINE",
"555 0 LINE",
"555 500 LINE",
"409 500 LINE"
);
},
{
closed = 1;
nodes = (
"245 126 OFFCURVE",
"191 182 OFFCURVE",
"191 250 CURVE SMOOTH",
"191 318 OFFCURVE",
"245 374 OFFCURVE",
"310 374 CURVE SMOOTH",
"345 374 OFFCURVE",
"390 349 OFFCURVE",
"409 318 CURVE",
"409 182 LINE",
"390 151 OFFCURVE",
"345 126 OFFCURVE",
"310 126 CURVE SMOOTH"
);
}
);
};
layerId = "3129A168-24FD-451B-9986-F27775A960CA";
paths = (
{
closed = 1;
nodes = (
"386 -15 OFFCURVE",
"457 22 OFFCURVE",
"505 79 CURVE",
"485 103 LINE",
"485 0 LINE",
"541 0 LINE",
"541 490 LINE",
"485 490 LINE",
"485 388 LINE",
"505 422 LINE",
"469 467 OFFCURVE",
"393 507 OFFCURVE",
"305 505 CURVE SMOOTH",
"156 502 OFFCURVE",
"45 383 OFFCURVE",
"45 245 CURVE SMOOTH",
"45 102 OFFCURVE",
"162 -15 OFFCURVE",
"305 -15 CURVE SMOOTH"
);
},
{
closed = 1;
nodes = (
"196 40 OFFCURVE",
"105 134 OFFCURVE",
"105 245 CURVE SMOOTH",
"105 356 OFFCURVE",
"196 450 OFFCURVE",
"308 450 CURVE SMOOTH",
"387 450 OFFCURVE",
"457 403 OFFCURVE",
"485 345 CURVE",
"485 139 LINE",
"450 79 OFFCURVE",
"379 40 OFFCURVE",
"307 40 CURVE SMOOTH"
);
}
);
width = 620;
}
);
leftKerningGroup = o;
leftMetricsKey = "=o-5";
rightMetricsKey = "=|n";
unicode = 0061;
},
{
glyphname = aring;
lastChange = "2018-10-02 10:54:59 +0000";
layers = (
{
background = {
paths = (
{
closed = 1;
nodes = (
"217 126 OFFCURVE",
"181 145 OFFCURVE",
"181 168 CURVE",
"181 189 OFFCURVE",
"209 206 OFFCURVE",
"244 206 CURVE",
"413 206 LINE",
"397 149 OFFCURVE",
"321 126 OFFCURVE",
"262 126 CURVE"
);
},
{
closed = 1;
nodes = (
"342 -15 OFFCURVE",
"411 17 OFFCURVE",
"468 56 CURVE",
"567 250 LINE",
"567 396 OFFCURVE",
"448 515 OFFCURVE",
"302 515 CURVE",
"188 515 OFFCURVE",
"87 444 OFFCURVE",
"49 329 CURVE",
"211 329 LINE",
"224 346 OFFCURVE",
"255 374 OFFCURVE",
"302 374 CURVE",
"354 374 OFFCURVE",
"393 338 OFFCURVE",
"408 306 CURVE",
"239 306 LINE",
"127 306 OFFCURVE",
"35 239 OFFCURVE",
"35 158 CURVE",
"35 63 OFFCURVE",
"137 -15 OFFCURVE",
"262 -15 CURVE"
);
},
{
closed = 1;
nodes = (
"421 0 LINE",
"567 0 LINE",
"567 250 LINE",
"421 250 LINE"
);
}
);
};
guideLines = (
{
angle = 90;
position = "{555, 500}";
}
);
layerId = "631A315E-0C3F-4988-8BF6-333737037850";
paths = (
{
closed = 1;
nodes = (
"364 -8 OFFCURVE",
"409 38 OFFCURVE",
"424 83 CURVE",
"404 79 LINE",
"404 0 LINE",
"560 0 LINE",
"560 500 LINE",
"407 500 LINE",
"407 421 LINE",
"425 418 LINE",
"424 449 OFFCURVE",
"379 508 OFFCURVE",
"287 508 CURVE SMOOTH",
"170 508 OFFCURVE",
"35 410 OFFCURVE",
"35 241 CURVE SMOOTH",
"35 111 OFFCURVE",
"114 -8 OFFCURVE",
"268 -8 CURVE SMOOTH"
);
},
{
closed = 1;
nodes = (
"246 131 OFFCURVE",
"195 183 OFFCURVE",
"195 254 CURVE SMOOTH",
"195 320 OFFCURVE",
"238 373 OFFCURVE",
"303 373 CURVE SMOOTH",
"354 373 OFFCURVE",
"392 341 OFFCURVE",
"409 307 CURVE",
"409 193 LINE",
"390 156 OFFCURVE",
"352 131 OFFCURVE",
"309 131 CURVE SMOOTH"
);
},
{
closed = 1;
nodes = (
"368 548 OFFCURVE",
"427 607 OFFCURVE",
"427 680 CURVE SMOOTH",
"427 752 OFFCURVE",
"368 811 OFFCURVE",
"296 811 CURVE SMOOTH",
"223 811 OFFCURVE",
"164 752 OFFCURVE",
"164 680 CURVE SMOOTH",
"164 607 OFFCURVE",
"223 548 OFFCURVE",
"296 548 CURVE SMOOTH"
);
},
{
closed = 1;
nodes = (
"271 635 OFFCURVE",
"250 656 OFFCURVE",
"250 681 CURVE SMOOTH",
"250 705 OFFCURVE",
"271 726 OFFCURVE",
"296 726 CURVE SMOOTH",
"320 726 OFFCURVE",
"341 705 OFFCURVE",
"341 681 CURVE SMOOTH",
"341 656 OFFCURVE",
"320 635 OFFCURVE",
"296 635 CURVE SMOOTH"
);
}
);
width = 630;
},
{
layerId = "3129A168-24FD-451B-9986-F27775A960CA";
paths = (
{
closed = 1;
nodes = (
"385 -15 OFFCURVE",
"457 21 OFFCURVE",
"505 79 CURVE",
"485 103 LINE",
"485 0 LINE",
"541 0 LINE",
"541 490 LINE",
"485 490 LINE",
"485 388 LINE",
"505 411 LINE",
"457 469 OFFCURVE",
"385 506 OFFCURVE",
"305 505 CURVE SMOOTH",
"162 504 OFFCURVE",
"45 387 OFFCURVE",
"45 245 CURVE SMOOTH",
"45 102 OFFCURVE",
"162 -15 OFFCURVE",
"305 -15 CURVE SMOOTH"
);
},
{
closed = 1;
nodes = (
"193 36 OFFCURVE",
"101 130 OFFCURVE",
"101 245 CURVE SMOOTH",
"101 360 OFFCURVE",
"193 454 OFFCURVE",
"305 454 CURVE SMOOTH",
"382 454 OFFCURVE",
"451 409 OFFCURVE",
"485 343 CURVE",
"485 147 LINE",
"451 81 OFFCURVE",
"383 36 OFFCURVE",
"305 36 CURVE SMOOTH"
);
},
{
closed = 1;
nodes = (
"358 560 OFFCURVE",
"404 606 OFFCURVE",
"404 664 CURVE SMOOTH",
"404 721 OFFCURVE",
"358 767 OFFCURVE",
"301 767 CURVE SMOOTH",
"243 767 OFFCURVE",
"197 721 OFFCURVE",
"197 664 CURVE SMOOTH",
"197 606 OFFCURVE",
"243 560 OFFCURVE",
"301 560 CURVE SMOOTH"
);
},
{
closed = 1;
nodes = (
"270 608 OFFCURVE",
"245 633 OFFCURVE",
"245 664 CURVE SMOOTH",
"245 694 OFFCURVE",
"270 719 OFFCURVE",
"301 719 CURVE SMOOTH",
"331 719 OFFCURVE",
"356 694 OFFCURVE",
"356 664 CURVE SMOOTH",
"356 633 OFFCURVE",
"331 608 OFFCURVE",
"301 608 CURVE SMOOTH"
);
}
);
width = 620;
}
);
leftKerningGroup = o;
leftMetricsKey = a;
rightMetricsKey = a;
unicode = 00E5;
},
{
glyphname = ae;
lastChange = "2018-10-01 11:22:16 +0000";
layers = (
{
background = {
guideLines = (
{
angle = 90;
position = "{747, 128}";
},
{
position = "{568, 140}";
},
{
angle = 90;
position = "{615, 116}";
},
{
position = "{561, 215}";
}
);
paths = (
{
closed = 1;
nodes = (
"365 -15 OFFCURVE",
"409 38 OFFCURVE",
"424 83 CURVE",
"404 79 LINE",
"404 0 LINE",
"560 0 LINE",
"560 500 LINE",
"407 500 LINE",
"407 421 LINE",
"425 418 LINE",
"424 449 OFFCURVE",
"379 515 OFFCURVE",
"287 515 CURVE SMOOTH",
"170 515 OFFCURVE",
"35 410 OFFCURVE",
"35 241 CURVE SMOOTH",
"35 111 OFFCURVE",
"115 -15 OFFCURVE",
"267 -15 CURVE SMOOTH"
);
},
{
closed = 1;
nodes = (
"246 131 OFFCURVE",
"195 183 OFFCURVE",
"195 254 CURVE SMOOTH",
"195 320 OFFCURVE",
"238 373 OFFCURVE",
"303 373 CURVE SMOOTH",
"354 373 OFFCURVE",
"392 341 OFFCURVE",
"409 307 CURVE",
"409 193 LINE",
"390 156 OFFCURVE",
"352 131 OFFCURVE",
"309 131 CURVE SMOOTH"
);
},
{
closed = 1;
nodes = (
"788 -15 OFFCURVE",
"888 58 OFFCURVE",
"925 164 CURVE",
"787 164 LINE",
"757 128 OFFCURVE",
"729 116 OFFCURVE",
"675 116 CURVE SMOOTH",
"609 116 OFFCURVE",
"560 144 OFFCURVE",
"560 237 CURVE SMOOTH",
"560 357 OFFCURVE",
"631 386 OFFCURVE",
"675 386 CURVE SMOOTH",
"736 386 OFFCURVE",
"788 330 OFFCURVE",
"788 250 CURVE SMOOTH",
"788 236 OFFCURVE",
"786 226 OFFCURVE",
"783 215 CURVE",
"937 215 LINE",
"938 225 OFFCURVE",
"939 236 OFFCURVE",
"939 250 CURVE SMOOTH",
"939 396 OFFCURVE",
"820 515 OFFCURVE",
"674 515 CURVE SMOOTH",
"528 515 OFFCURVE",
"409 396 OFFCURVE",
"409 250 CURVE SMOOTH",
"409 104 OFFCURVE",
"528 -15 OFFCURVE",
"674 -15 CURVE SMOOTH"
);
},
{
closed = 1;
nodes = (
"830 215 LINE",
"830 306 LINE",
"530 306 LINE",
"530 215 LINE"
);
}
);
};
layerId = "631A315E-0C3F-4988-8BF6-333737037850";
paths = (
{
closed = 1;
nodes = (
"365 -8 OFFCURVE",
"409 38 OFFCURVE",
"424 83 CURVE",
"407 79 LINE",
"407 0 LINE",
"550 0 LINE",
"550 66 LINE",
"526 72 LINE",
"536 47 OFFCURVE",
"578 -8 OFFCURVE",
"682 -8 CURVE SMOOTH",
"792 -8 OFFCURVE",
"889 61 OFFCURVE",
"925 164 CURVE",
"787 164 LINE",
"765 125 OFFCURVE",
"734 105 OFFCURVE",
"680 105 CURVE SMOOTH",
"621 105 OFFCURVE",
"564 140 OFFCURVE",
"557 215 CURVE",
"937 215 LINE",
"938 225 OFFCURVE",
"939 236 OFFCURVE",
"939 250 CURVE SMOOTH",
"939 396 OFFCURVE",
"819 508 OFFCURVE",
"689 508 CURVE SMOOTH",
"585 508 OFFCURVE",
"521 445 OFFCURVE",
"518 427 CURVE",
"550 424 LINE",
"550 500 LINE",
"413 500 LINE",
"413 421 LINE",
"425 418 LINE",
"424 449 OFFCURVE",
"379 508 OFFCURVE",
"287 508 CURVE SMOOTH",
"170 508 OFFCURVE",
"35 410 OFFCURVE",
"35 241 CURVE SMOOTH",
"35 111 OFFCURVE",
"115 -8 OFFCURVE",
"267 -8 CURVE SMOOTH"
);
},
{
closed = 1;
nodes = (
"247 131 OFFCURVE",
"195 182 OFFCURVE",
"195 252 CURVE SMOOTH",
"195 315 OFFCURVE",
"236 373 OFFCURVE",
"303 373 CURVE SMOOTH",
"357 373 OFFCURVE",
"395 341 OFFCURVE",
"412 307 CURVE",
"412 193 LINE",
"393 156 OFFCURVE",
"355 131 OFFCURVE",
"309 131 CURVE SMOOTH"
);
},
{
closed = 1;
nodes = (
"588 351 OFFCURVE",
"628 377 OFFCURVE",
"674 377 CURVE SMOOTH",
"716 377 OFFCURVE",
"756 351 OFFCURVE",
"776 306 CURVE",
"568 306 LINE"
);
}
);
width = 979;
},
{
layerId = "3129A168-24FD-451B-9986-F27775A960CA";
paths = (
{
closed = 1;
nodes = (
"385 -15 OFFCURVE",
"460 21 OFFCURVE",
"505 85 CURVE",
"491 103 LINE",
"491 0 LINE",
"538 0 LINE",
"538 129 LINE",
"524 114 LINE",
"567 34 OFFCURVE",
"652 -15 OFFCURVE",
"745 -15 CURVE SMOOTH",
"842 -15 OFFCURVE",
"927 39 OFFCURVE",
"972 118 CURVE",
"907 118 LINE",
"870 68 OFFCURVE",
"811 36 OFFCURVE",
"745 36 CURVE SMOOTH",
"643 36 OFFCURVE",
"554 114 OFFCURVE",
"537 215 CURVE",
"1003 215 LINE",
"1004 225 OFFCURVE",
"1005 235 OFFCURVE",
"1005 245 CURVE SMOOTH",
"1005 389 OFFCURVE",
"888 506 OFFCURVE",
"745 505 CURVE SMOOTH",
"652 504 OFFCURVE",
"567 455 OFFCURVE",
"524 375 CURVE",
"538 360 LINE",
"538 490 LINE",
"491 490 LINE",
"491 388 LINE",
"505 400 LINE",
"460 469 OFFCURVE",
"385 506 OFFCURVE",
"305 505 CURVE SMOOTH",
"162 504 OFFCURVE",
"45 387 OFFCURVE",
"45 245 CURVE SMOOTH",
"45 102 OFFCURVE",
"162 -15 OFFCURVE",
"305 -15 CURVE SMOOTH"
);
},
{
closed = 1;
nodes = (
"193 36 OFFCURVE",
"101 130 OFFCURVE",
"101 245 CURVE SMOOTH",
"101 360 OFFCURVE",
"193 454 OFFCURVE",
"305 454 CURVE SMOOTH",
"382 454 OFFCURVE",
"454 409 OFFCURVE",
"491 343 CURVE",
"491 147 LINE",
"454 81 OFFCURVE",
"383 36 OFFCURVE",
"305 36 CURVE SMOOTH"
);
},
{
closed = 1;
nodes = (
"549 371 OFFCURVE",
"640 454 OFFCURVE",
"745 454 CURVE SMOOTH",
"850 454 OFFCURVE",
"938 371 OFFCURVE",
"948 266 CURVE",
"536 266 LINE"
);
}
);
width = 1055;
}
);
leftKerningGroup = o;
leftMetricsKey = a;
rightKerningGroup = o;
rightMetricsKey = e;
unicode = 00E6;
},
{
glyphname = b;
lastChange = "2018-10-02 10:56:04 +0000";
layers = (
{
anchors = (
{
name = bottom;
position = "{323, 0}";
},
{
name = top;
position = "{323, 500}";
}
);
background = {
paths = (
{
closed = 1;
nodes = (
"480 -10 OFFCURVE",
"600 101 OFFCURVE",
"600 262 CURVE SMOOTH",
"600 398 OFFCURVE",
"515 510 OFFCURVE",
"373 510 CURVE SMOOTH",
"290 510 OFFCURVE",
"228 471 OFFCURVE",
"210 432 CURVE",
"226 436 LINE",
"226 730 LINE",
"70 730 LINE",
"70 0 LINE",
"223 0 LINE",
"223 79 LINE",
"205 82 LINE",
"207 45 OFFCURVE",
"251 -10 OFFCURVE",
"346 -10 CURVE SMOOTH"
);
},
{
closed = 1;
nodes = (
"277 132 OFFCURVE",
"239 164 OFFCURVE",
"226 198 CURVE",
"226 302 LINE",
"246 340 OFFCURVE",
"286 364 OFFCURVE",
"333 364 CURVE SMOOTH",
"397 364 OFFCURVE",
"450 318 OFFCURVE",
"450 244 CURVE SMOOTH",
"450 180 OFFCURVE",
"411 132 OFFCURVE",
"337 132 CURVE SMOOTH"
);
}
);
};
guideLines = (
{
angle = 90;
position = "{373, 515}";
},
{
angle = 90;
position = "{516, 515}";
},
{
position = "{589, 430}";
},
{
position = "{589, 250}";
}
);
layerId = "631A315E-0C3F-4988-8BF6-333737037850";
paths = (
{
closed = 1;
nodes = (
"470 -8 OFFCURVE",
"590 96 OFFCURVE",
"590 264 CURVE SMOOTH",
"590 403 OFFCURVE",
"507 508 OFFCURVE",
"368 508 CURVE SMOOTH",
"292 508 OFFCURVE",
"228 476 OFFCURVE",
"210 437 CURVE",
"226 441 LINE",
"226 730 LINE",
"70 730 LINE",
"70 0 LINE",
"223 0 LINE",
"223 79 LINE",
"205 82 LINE",
"207 50 OFFCURVE",
"254 -8 OFFCURVE",
"346 -8 CURVE SMOOTH"
);
},
{
closed = 1;
nodes = (
"277 127 OFFCURVE",
"244 159 OFFCURVE",
"226 193 CURVE",
"226 307 LINE",
"245 344 OFFCURVE",
"283 369 OFFCURVE",
"326 369 CURVE SMOOTH",
"389 369 OFFCURVE",
"440 318 OFFCURVE",
"440 245 CURVE SMOOTH",
"440 180 OFFCURVE",
"399 127 OFFCURVE",
"330 127 CURVE SMOOTH"
);
}
);
width = 630;
},
{
anchors = (
{
name = bottom;
position = "{331, 0}";
},
{
name = top;
position = "{331, 490}";
}
);
guideLines = (
{
position = "{107, 730}";
}
);
layerId = "3129A168-24FD-451B-9986-F27775A960CA";
paths = (
{
closed = 1;
nodes = (
"457 -15 OFFCURVE",
"574 102 OFFCURVE",
"574 245 CURVE SMOOTH",
"574 387 OFFCURVE",
"457 504 OFFCURVE",
"314 505 CURVE SMOOTH",
"236 506 OFFCURVE",
"164 470 OFFCURVE",
"115 413 CURVE",
"135 389 LINE",
"135 730 LINE",
"79 730 LINE",
"79 0 LINE",
"135 0 LINE",
"135 102 LINE",
"115 79 LINE",
"163 21 OFFCURVE",
"235 -15 OFFCURVE",
"314 -15 CURVE SMOOTH"
);
},
{
closed = 1;
nodes = (
"241 40 OFFCURVE",
"171 78 OFFCURVE",
"135 135 CURVE",
"135 355 LINE",
"171 412 OFFCURVE",
"241 450 OFFCURVE",
"312 450 CURVE SMOOTH",
"423 450 OFFCURVE",
"514 356 OFFCURVE",
"514 245 CURVE SMOOTH",
"514 134 OFFCURVE",
"423 40 OFFCURVE",
"312 40 CURVE SMOOTH"
);
}
);
width = 624;
}
);
leftMetricsKey = n;
rightKerningGroup = o;
rightMetricsKey = o;
unicode = 0062;
},
{
glyphname = c;
lastChange = "2018-10-02 10:47:52 +0000";
layers = (
{
anchors = (
{
name = bottom;
position = "{283, 0}";
},
{
name = top;
position = "{283, 500}";
}
);
background = {
paths = (
{
closed = 0;
nodes = (
"402 441 LINE",
"416 451 LINE",
"409 472 OFFCURVE",
"351 515 OFFCURVE",
"280 515 CURVE SMOOTH",
"165 515 OFFCURVE",
"38 405 OFFCURVE",
"38 238 CURVE SMOOTH",
"38 104 OFFCURVE",
"120 -15 OFFCURVE",
"258 -15 CURVE SMOOTH",
"335 -15 OFFCURVE",
"400 22 OFFCURVE",
"419 63 CURVE"
);
},
{
closed = 1;
nodes = (
"239 131 OFFCURVE",
"188 185 OFFCURVE",
"188 250 CURVE SMOOTH",
"188 315 OFFCURVE",
"239 369 OFFCURVE",
"302 369 CURVE SMOOTH",
"345 369 OFFCURVE",
"383 344 OFFCURVE",
"402 307 CURVE",
"402 269 OFFCURVE",
"402 231 OFFCURVE",
"402 193 CURVE",
"383 156 OFFCURVE",
"345 131 OFFCURVE",
"302 131 CURVE SMOOTH"
);
}
);
};
guideLines = (
{
position = "{368, 191}";
},
{
angle = 61.887;
position = "{490, 309}";
},
{
angle = -61.8868;
position = "{490, 191}";
},
{
position = "{368, 309}";
},
{
angle = 90;
position = "{490, 309}";
},
{
position = "{485, 191}";
}
);
layerId = "631A315E-0C3F-4988-8BF6-333737037850";
paths = (
{
closed = 1;
nodes = (
"391 -8 OFFCURVE",
"477 36 OFFCURVE",
"529 115 CURVE",
"488 191 LINE",
"409 191 LINE",
"395 151 OFFCURVE",
"347 126 OFFCURVE",
"306 126 CURVE SMOOTH",
"241 126 OFFCURVE",
"191 185 OFFCURVE",
"191 250 CURVE SMOOTH",
"191 315 OFFCURVE",
"242 369 OFFCURVE",
"303 369 CURVE SMOOTH",
"343 369 OFFCURVE",
"384 345 OFFCURVE",
"404 309 CURVE",
"488 309 LINE",
"529 385 LINE",
"480 466 OFFCURVE",
"393 508 OFFCURVE",
"304 508 CURVE SMOOTH",
"159 508 OFFCURVE",
"40 396 OFFCURVE",
"40 250 CURVE SMOOTH",
"40 104 OFFCURVE",
"159 -8 OFFCURVE",
"302 -8 CURVE SMOOTH"
);
}
);
width = 567;
},
{
anchors = (
{
name = bottom;
position = "{280, 0}";
},
{
name = top;
position = "{280, 490}";
}
);
background = {
paths = (
{
closed = 1;
nodes = (
"417 454 OFFCURVE",
"509 360 OFFCURVE",
"509 245 CURVE SMOOTH",
"509 130 OFFCURVE",
"417 36 OFFCURVE",
"305 36 CURVE SMOOTH",
"193 36 OFFCURVE",
"101 130 OFFCURVE",
"101 245 CURVE SMOOTH",
"101 360 OFFCURVE",
"193 454 OFFCURVE",
"305 454 CURVE SMOOTH"
);
},
{
closed = 1;
nodes = (
"448 -15 OFFCURVE",
"565 102 OFFCURVE",
"565 245 CURVE SMOOTH",
"565 389 OFFCURVE",
"448 506 OFFCURVE",
"305 505 CURVE SMOOTH",
"162 504 OFFCURVE",
"45 387 OFFCURVE",
"45 245 CURVE SMOOTH",
"45 102 OFFCURVE",
"162 -15 OFFCURVE",
"305 -15 CURVE SMOOTH"
);
}
);
};
layerId = "3129A168-24FD-451B-9986-F27775A960CA";
paths = (
{
closed = 1;
nodes = (
"391 -14 OFFCURVE",
"462 26 OFFCURVE",
"510 84 CURVE",
"495 114 LINE",
"465 114 LINE",
"423 63 OFFCURVE",
"369 40 OFFCURVE",
"314 40 CURVE SMOOTH",
"197 40 OFFCURVE",
"110 139 OFFCURVE",
"110 245 CURVE SMOOTH",
"110 351 OFFCURVE",
"197 450 OFFCURVE",
"314 450 CURVE SMOOTH",
"370 450 OFFCURVE",
"427 423 OFFCURVE",
"466 376 CURVE",
"494 376 LINE",
"510 407 LINE",
"459 467 OFFCURVE",
"388 504 OFFCURVE",
"313 505 CURVE SMOOTH",
"173 507 OFFCURVE",
"50 385 OFFCURVE",
"50 245 CURVE SMOOTH",
"50 105 OFFCURVE",
"173 -17 OFFCURVE",
"313 -15 CURVE SMOOTH"
);
}
);
width = 558;
}
);
leftKerningGroup = o;
leftMetricsKey = "=o";
rightKerningGroup = o;
rightMetricsKey = "=o-2";
unicode = 0063;
},
{
glyphname = d;
lastChange = "2018-10-01 11:05:04 +0000";
layers = (
{
anchors = (
{
name = bottom;
position = "{300, 0}";
},
{
name = center;
position = "{260, 250}";
},
{
name = top;
position = "{300, 500}";
},
{
name = topright;
position = "{570, 500}";
}
);
background = {
paths = (
{
closed = 1;
nodes = (
"365 -15 OFFCURVE",
"409 38 OFFCURVE",
"424 83 CURVE",
"404 79 LINE",
"404 0 LINE",
"560 0 LINE",
"560 500 LINE",
"407 500 LINE",
"407 421 LINE",
"425 418 LINE",
"424 449 OFFCURVE",
"379 515 OFFCURVE",
"287 515 CURVE SMOOTH",
"170 515 OFFCURVE",
"35 410 OFFCURVE",
"35 241 CURVE SMOOTH",
"35 111 OFFCURVE",
"115 -15 OFFCURVE",
"267 -15 CURVE SMOOTH"
);
},
{
closed = 1;
nodes = (
"246 131 OFFCURVE",
"195 183 OFFCURVE",
"195 254 CURVE SMOOTH",
"195 320 OFFCURVE",
"238 373 OFFCURVE",
"303 373 CURVE SMOOTH",
"354 373 OFFCURVE",
"392 341 OFFCURVE",
"409 307 CURVE",
"409 193 LINE",
"390 156 OFFCURVE",
"352 131 OFFCURVE",
"309 131 CURVE SMOOTH"
);
}
);
};
guideLines = (
{
angle = 90;
position = "{282, 515}";
},
{
angle = 90;
position = "{258, -15}";
},
{
angle = 90;
position = "{341, -15}";
},
{
angle = 90;
position = "{403, 24}";
}
);
layerId = "631A315E-0C3F-4988-8BF6-333737037850";
paths = (
{
closed = 1;
nodes = (
"345 -8 OFFCURVE",
"420 41 OFFCURVE",
"424 83 CURVE",
"407 79 LINE",
"407 0 LINE",
"560 0 LINE",
"560 730 LINE",
"404 730 LINE",
"404 441 LINE",
"418 451 LINE",
"411 472 OFFCURVE",
"352 508 OFFCURVE",
"283 508 CURVE SMOOTH",
"166 508 OFFCURVE",
"40 404 OFFCURVE",
"40 239 CURVE SMOOTH",
"40 104 OFFCURVE",
"124 -8 OFFCURVE",
"257 -8 CURVE SMOOTH"
);
},
{
closed = 1;
nodes = (
"241 131 OFFCURVE",
"190 185 OFFCURVE",
"190 250 CURVE SMOOTH",
"190 315 OFFCURVE",
"241 369 OFFCURVE",
"304 369 CURVE SMOOTH",
"347 369 OFFCURVE",
"385 344 OFFCURVE",
"404 307 CURVE",
"404 193 LINE",
"385 156 OFFCURVE",
"347 131 OFFCURVE",
"304 131 CURVE SMOOTH"
);
}
);
width = 630;
},
{
anchors = (
{
name = bottom;
position = "{303, 0}";
},
{
name = center;
position = "{303, 245}";
},
{
name = top;
position = "{303, 490}";
},
{
name = topright;
position = "{566, 490}";
}
);
guideLines = (
{
position = "{530, 730}";
}
);
layerId = "3129A168-24FD-451B-9986-F27775A960CA";
paths = (
{
closed = 1;
nodes = (
"391 -15 OFFCURVE",
"462 22 OFFCURVE",
"510 79 CURVE",
"490 103 LINE",
"490 0 LINE",
"546 0 LINE",
"546 730 LINE",
"490 730 LINE",
"490 388 LINE",
"510 412 LINE",
"462 469 OFFCURVE",
"392 506 OFFCURVE",
"310 505 CURVE SMOOTH",
"167 504 OFFCURVE",
"50 387 OFFCURVE",
"50 245 CURVE SMOOTH",
"50 102 OFFCURVE",
"167 -15 OFFCURVE",
"310 -15 CURVE SMOOTH"
);
},
{
closed = 1;
nodes = (
"201 40 OFFCURVE",
"110 134 OFFCURVE",
"110 245 CURVE SMOOTH",
"110 356 OFFCURVE",
"201 450 OFFCURVE",
"312 450 CURVE SMOOTH",
"386 450 OFFCURVE",
"456 409 OFFCURVE",
"490 353 CURVE",
"490 137 LINE",
"455 79 OFFCURVE",
"384 40 OFFCURVE",
"312 40 CURVE SMOOTH"
);
}
);
width = 625;
}
);
leftKerningGroup = o;
leftMetricsKey = o;
rightMetricsKey = "=|n";
unicode = 0064;
},
{
glyphname = eth;
lastChange = "2019-01-09 11:38:59 +0000";
layers = (
{
background = {
paths = (
{
closed = 1;
nodes = (
"379 -15 OFFCURVE",
"482 95 OFFCURVE",
"497 229 CURVE",
"497 363 OFFCURVE",
"394 473 OFFCURVE",
"268 473 CURVE SMOOTH",
"143 473 OFFCURVE",
"40 363 OFFCURVE",
"40 229 CURVE SMOOTH",
"40 95 OFFCURVE",
"143 -15 OFFCURVE",
"268 -15 CURVE SMOOTH"
);
},
{
closed = 1;
nodes = (
"163 594 LINE",
"271 594 OFFCURVE",
"360 489 OFFCURVE",
"361 360 CURVE",
"497 229 LINE",
"525 483 OFFCURVE",
"374 702 OFFCURVE",
"163 715 CURVE"
);
}
);
};
layerId = "631A315E-0C3F-4988-8BF6-333737037850";
paths = (
{
closed = 1;
nodes = (
"379 -15 OFFCURVE",
"482 95 OFFCURVE",
"497 229 CURVE SMOOTH",
"525 483 OFFCURVE",
"374 702 OFFCURVE",
"163 715 CURVE",
"163 594 LINE",
"251 594 OFFCURVE",
"331 526 OFFCURVE",
"356 431 CURVE",
"395 418 LINE",
"360 450 OFFCURVE",
"320 473 OFFCURVE",
"260 473 CURVE SMOOTH",
"143 473 OFFCURVE",
"40 363 OFFCURVE",
"40 229 CURVE SMOOTH",
"40 95 OFFCURVE",
"143 -15 OFFCURVE",
"268 -15 CURVE SMOOTH"
);
},
{
closed = 1;
nodes = (
"228 137 OFFCURVE",
"196 178 OFFCURVE",
"196 229 CURVE SMOOTH",
"196 280 OFFCURVE",
"228 322 OFFCURVE",
"268 322 CURVE SMOOTH",
"308 322 OFFCURVE",
"341 280 OFFCURVE",
"341 229 CURVE SMOOTH",
"341 178 OFFCURVE",
"308 137 OFFCURVE",
"268 137 CURVE SMOOTH"
);
},
{
closed = 1;
nodes = (
"247 494 LINE",
"463 729 LINE",
"332 729 LINE",
"136 494 LINE"
);
}
);
width = 541;
},
{
background = {
paths = (
{
closed = 1;
nodes = (
"379 -15 OFFCURVE",
"482 92 OFFCURVE",
"497 229 CURVE",
"497 363 OFFCURVE",
"394 473 OFFCURVE",
"268 473 CURVE SMOOTH",
"143 473 OFFCURVE",
"40 363 OFFCURVE",
"40 229 CURVE SMOOTH",
"40 95 OFFCURVE",
"143 -15 OFFCURVE",
"268 -15 CURVE SMOOTH"
);
},
{
closed = 1;
nodes = (
"176 664 LINE",
"305 664 OFFCURVE",
"443 508 OFFCURVE",
"443 360 CURVE",
"497 229 LINE",
"525 483 OFFCURVE",
"375 715 OFFCURVE",
"163 715 CURVE"
);
}
);
};
layerId = "3129A168-24FD-451B-9986-F27775A960CA";
paths = (
{
closed = 1;
nodes = (
"379 -15 OFFCURVE",
"482 92 OFFCURVE",
"497 229 CURVE SMOOTH",
"525 483 OFFCURVE",
"375 715 OFFCURVE",
"163 715 CURVE",
"176 664 LINE",
"306 664 OFFCURVE",
"445 506 OFFCURVE",
"442 358 CURVE",
"459 363 LINE",
"418 429 OFFCURVE",
"347 473 OFFCURVE",
"268 473 CURVE SMOOTH",
"143 473 OFFCURVE",
"40 363 OFFCURVE",
"40 229 CURVE SMOOTH",
"40 95 OFFCURVE",
"143 -15 OFFCURVE",
"268 -15 CURVE SMOOTH"
);
},
{
closed = 1;
nodes = (
"173 37 OFFCURVE",
"96 123 OFFCURVE",
"96 229 CURVE SMOOTH",
"96 335 OFFCURVE",
"173 422 OFFCURVE",
"268 422 CURVE SMOOTH",
"363 422 OFFCURVE",
"441 335 OFFCURVE",
"441 229 CURVE SMOOTH",
"441 123 OFFCURVE",
"363 37 OFFCURVE",
"268 37 CURVE SMOOTH"
);
},
{
closed = 1;
nodes = (
"215 494 LINE",
"421 729 LINE",
"365 729 LINE",
"159 494 LINE"
);
}
);
width = 540;
}
);
unicode = 00F0;
},
{
glyphname = dcaron;
lastChange = "2016-06-27 07:50:46 +0000";
layers = (
{
layerId = "631A315E-0C3F-4988-8BF6-333737037850";
paths = (
{
closed = 1;
nodes = (
"327 -13 OFFCURVE",
"372 0 OFFCURVE",
"394 16 CURVE",
"394 2 LINE",
"540 2 LINE",
"540 732 LINE",
"394 732 LINE",
"394 488 LINE",
"372 504 OFFCURVE",
"327 517 OFFCURVE",
"295 517 CURVE SMOOTH",
"149 517 OFFCURVE",
"30 398 OFFCURVE",
"30 252 CURVE SMOOTH",
"30 106 OFFCURVE",
"149 -13 OFFCURVE",
"295 -13 CURVE SMOOTH"
);
},
{
closed = 1;
nodes = (
"237 128 OFFCURVE",
"176 191 OFFCURVE",
"176 252 CURVE SMOOTH",
"176 320 OFFCURVE",
"230 376 OFFCURVE",
"295 376 CURVE SMOOTH",
"330 376 OFFCURVE",
"375 351 OFFCURVE",
"394 320 CURVE",
"394 184 LINE",
"375 153 OFFCURVE",
"330 128 OFFCURVE",
"295 128 CURVE SMOOTH"
);
},
{
closed = 1;
nodes = (
"663 579 LINE",
"754 730 LINE",
"614 730 LINE",
"559 579 LINE"
);
}
);
width = 754;
},
{
layerId = "3129A168-24FD-451B-9986-F27775A960CA";
paths = (
{
closed = 1;
nodes = (
"360 -15 OFFCURVE",
"423 13 OFFCURVE",
"470 58 CURVE",
"470 0 LINE",
"526 0 LINE",
"526 700 LINE",
"470 700 LINE",
"470 433 LINE",
"423 478 OFFCURVE",
"360 506 OFFCURVE",
"290 505 CURVE SMOOTH",
"147 504 OFFCURVE",
"30 387 OFFCURVE",
"30 245 CURVE SMOOTH",
"30 102 OFFCURVE",
"147 -15 OFFCURVE",
"290 -15 CURVE SMOOTH"
);
},
{
closed = 1;
nodes = (
"178 36 OFFCURVE",
"86 130 OFFCURVE",
"86 245 CURVE SMOOTH",
"86 360 OFFCURVE",
"178 454 OFFCURVE",
"290 454 CURVE SMOOTH",
"367 454 OFFCURVE",
"436 409 OFFCURVE",
"470 343 CURVE",
"470 147 LINE",
"436 81 OFFCURVE",
"368 36 OFFCURVE",
"290 36 CURVE SMOOTH"
);
},
{
closed = 1;
nodes = (
"606 512 LINE",
"677 663 LINE",
"612 663 LINE",
"557 512 LINE"
);
}
);
width = 717;
}
);
unicode = 010F;
},
{
glyphname = e;
lastChange = "2018-10-01 10:38:40 +0000";
layers = (
{
anchors = (
{
name = bottom;
position = "{297, 0}";
},
{
name = ogonek;
position = "{425, 10}";
},
{
name = top;
position = "{297, 500}";
}
);
background = {
paths = (
{
closed = 1;
nodes = (
"449 -8 OFFCURVE",
"568 104 OFFCURVE",
"568 250 CURVE SMOOTH",
"568 396 OFFCURVE",
"449 508 OFFCURVE",
"303 508 CURVE SMOOTH",
"157 508 OFFCURVE",
"38 396 OFFCURVE",
"38 250 CURVE SMOOTH",
"38 104 OFFCURVE",
"157 -8 OFFCURVE",
"303 -8 CURVE SMOOTH"
);
},
{
closed = 1;
nodes = (
"240 131 OFFCURVE",
"189 185 OFFCURVE",
"189 250 CURVE SMOOTH",
"189 315 OFFCURVE",
"240 369 OFFCURVE",
"303 369 CURVE SMOOTH",
"366 369 OFFCURVE",
"417 315 OFFCURVE",
"417 250 CURVE SMOOTH",
"417 185 OFFCURVE",
"366 131 OFFCURVE",
"303 131 CURVE SMOOTH"
);
}
);
};
guideLines = (
{
position = "{366, 215}";
},
{
position = "{370, 164}";
},
{
angle = 61.699;
position = "{481, 195}";
}
);
layerId = "631A315E-0C3F-4988-8BF6-333737037850";
paths = (
{
closed = 1;
nodes = (
"415 -8 OFFCURVE",
"515 58 OFFCURVE",
"552 164 CURVE",
"414 164 LINE",
"381 129 OFFCURVE",
"352 117 OFFCURVE",
"307 117 CURVE SMOOTH",
"238 117 OFFCURVE",
"191 145 OFFCURVE",
"191 240 CURVE SMOOTH",
"191 356 OFFCURVE",
"262 386 OFFCURVE",
"304 386 CURVE SMOOTH",
"363 386 OFFCURVE",
"415 329 OFFCURVE",
"415 251 CURVE SMOOTH",
"415 236 OFFCURVE",
"413 226 OFFCURVE",
"410 215 CURVE",
"564 215 LINE",
"565 225 OFFCURVE",
"566 236 OFFCURVE",
"566 250 CURVE SMOOTH",
"566 396 OFFCURVE",
"447 508 OFFCURVE",
"303 508 CURVE SMOOTH",
"159 508 OFFCURVE",
"40 396 OFFCURVE",
"40 250 CURVE SMOOTH",
"40 104 OFFCURVE",
"159 -8 OFFCURVE",
"304 -8 CURVE SMOOTH"
);
},
{
closed = 1;
nodes = (
"457 215 LINE",
"457 306 LINE",
"161 306 LINE",
"161 215 LINE"
);
}
);
width = 606;
},
{
anchors = (
{
name = bottom;
position = "{310, 0}";
},
{
name = ogonek;
position = "{387, 10}";
},
{
name = top;
position = "{310, 490}";
}
);
background = {
paths = (
{
closed = 1;
nodes = (
"81 215 LINE",
"552 215 LINE",
"552 266 LINE",
"81 266 LINE"
);
},
{
closed = 1;
nodes = (
"574 228 OFFCURVE",
"575 244 OFFCURVE",
"575 250 CURVE SMOOTH",
"575 396 OFFCURVE",
"456 515 OFFCURVE",
"310 515 CURVE SMOOTH",
"164 515 OFFCURVE",
"45 396 OFFCURVE",
"45 250 CURVE SMOOTH",
"45 104 OFFCURVE",
"164 -15 OFFCURVE",
"310 -15 CURVE SMOOTH",
"391 -15 OFFCURVE",
"494 45 OFFCURVE",
"538 118 CURVE",
"473 118 LINE",
"438 73 OFFCURVE",
"365 36 OFFCURVE",
"310 36 CURVE SMOOTH",
"196 36 OFFCURVE",
"102 132 OFFCURVE",
"102 250 CURVE SMOOTH",
"102 368 OFFCURVE",
"196 464 OFFCURVE",
"310 464 CURVE SMOOTH",
"424 464 OFFCURVE",
"518 368 OFFCURVE",
"518 250 CURVE SMOOTH",
"518 241 OFFCURVE",
"517 225 OFFCURVE",
"515 215 CURVE",
"573 215 LINE"
);
}
);
};
guideLines = (
{
position = "{461, 118}";
},
{
position = "{500, 203}";
},
{
position = "{379, 215}";
}
);
layerId = "3129A168-24FD-451B-9986-F27775A960CA";
paths = (
{
closed = 1;
nodes = (
"407 -15 OFFCURVE",
"497 37 OFFCURVE",
"537 118 CURVE",
"472 118 LINE",
"439 61 OFFCURVE",
"373 40 OFFCURVE",
"317 40 CURVE SMOOTH",
"199 40 OFFCURVE",
"110 134 OFFCURVE",
"110 244 CURVE SMOOTH",
"110 356 OFFCURVE",
"202 450 OFFCURVE",
"310 450 CURVE SMOOTH",
"418 450 OFFCURVE",
"510 356 OFFCURVE",
"510 246 CURVE SMOOTH",
"510 235 OFFCURVE",
"509 225 OFFCURVE",
"508 215 CURVE",
"568 215 LINE",
"569 225 OFFCURVE",
"570 234 OFFCURVE",
"570 247 CURVE SMOOTH",
"570 391 OFFCURVE",
"450 506 OFFCURVE",
"310 505 CURVE SMOOTH",
"167 504 OFFCURVE",
"50 387 OFFCURVE",
"50 245 CURVE SMOOTH",
"50 102 OFFCURVE",
"167 -15 OFFCURVE",
"311 -15 CURVE SMOOTH"
);
},
{
closed = 1;
nodes = (
"552 215 LINE",
"552 266 LINE",
"81 266 LINE",
"81 215 LINE"
);
}
);
width = 620;
}
);
leftKerningGroup = o;
leftMetricsKey = o;
rightKerningGroup = o;
rightMetricsKey = o;
unicode = 0065;
},
{
glyphname = f;
lastChange = "2019-01-29 08:50:14 +0000";
layers = (
{
background = {
paths = (
{
closed = 1;
nodes = (
"112 0 LINE",
"258 0 LINE",
"258 551 LINE",
"112 420 LINE"
);
},
{
closed = 1;
nodes = (
"258 420 LINE",
"258 575 OFFCURVE",
"304 574 OFFCURVE",
"427 574 CURVE",
"427 715 LINE",
"204 715 OFFCURVE",
"112 632 OFFCURVE",
"112 420 CURVE"
);
},
{
closed = 1;
nodes = (
"37 359 LINE",
"366 359 LINE",
"366 500 LINE",
"37 500 LINE"
);
}
);
};
guideLines = (
{
angle = 77.9885;
position = "{359, 574}";
},
{
angle = 166.293;
position = "{112, 359}";
}
);
layerId = "631A315E-0C3F-4988-8BF6-333737037850";
paths = (
{
closed = 1;
nodes = (
"261 -10 LINE",
"261 359 LINE",
"359 379 LINE",
"359 500 LINE",
"261 500 LINE",
"261 559 LINE SMOOTH",
"261 581 OFFCURVE",
"288 599 OFFCURVE",
"321 599 CURVE SMOOTH",
"358 599 LINE",
"389 745 LINE",
"321 745 LINE SMOOTH",
"205 745 OFFCURVE",
"110 661 OFFCURVE",
"110 559 CURVE SMOOTH",
"110 500 LINE",
"30 500 LINE",
"30 379 LINE",
"110 359 LINE",
"110 -10 LINE"
);
}
);
width = 400;
},
{
background = {
paths = (
{
closed = 1;
nodes = (
"100 637 OFFCURVE",
"194 715 OFFCURVE",
"309 715 CURVE",
"309 574 LINE",
"274 574 OFFCURVE",
"246 560 OFFCURVE",
"246 542 CURVE",
"100 542 LINE"
);
},
{
closed = 1;
nodes = (
"100 0 LINE",
"246 0 LINE",
"246 542 LINE",
"100 542 LINE"
);
},
{
closed = 1;
nodes = (
"309 574 LINE",
"347 574 LINE",
"377 715 LINE",
"309 715 LINE"
);
},
{
closed = 1;
nodes = (
"100 359 LINE",
"246 359 LINE",
"347 379 LINE",
"347 500 LINE",
"18 500 LINE",
"18 379 LINE"
);
}
);
};
layerId = "3129A168-24FD-451B-9986-F27775A960CA";
paths = (
{
closed = 1;
nodes = (
"192 0 LINE",
"192 439 LINE",
"308 452 LINE",
"308 490 LINE",
"192 490 LINE",
"192 587 LINE SMOOTH",
"192 629 OFFCURVE",
"240 664 OFFCURVE",
"299 664 CURVE SMOOTH",
"308 664 LINE",
"319 715 LINE",
"299 715 LINE SMOOTH",
"209 715 OFFCURVE",
"136 658 OFFCURVE",
"136 587 CURVE SMOOTH",
"136 490 LINE",
"40 490 LINE",
"40 452 LINE",
"136 439 LINE",
"136 0 LINE"
);
}
);
width = 340;
}
);
unicode = 0066;
},
{
glyphname = g;
lastChange = "2018-10-01 11:38:04 +0000";
layers = (
{
anchors = (
{
name = bottom;
position = "{297, 0}";
},
{
name = top;
position = "{297, 500}";
}
);
background = {
paths = (
{
closed = 1;
nodes = (
"447 -273 OFFCURVE",
"563 -173 OFFCURVE",
"563 -51 CURVE SMOOTH",
"563 500 LINE",
"407 500 LINE",
"407 441 LINE",
"425 452 LINE",
"408 483 OFFCURVE",
"353 515 OFFCURVE",
"286 515 CURVE SMOOTH",
"158 515 OFFCURVE",
"40 396 OFFCURVE",
"40 245 CURVE SMOOTH",
"40 104 OFFCURVE",
"143 -15 OFFCURVE",
"271 -15 CURVE SMOOTH",
"350 -15 OFFCURVE",
"418 30 OFFCURVE",
"427 63 CURVE",
"407 59 LINE",
"407 -51 LINE SMOOTH",
"407 -90 OFFCURVE",
"362 -122 OFFCURVE",
"306 -122 CURVE SMOOTH",
"248 -122 OFFCURVE",
"201 -86 OFFCURVE",
"202 -41 CURVE",
"46 -41 LINE",
"46 -169 OFFCURVE",
"163 -273 OFFCURVE",
"306 -273 CURVE SMOOTH"
);
},
{
closed = 1;
nodes = (
"244 131 OFFCURVE",
"197 185 OFFCURVE",
"197 250 CURVE SMOOTH",
"197 315 OFFCURVE",
"244 369 OFFCURVE",
"307 369 CURVE SMOOTH",
"350 369 OFFCURVE",
"388 344 OFFCURVE",
"407 307 CURVE",
"407 193 LINE",
"388 156 OFFCURVE",
"350 131 OFFCURVE",
"307 131 CURVE SMOOTH"
);
}
);
};
guideLines = (
{
angle = 90;
position = "{-35, 257}";
}
);
layerId = "631A315E-0C3F-4988-8BF6-333737037850";
paths = (
{
closed = 1;
nodes = (
"447 -266 OFFCURVE",
"563 -173 OFFCURVE",
"563 -51 CURVE SMOOTH",
"563 500 LINE",
"410 500 LINE",
"410 421 LINE",
"428 418 LINE",
"423 460 OFFCURVE",
"375 508 OFFCURVE",
"288 508 CURVE SMOOTH",
"156 508 OFFCURVE",
"40 396 OFFCURVE",
"40 245 CURVE SMOOTH",
"40 104 OFFCURVE",
"142 -8 OFFCURVE",
"273 -8 CURVE SMOOTH",
"349 -8 OFFCURVE",
"418 30 OFFCURVE",
"427 63 CURVE",
"407 59 LINE",
"407 -51 LINE SMOOTH",
"407 -90 OFFCURVE",
"362 -129 OFFCURVE",
"306 -129 CURVE SMOOTH",
"248 -129 OFFCURVE",
"201 -86 OFFCURVE",
"202 -41 CURVE",
"46 -41 LINE",
"46 -169 OFFCURVE",
"163 -266 OFFCURVE",
"306 -266 CURVE SMOOTH"
);
},
{
closed = 1;
nodes = (
"244 131 OFFCURVE",
"197 185 OFFCURVE",
"197 250 CURVE SMOOTH",
"197 315 OFFCURVE",
"244 369 OFFCURVE",
"307 369 CURVE SMOOTH",
"350 369 OFFCURVE",
"388 344 OFFCURVE",
"407 307 CURVE",
"407 193 LINE",
"388 156 OFFCURVE",
"350 131 OFFCURVE",
"307 131 CURVE SMOOTH"
);
}
);
width = 633;
},
{
anchors = (
{
name = bottom;
position = "{303, 0}";
},
{
name = top;
position = "{303, 490}";
}
);
background = {
paths = (
{
closed = 1;
nodes = (
"563 -51 LINE",
"563 500 LINE",
"417 500 LINE",
"417 486 LINE",
"395 502 OFFCURVE",
"351 515 OFFCURVE",
"318 515 CURVE SMOOTH",
"172 515 OFFCURVE",
"53 396 OFFCURVE",
"53 250 CURVE SMOOTH",
"53 104 OFFCURVE",
"172 -15 OFFCURVE",
"318 -15 CURVE SMOOTH",
"351 -15 OFFCURVE",
"395 -2 OFFCURVE",
"417 14 CURVE",
"417 -51 LINE"
);
},
{
closed = 1;
nodes = (
"354 374 OFFCURVE",
"398 349 OFFCURVE",
"417 318 CURVE",
"417 182 LINE",
"398 151 OFFCURVE",
"354 126 OFFCURVE",
"318 126 CURVE SMOOTH",
"253 126 OFFCURVE",
"199 182 OFFCURVE",
"199 250 CURVE SMOOTH",
"199 318 OFFCURVE",
"253 374 OFFCURVE",
"318 374 CURVE SMOOTH"
);
},
{
closed = 1;
nodes = (
"417 -90 OFFCURVE",
"367 -122 OFFCURVE",
"308 -122 CURVE SMOOTH",
"246 -122 OFFCURVE",
"195 -84 OFFCURVE",
"196 -41 CURVE",
"50 -41 LINE",
"50 -164 OFFCURVE",
"165 -263 OFFCURVE",
"308 -263 CURVE SMOOTH",
"449 -263 OFFCURVE",
"563 -168 OFFCURVE",
"563 -51 CURVE",
"417 -51 LINE"
);
}
);
};
guideLines = (
{
angle = 90;
position = "{49, 248}";
}
);
layerId = "3129A168-24FD-451B-9986-F27775A960CA";
paths = (
{
closed = 1;
nodes = (
"438 -262 OFFCURVE",
"546 -178 OFFCURVE",
"546 -55 CURVE SMOOTH",
"546 490 LINE",
"490 490 LINE",
"490 388 LINE",
"510 412 LINE",
"462 469 OFFCURVE",
"391 506 OFFCURVE",
"310 505 CURVE SMOOTH",
"167 504 OFFCURVE",
"50 387 OFFCURVE",
"50 245 CURVE SMOOTH",
"50 102 OFFCURVE",
"167 -15 OFFCURVE",
"310 -15 CURVE SMOOTH",
"391 -15 OFFCURVE",
"462 22 OFFCURVE",
"510 79 CURVE",
"490 103 LINE",
"490 -55 LINE SMOOTH",
"490 -151 OFFCURVE",
"407 -211 OFFCURVE",
"306 -211 CURVE SMOOTH",
"200 -211 OFFCURVE",
"117 -145 OFFCURVE",
"119 -65 CURVE",
"62 -65 LINE",
"62 -173 OFFCURVE",
"172 -262 OFFCURVE",
"306 -262 CURVE SMOOTH"
);
},
{
closed = 1;
nodes = (
"202 40 OFFCURVE",
"110 134 OFFCURVE",
"110 245 CURVE SMOOTH",
"110 356 OFFCURVE",
"202 450 OFFCURVE",
"310 450 CURVE SMOOTH",
"387 450 OFFCURVE",
"456 409 OFFCURVE",
"490 348 CURVE",
"490 142 LINE",
"456 81 OFFCURVE",
"388 40 OFFCURVE",
"310 40 CURVE SMOOTH"
);
}
);
width = 625;
}
);
leftKerningGroup = o;
leftMetricsKey = "=o";
rightMetricsKey = l;
unicode = 0067;
},
{
glyphname = h;
lastChange = "2019-01-09 10:50:47 +0000";
layers = (
{
anchors = (
{
name = bottom;
position = "{314, 0}";
},
{
name = center;
position = "{314, 194}";
},
{
name = top;
position = "{314, 500}";
}
);
background = {
paths = (
{
closed = 1;
nodes = (
"226 0 LINE",
"226 295 LINE",
"242 350 OFFCURVE",
"284 385 OFFCURVE",
"338 385 CURVE SMOOTH",
"396 385 OFFCURVE",
"434 344 OFFCURVE",
"434 250 CURVE SMOOTH",
"434 0 LINE",
"590 0 LINE",
"590 250 LINE SMOOTH",
"590 430 OFFCURVE",
"513 515 OFFCURVE",
"382 515 CURVE SMOOTH",
"319 515 OFFCURVE",
"255 495 OFFCURVE",
"200 420 CURVE",
"226 421 LINE",
"226 500 LINE",
"70 500 LINE",
"70 0 LINE"
);
},
{
closed = 1;
nodes = (
"226 0 LINE",
"226 303 LINE",
"242 338 OFFCURVE",
"284 373 OFFCURVE",
"338 373 CURVE SMOOTH",
"396 373 OFFCURVE",
"434 332 OFFCURVE",
"434 238 CURVE SMOOTH",
"434 0 LINE",
"590 0 LINE",
"590 250 LINE SMOOTH",
"590 430 OFFCURVE",
"513 515 OFFCURVE",
"382 515 CURVE SMOOTH",
"319 515 OFFCURVE",
"255 495 OFFCURVE",
"200 420 CURVE",
"226 421 LINE",
"226 500 LINE",
"70 500 LINE",
"70 0 LINE"
);
}
);
};
guideLines = (
{
angle = 90;
position = "{546, 539}";
},
{
angle = 90;
position = "{84, 270}";
}
);
layerId = "631A315E-0C3F-4988-8BF6-333737037850";
paths = (
{
closed = 1;
nodes = (
"226 0 LINE",
"226 305 LINE",
"242 340 OFFCURVE",
"284 375 OFFCURVE",
"338 375 CURVE SMOOTH",
"396 375 OFFCURVE",
"434 334 OFFCURVE",
"434 240 CURVE SMOOTH",
"434 0 LINE",
"590 0 LINE",
"590 250 LINE SMOOTH",
"590 431 OFFCURVE",
"513 508 OFFCURVE",
"380 508 CURVE SMOOTH",
"304 508 OFFCURVE",
"245 483 OFFCURVE",
"200 420 CURVE",
"226 421 LINE",
"226 730 LINE",
"70 730 LINE",
"70 0 LINE"
);
}
);
width = 655;
},
{
anchors = (
{
name = bottom;
position = "{299, 0}";
},
{
name = center;
position = "{299, 245}";
},
{
name = top;
position = "{299, 490}";
}
);
background = {
paths = (
{
closed = 1;
nodes = (
"135 0 LINE",
"135 305 LINE SMOOTH",
"135 374 OFFCURVE",
"209 450 OFFCURVE",
"299 450 CURVE SMOOTH",
"389 450 OFFCURVE",
"463 374 OFFCURVE",
"463 285 CURVE SMOOTH",
"463 0 LINE",
"519 0 LINE",
"519 285 LINE SMOOTH",
"519 407 OFFCURVE",
"420 506 OFFCURVE",
"299 505 CURVE SMOOTH",
"223 504 OFFCURVE",
"148 456 OFFCURVE",
"117 397 CURVE",
"135 386 LINE",
"135 490 LINE",
"79 490 LINE",
"79 0 LINE"
);
}
);
};
guideLines = (
{
position = "{75, 730}";
}
);
layerId = "3129A168-24FD-451B-9986-F27775A960CA";
paths = (
{
closed = 1;
nodes = (
"135 0 LINE",
"135 305 LINE SMOOTH",
"135 374 OFFCURVE",
"209 450 OFFCURVE",
"299 450 CURVE SMOOTH",
"389 450 OFFCURVE",
"463 374 OFFCURVE",
"463 275 CURVE SMOOTH",
"463 0 LINE",
"519 0 LINE",
"519 285 LINE SMOOTH",
"519 414 OFFCURVE",
"413 506 OFFCURVE",
"306 505 CURVE SMOOTH",
"227 505 OFFCURVE",
"148 457 OFFCURVE",
"117 397 CURVE",
"135 386 LINE",
"135 730 LINE",
"79 730 LINE",
"79 0 LINE"
);
}
);
width = 594;
}
);
leftMetricsKey = n;
rightKerningGroup = n;
rightMetricsKey = n;
unicode = 0068;
},
{
glyphname = i;
lastChange = "2018-10-02 10:57:19 +0000";
layers = (
{
anchors = (
{
name = bottom;
position = "{154, 0}";
}
);
guideLines = (
{
angle = 90;
position = "{154, 0}";
},
{
position = "{154, 583}";
},
{
angle = 90;
position = "{76, 501}";
},
{
angle = 90;
position = "{232, 499}";
}
);
layerId = "631A315E-0C3F-4988-8BF6-333737037850";
paths = (
{
closed = 1;
nodes = (
"232 0 LINE",
"232 500 LINE",
"76 500 LINE",
"76 0 LINE"
);
},
{
closed = 1;
nodes = (
"202 554 OFFCURVE",
"242 594 OFFCURVE",
"242 643 CURVE SMOOTH",
"242 691 OFFCURVE",
"202 731 OFFCURVE",
"154 731 CURVE SMOOTH",
"105 731 OFFCURVE",
"65 691 OFFCURVE",
"65 643 CURVE SMOOTH",
"65 594 OFFCURVE",
"105 554 OFFCURVE",
"154 554 CURVE SMOOTH"
);
}
);
width = 307;
},
{
anchors = (
{
name = bottom;
position = "{119, 0}";
}
);
background = {
paths = (
{
closed = 1;
nodes = (
"46 0 LINE",
"192 0 LINE",
"192 500 LINE",
"46 500 LINE"
);
},
{
closed = 1;
nodes = (
"165 583 OFFCURVE",
"203 621 OFFCURVE",
"203 668 CURVE SMOOTH",
"203 714 OFFCURVE",
"165 752 OFFCURVE",
"119 752 CURVE SMOOTH",
"72 752 OFFCURVE",
"34 714 OFFCURVE",
"34 668 CURVE SMOOTH",
"34 621 OFFCURVE",
"72 583 OFFCURVE",
"119 583 CURVE SMOOTH"
);
}
);
};
layerId = "3129A168-24FD-451B-9986-F27775A960CA";
paths = (
{
closed = 1;
nodes = (
"147 0 LINE",
"147 490 LINE",
"91 490 LINE",
"91 0 LINE"
);
},
{
closed = 1;
nodes = (
"143 583 OFFCURVE",
"163 603 OFFCURVE",
"163 628 CURVE SMOOTH",
"163 652 OFFCURVE",
"143 672 OFFCURVE",
"119 672 CURVE SMOOTH",
"94 672 OFFCURVE",
"74 652 OFFCURVE",
"74 628 CURVE SMOOTH",
"74 603 OFFCURVE",
"94 583 OFFCURVE",
"119 583 CURVE SMOOTH"
);
}
);
width = 237;
}
);
leftMetricsKey = "=n-5";
rightMetricsKey = "=|i";
unicode = 0069;
},
{
glyphname = idotless;
lastChange = "2016-06-22 13:43:25 +0000";
layers = (
{
anchors = (
{
name = bottom;
position = "{113, 0}";
},
{
name = ogonek;
position = "{203, 10}";
},
{
name = top;
position = "{113, 500}";
}
);
layerId = "631A315E-0C3F-4988-8BF6-333737037850";
paths = (
{
closed = 1;
nodes = (
"40 0 LINE",
"186 0 LINE",
"186 500 LINE",
"40 500 LINE"
);
}
);
width = 226;
},
{
anchors = (
{
name = bottom;
position = "{68, 0}";
},
{
name = ogonek;
position = "{138, 23}";
},
{
name = top;
position = "{68, 490}";
}
);
layerId = "3129A168-24FD-451B-9986-F27775A960CA";
paths = (
{
closed = 1;
nodes = (
"40 0 LINE",
"96 0 LINE",
"96 490 LINE",
"40 490 LINE"
);
}
);
width = 136;
}
);
unicode = 0131;
},
{
glyphname = j;
lastChange = "2018-10-02 10:57:24 +0000";
layers = (
{
background = {
paths = (
{
closed = 1;
nodes = (
"227 -137 OFFCURVE",
"133 -215 OFFCURVE",
"18 -215 CURVE",
"18 -74 LINE",
"53 -74 OFFCURVE",
"81 -60 OFFCURVE",
"81 -42 CURVE",
"227 -42 LINE"
);
},
{
closed = 1;
nodes = (
"227 500 LINE",
"81 500 LINE",
"81 -42 LINE",
"227 -42 LINE"
);
},
{
closed = 1;
nodes = (
"18 -74 LINE",
"-50 -74 LINE",
"-20 -215 LINE",
"18 -215 LINE"
);
}
);
};
guideLines = (
{
angle = 90;
position = "{-20, -75}";
},
{
angle = 90;
position = "{-50, -215}";
}
);
layerId = "631A315E-0C3F-4988-8BF6-333737037850";
paths = (
{
closed = 1;
nodes = (
"23 -215 LINE SMOOTH",
"139 -215 OFFCURVE",
"234 -131 OFFCURVE",
"234 -29 CURVE SMOOTH",
"234 500 LINE",
"83 500 LINE",
"83 -29 LINE SMOOTH",
"83 -51 OFFCURVE",
"56 -69 OFFCURVE",
"23 -69 CURVE SMOOTH",
"-14 -69 LINE",
"-45 -215 LINE"
);
},
{
closed = 1;
nodes = (
"202 554 OFFCURVE",
"242 594 OFFCURVE",
"242 643 CURVE SMOOTH",
"242 691 OFFCURVE",
"202 731 OFFCURVE",
"154 731 CURVE SMOOTH",
"105 731 OFFCURVE",
"65 691 OFFCURVE",
"65 643 CURVE SMOOTH",
"65 594 OFFCURVE",
"105 554 OFFCURVE",
"154 554 CURVE SMOOTH"
);
}
);
width = 312;
},
{
layerId = "3129A168-24FD-451B-9986-F27775A960CA";
paths = (
{
closed = 1;
nodes = (
"-15 -225 LINE SMOOTH",
"75 -225 OFFCURVE",
"149 -167 OFFCURVE",
"149 -97 CURVE SMOOTH",
"149 490 LINE",
"93 490 LINE",
"93 -97 LINE SMOOTH",
"93 -139 OFFCURVE",
"44 -174 OFFCURVE",
"-15 -174 CURVE SMOOTH",
"-35 -174 LINE",
"-24 -225 LINE"
);
},
{
closed = 1;
nodes = (
"145 583 OFFCURVE",
"165 603 OFFCURVE",
"165 628 CURVE SMOOTH",
"165 652 OFFCURVE",
"145 672 OFFCURVE",
"121 672 CURVE SMOOTH",
"96 672 OFFCURVE",
"76 652 OFFCURVE",
"76 628 CURVE SMOOTH",
"76 603 OFFCURVE",
"96 583 OFFCURVE",
"121 583 CURVE SMOOTH"
);
}
);
width = 244;
}
);
rightMetricsKey = l;
unicode = 006A;
},
{
glyphname = k;
lastChange = "2018-10-02 10:57:29 +0000";
layers = (
{
anchors = (
{
name = bottom;
position = "{307, 0}";
},
{
name = top;
position = "{307, 500}";
}
);
background = {
paths = (
{
closed = 1;
nodes = (
"226 0 LINE",
"226 82 LINE",
"301 162 LINE",
"430 0 LINE",
"554 0 LINE",
"554 89 LINE",
"406 275 LINE",
"532 410 LINE",
"532 500 LINE",
"407 500 LINE",
"226 306 LINE",
"226 730 LINE",
"70 730 LINE",
"70 0 LINE"
);
}
);
};
guideLines = (
{
angle = 45.755;
position = "{195, 64}";
},
{
angle = 128.5205;
position = "{554, 89}";
}
);
layerId = "631A315E-0C3F-4988-8BF6-333737037850";
paths = (
{
closed = 1;
nodes = (
"226 0 LINE",
"226 127 LINE",
"195 74 LINE",
"326 208 LINE",
"284 197 LINE",
"430 0 LINE",
"554 0 LINE",
"554 89 LINE",
"376 312 LINE",
"369 253 LINE",
"532 420 LINE",
"532 500 LINE",
"417 500 LINE",
"226 297 LINE",
"226 730 LINE",
"70 730 LINE",
"70 0 LINE"
);
}
);
width = 599;
},
{
anchors = (
{
name = bottom;
position = "{279, 0}";
},
{
name = top;
position = "{279, 490}";
}
);
background = {
paths = (
{
closed = 1;
nodes = (
"185 0 LINE",
"185 700 LINE",
"39 700 LINE",
"39 0 LINE"
);
},
{
closed = 1;
nodes = (
"503 0 LINE",
"503 89 LINE",
"339 295 LINE",
"233 201 LINE",
"393 0 LINE"
);
},
{
closed = 1;
nodes = (
"137 249 LINE",
"167 74 LINE",
"481 410 LINE",
"481 500 LINE",
"371 500 LINE"
);
}
);
};
guideLines = (
{
angle = 47.0309;
position = "{104, 100}";
},
{
angle = 127.4606;
position = "{488, 25}";
},
{
angle = 47.0309;
position = "{392, 490}";
}
);
layerId = "3129A168-24FD-451B-9986-F27775A960CA";
paths = (
{
closed = 1;
nodes = (
"135 0 LINE",
"135 178 LINE",
"104 100 LINE",
"264 271 LINE",
"206 274 LINE",
"437 0 LINE",
"488 0 LINE",
"488 25 LINE",
"244 315 LINE",
"240 246 LINE",
"445 466 LINE",
"445 490 LINE",
"392 490 LINE",
"135 214 LINE",
"135 700 LINE",
"79 700 LINE",
"79 0 LINE"
);
}
);
width = 523;
}
);
leftMetricsKey = "=l";
unicode = 006B;
},
{
glyphname = l;
lastChange = "2019-01-09 10:42:52 +0000";
layers = (
{
anchors = (
{
name = bottom;
position = "{131, 0}";
},
{
name = center;
position = "{148, 330}";
},
{
name = top;
position = "{268, 500}";
},
{
name = topright;
position = "{241, 500}";
}
);
layerId = "631A315E-0C3F-4988-8BF6-333737037850";
paths = (
{
closed = 1;
nodes = (
"226 0 LINE",
"226 730 LINE",
"70 730 LINE",
"70 0 LINE"
);
}
);
width = 296;
},
{
anchors = (
{
name = bottom;
position = "{107, 0}";
},
{
name = center;
position = "{107, 365}";
},
{
name = top;
position = "{157, 490}";
},
{
name = topright;
position = "{156, 490}";
}
);
layerId = "3129A168-24FD-451B-9986-F27775A960CA";
paths = (
{
closed = 1;
nodes = (
"135 0 LINE",
"135 730 LINE",
"79 730 LINE",
"79 0 LINE"
);
}
);
width = 214;
}
);
leftMetricsKey = n;
rightMetricsKey = "=|n";
unicode = 006C;
},
{
glyphname = lcaron;
lastChange = "2017-06-02 12:47:15 +0000";
layers = (
{
layerId = "631A315E-0C3F-4988-8BF6-333737037850";
paths = (
{
closed = 1;
nodes = (
"180 0 LINE",
"326 0 LINE",
"326 700 LINE",
"180 700 LINE"
);
},
{
closed = 1;
nodes = (
"366 409 LINE",
"465 409 LINE",
"465 700 LINE",
"366 700 LINE"
);
}
);
width = 600;
},
{
layerId = "3129A168-24FD-451B-9986-F27775A960CA";
paths = (
{
closed = 1;
nodes = (
"40 0 LINE",
"96 0 LINE",
"96 730 LINE",
"40 730 LINE"
);
},
{
closed = 1;
nodes = (
"136 503 LINE",
"182 503 LINE",
"182 731 LINE",
"136 731 LINE"
);
}
);
width = 222;
}
);
unicode = 013E;
},
{
glyphname = m;
lastChange = "2018-10-02 10:56:25 +0000";
layers = (
{
anchors = (
{
name = bottom;
position = "{481, 0}";
},
{
name = top;
position = "{481, 500}";
}
);
background = {
paths = (
{
closed = 1;
nodes = (
"199 0 LINE",
"199 303 LINE",
"215 338 OFFCURVE",
"257 373 OFFCURVE",
"311 373 CURVE SMOOTH",
"369 373 OFFCURVE",
"407 332 OFFCURVE",
"407 238 CURVE SMOOTH",
"407 0 LINE",
"563 0 LINE",
"563 250 LINE SMOOTH",
"563 430 OFFCURVE",
"486 515 OFFCURVE",
"355 515 CURVE SMOOTH",
"292 515 OFFCURVE",
"228 495 OFFCURVE",
"173 420 CURVE",
"199 421 LINE",
"199 500 LINE",
"43 500 LINE",
"43 0 LINE"
);
},
{
closed = 1;
nodes = (
"528 0 LINE",
"528 303 LINE",
"544 338 OFFCURVE",
"586 373 OFFCURVE",
"640 373 CURVE SMOOTH",
"698 373 OFFCURVE",
"736 332 OFFCURVE",
"736 238 CURVE SMOOTH",
"736 0 LINE",
"892 0 LINE",
"892 250 LINE SMOOTH",
"892 430 OFFCURVE",
"815 515 OFFCURVE",
"684 515 CURVE SMOOTH",
"621 515 OFFCURVE",
"557 495 OFFCURVE",
"502 420 CURVE",
"528 421 LINE",
"528 500 LINE",
"372 500 LINE",
"372 0 LINE"
);
}
);
};
guideLines = (
{
position = "{403, 250}";
}
);
layerId = "631A315E-0C3F-4988-8BF6-333737037850";
paths = (
{
closed = 1;
nodes = (
"226 0 LINE",
"226 325 LINE",
"247 358 OFFCURVE",
"286 373 OFFCURVE",
"316 373 CURVE SMOOTH",
"365 373 OFFCURVE",
"403 334 OFFCURVE",
"403 238 CURVE SMOOTH",
"404 0 LINE",
"560 0 LINE",
"558 328 LINE",
"572 354 OFFCURVE",
"612 373 OFFCURVE",
"645 373 CURVE SMOOTH",
"693 373 OFFCURVE",
"733 333 OFFCURVE",
"733 238 CURVE SMOOTH",
"733 0 LINE",
"889 0 LINE",
"889 290 LINE SMOOTH",
"889 426 OFFCURVE",
"809 508 OFFCURVE",
"695 508 CURVE SMOOTH",
"616 508 OFFCURVE",
"540 468 OFFCURVE",
"509 420 CURVE",
"531 422 LINE",
"505 471 OFFCURVE",
"440 508 OFFCURVE",
"369 508 CURVE SMOOTH",
"296 508 OFFCURVE",
"231 468 OFFCURVE",
"200 420 CURVE",
"226 416 LINE",
"226 500 LINE",
"70 500 LINE",
"70 0 LINE"
);
}
);
width = 954;
},
{
anchors = (
{
name = bottom;
position = "{451, 0}";
},
{
name = top;
position = "{451, 490}";
}
);
background = {
paths = (
{
closed = 1;
nodes = (
"441 0 LINE",
"441 305 LINE SMOOTH",
"441 374 OFFCURVE",
"515 450 OFFCURVE",
"605 450 CURVE SMOOTH",
"695 450 OFFCURVE",
"769 374 OFFCURVE",
"769 275 CURVE SMOOTH",
"769 0 LINE",
"825 0 LINE",
"825 285 LINE SMOOTH",
"825 414 OFFCURVE",
"719 506 OFFCURVE",
"612 505 CURVE SMOOTH",
"533 504 OFFCURVE",
"454 457 OFFCURVE",
"423 397 CURVE",
"441 386 LINE",
"441 730 LINE",
"385 730 LINE",
"385 0 LINE"
);
}
);
};
layerId = "3129A168-24FD-451B-9986-F27775A960CA";
paths = (
{
closed = 1;
nodes = (
"135 0 LINE",
"135 305 LINE SMOOTH",
"135 382 OFFCURVE",
"206 450 OFFCURVE",
"282 450 CURVE SMOOTH",
"356 450 OFFCURVE",
"423 384 OFFCURVE",
"423 305 CURVE SMOOTH",
"423 0 LINE",
"479 0 LINE",
"479 308 LINE SMOOTH",
"479 385 OFFCURVE",
"544 450 OFFCURVE",
"623 450 CURVE SMOOTH",
"702 450 OFFCURVE",
"767 390 OFFCURVE",
"767 285 CURVE SMOOTH",
"767 0 LINE",
"823 0 LINE",
"823 285 LINE SMOOTH",
"823 428 OFFCURVE",
"737 505 OFFCURVE",
"630 505 CURVE SMOOTH",
"538 505 OFFCURVE",
"467 440 OFFCURVE",
"438 371 CURVE",
"464 381 LINE",
"436 451 OFFCURVE",
"361 505 OFFCURVE",
"284 505 CURVE SMOOTH",
"209 505 OFFCURVE",
"148 455 OFFCURVE",
"117 405 CURVE",
"135 398 LINE",
"135 490 LINE",
"79 490 LINE",
"79 0 LINE"
);
}
);
width = 898;
}
);
leftKerningGroup = n;
leftMetricsKey = n;
rightKerningGroup = n;
rightMetricsKey = n;
unicode = 006D;
},
{
glyphname = n;
lastChange = "2018-10-02 10:56:13 +0000";
layers = (
{
anchors = (
{
name = bottom;
position = "{330, 0}";
},
{
name = top;
position = "{290, 500}";
}
);
background = {
paths = (
{
closed = 1;
nodes = (
"228 -230 LINE",
"228 59 LINE",
"214 49 LINE",
"221 28 OFFCURVE",
"279 -15 OFFCURVE",
"350 -15 CURVE SMOOTH",
"465 -15 OFFCURVE",
"592 96 OFFCURVE",
"592 261 CURVE SMOOTH",
"592 396 OFFCURVE",
"508 515 OFFCURVE",
"376 515 CURVE SMOOTH",
"286 515 OFFCURVE",
"212 459 OFFCURVE",
"207 416 CURVE",
"225 422 LINE",
"225 500 LINE",
"72 500 LINE",
"72 -230 LINE"
);
},
{
closed = 1;
nodes = (
"285 131 OFFCURVE",
"247 156 OFFCURVE",
"228 193 CURVE",
"228 307 LINE",
"247 344 OFFCURVE",
"285 369 OFFCURVE",
"328 369 CURVE SMOOTH",
"391 369 OFFCURVE",
"442 315 OFFCURVE",
"442 250 CURVE SMOOTH",
"442 185 OFFCURVE",
"391 131 OFFCURVE",
"328 131 CURVE SMOOTH"
);
}
);
};
layerId = "631A315E-0C3F-4988-8BF6-333737037850";
paths = (
{
closed = 1;
nodes = (
"226 0 LINE",
"226 303 LINE",
"242 338 OFFCURVE",
"284 373 OFFCURVE",
"338 373 CURVE SMOOTH",
"396 373 OFFCURVE",
"434 332 OFFCURVE",
"434 238 CURVE SMOOTH",
"434 0 LINE",
"590 0 LINE",
"590 250 LINE SMOOTH",
"590 432 OFFCURVE",
"513 508 OFFCURVE",
"378 508 CURVE SMOOTH",
"313 508 OFFCURVE",
"251 490 OFFCURVE",
"200 420 CURVE",
"226 421 LINE",
"226 500 LINE",
"70 500 LINE",
"70 0 LINE"
);
}
);
width = 655;
},
{
anchors = (
{
name = bottom;
position = "{299, 0}";
},
{
name = top;
position = "{299, 490}";
}
);
background = {
paths = (
{
closed = 1;
nodes = (
"135 0 LINE",
"135 305 LINE SMOOTH",
"135 374 OFFCURVE",
"209 450 OFFCURVE",
"299 450 CURVE SMOOTH",
"389 450 OFFCURVE",
"463 374 OFFCURVE",
"463 275 CURVE SMOOTH",
"463 0 LINE",
"519 0 LINE",
"519 285 LINE SMOOTH",
"519 414 OFFCURVE",
"413 506 OFFCURVE",
"306 505 CURVE SMOOTH",
"227 505 OFFCURVE",
"148 457 OFFCURVE",
"117 397 CURVE",
"135 386 LINE",
"135 730 LINE",
"79 730 LINE",
"79 0 LINE"
);
}
);
};
guideLines = (
{
angle = 90;
position = "{556, 244}";
}
);
layerId = "3129A168-24FD-451B-9986-F27775A960CA";
paths = (
{
closed = 1;
nodes = (
"135 0 LINE",
"135 305 LINE SMOOTH",
"135 374 OFFCURVE",
"209 450 OFFCURVE",
"299 450 CURVE SMOOTH",
"389 450 OFFCURVE",
"463 374 OFFCURVE",
"463 275 CURVE SMOOTH",
"463 0 LINE",
"519 0 LINE",
"519 285 LINE SMOOTH",
"519 414 OFFCURVE",
"413 506 OFFCURVE",
"306 505 CURVE SMOOTH",
"223 504 OFFCURVE",
"148 456 OFFCURVE",
"117 397 CURVE",
"135 386 LINE",
"135 490 LINE",
"79 490 LINE",
"79 0 LINE"
);
}
);
width = 594;
}
);
leftKerningGroup = n;
rightKerningGroup = n;
unicode = 006E;
},
{
glyphname = eng;
lastChange = "2016-06-27 07:51:08 +0000";
layers = (
{
layerId = "631A315E-0C3F-4988-8BF6-333737037850";
paths = (
{
closed = 1;
nodes = (
"447 -199 OFFCURVE",
"560 -109 OFFCURVE",
"560 0 CURVE",
"414 0 LINE",
"414 -31 OFFCURVE",
"366 -57 OFFCURVE",
"308 -57 CURVE",
"308 -199 LINE"
);
},
{
closed = 1;
nodes = (
"260 515 OFFCURVE",
"227 504 OFFCURVE",
"196 485 CURVE",
"196 500 LINE",
"50 500 LINE",
"50 0 LINE",
"196 0 LINE",
"196 318 LINE",
"217 352 OFFCURVE",
"254 374 OFFCURVE",
"295 374 CURVE SMOOTH",
"360 374 OFFCURVE",
"414 318 OFFCURVE",
"414 250 CURVE SMOOTH",
"414 0 LINE",
"560 0 LINE",
"560 250 LINE SMOOTH",
"560 396 OFFCURVE",
"441 515 OFFCURVE",
"295 515 CURVE SMOOTH"
);
}
);
width = 610;
},
{
layerId = "3129A168-24FD-451B-9986-F27775A960CA";
paths = (
{
closed = 1;
nodes = (
"387 -154 OFFCURVE",
"480 -85 OFFCURVE",
"480 0 CURVE",
"424 0 LINE",
"424 -57 OFFCURVE",
"356 -103 OFFCURVE",
"273 -103 CURVE",
"273 -154 LINE"
);
},
{
closed = 1;
nodes = (
"195 504 OFFCURVE",
"136 476 OFFCURVE",
"96 431 CURVE",
"96 490 LINE",
"40 490 LINE",
"40 0 LINE",
"96 0 LINE",
"96 285 LINE SMOOTH",
"96 378 OFFCURVE",
"170 454 OFFCURVE",
"260 454 CURVE SMOOTH",
"350 454 OFFCURVE",
"424 378 OFFCURVE",
"424 285 CURVE SMOOTH",
"424 0 LINE",
"480 0 LINE",
"480 285 LINE SMOOTH",
"480 407 OFFCURVE",
"381 506 OFFCURVE",
"260 505 CURVE SMOOTH"
);
}
);
width = 520;
}
);
unicode = 014B;
},
{
glyphname = o;
lastChange = "2019-01-29 08:30:40 +0000";
layers = (
{
anchors = (
{
name = bottom;
position = "{305, 0}";
},
{
name = center;
position = "{305, 250}";
},
{
name = ogonek;
position = "{541, 10}";
},
{
name = top;
position = "{305, 500}";
},
{
name = topright;
position = "{580, 500}";
}
);
layerId = "631A315E-0C3F-4988-8BF6-333737037850";
paths = (
{
closed = 1;
nodes = (
"451 -8 OFFCURVE",
"570 104 OFFCURVE",
"570 250 CURVE SMOOTH",
"570 396 OFFCURVE",
"451 508 OFFCURVE",
"305 508 CURVE SMOOTH",
"159 508 OFFCURVE",
"40 396 OFFCURVE",
"40 250 CURVE SMOOTH",
"40 104 OFFCURVE",
"159 -8 OFFCURVE",
"305 -8 CURVE SMOOTH"
);
},
{
closed = 1;
nodes = (
"242 131 OFFCURVE",
"191 185 OFFCURVE",
"191 250 CURVE SMOOTH",
"191 315 OFFCURVE",
"242 369 OFFCURVE",
"305 369 CURVE SMOOTH",
"368 369 OFFCURVE",
"419 315 OFFCURVE",
"419 250 CURVE SMOOTH",
"419 185 OFFCURVE",
"368 131 OFFCURVE",
"305 131 CURVE SMOOTH"
);
}
);
width = 610;
},
{
anchors = (
{
name = bottom;
position = "{310, 0}";
},
{
name = center;
position = "{310, 245}";
},
{
name = ogonek;
position = "{542, 10}";
},
{
name = top;
position = "{310, 490}";
},
{
name = topright;
position = "{580, 490}";
}
);
layerId = "3129A168-24FD-451B-9986-F27775A960CA";
paths = (
{
closed = 1;
nodes = (
"453 -15 OFFCURVE",
"570 102 OFFCURVE",
"570 245 CURVE SMOOTH",
"570 389 OFFCURVE",
"453 506 OFFCURVE",
"310 505 CURVE SMOOTH",
"167 504 OFFCURVE",
"50 387 OFFCURVE",
"50 245 CURVE SMOOTH",
"50 102 OFFCURVE",
"167 -15 OFFCURVE",
"310 -15 CURVE SMOOTH"
);
},
{
closed = 1;
nodes = (
"198 36 OFFCURVE",
"106 130 OFFCURVE",
"106 245 CURVE SMOOTH",
"106 360 OFFCURVE",
"198 454 OFFCURVE",
"310 454 CURVE SMOOTH",
"422 454 OFFCURVE",
"514 360 OFFCURVE",
"514 245 CURVE SMOOTH",
"514 130 OFFCURVE",
"422 36 OFFCURVE",
"310 36 CURVE SMOOTH"
);
}
);
width = 620;
}
);
leftKerningGroup = o;
rightKerningGroup = o;
unicode = 006F;
},
{
glyphname = oslash;
lastChange = "2018-10-02 10:59:51 +0000";
layers = (
{
background = {
paths = (
{
closed = 1;
nodes = (
"451 -15 OFFCURVE",
"570 104 OFFCURVE",
"570 250 CURVE SMOOTH",
"570 396 OFFCURVE",
"451 515 OFFCURVE",
"305 515 CURVE SMOOTH",
"159 515 OFFCURVE",
"40 396 OFFCURVE",
"40 250 CURVE SMOOTH",
"40 104 OFFCURVE",
"139 -15 OFFCURVE",
"305 -15 CURVE SMOOTH"
);
},
{
closed = 1;
nodes = (
"242 131 OFFCURVE",
"191 185 OFFCURVE",
"191 250 CURVE SMOOTH",
"191 315 OFFCURVE",
"242 369 OFFCURVE",
"305 369 CURVE SMOOTH",
"368 369 OFFCURVE",
"419 315 OFFCURVE",
"419 250 CURVE SMOOTH",
"419 185 OFFCURVE",
"368 131 OFFCURVE",
"305 131 CURVE SMOOTH"
);
},
{
closed = 1;
nodes = (
"570 431 LINE",
"570 500 LINE",
"455 500 LINE",
"405 448 LINE",
"497 355 LINE"
);
},
{
closed = 1;
nodes = (
"40 69 LINE",
"40 0 LINE",
"155 0 LINE",
"205 52 LINE",
"111 143 LINE"
);
},
{
closed = 1;
nodes = (
"205 52 LINE",
"497 355 LINE",
"404 447 LINE",
"111 143 LINE"
);
}
);
};
guideLines = (
{
angle = 90;
position = "{570, 396}";
},
{
angle = 90;
position = "{40, 250}";
},
{
angle = 46.0835;
position = "{97, 0}";
}
);
layerId = "631A315E-0C3F-4988-8BF6-333737037850";
paths = (
{
closed = 1;
nodes = (
"451 -8 OFFCURVE",
"570 104 OFFCURVE",
"570 250 CURVE SMOOTH",
"570 396 OFFCURVE",
"451 508 OFFCURVE",
"305 508 CURVE SMOOTH",
"159 508 OFFCURVE",
"40 396 OFFCURVE",
"40 250 CURVE SMOOTH",
"40 104 OFFCURVE",
"159 -8 OFFCURVE",
"305 -8 CURVE SMOOTH"
);
},
{
closed = 1;
nodes = (
"242 131 OFFCURVE",
"191 185 OFFCURVE",
"191 250 CURVE SMOOTH",
"191 315 OFFCURVE",
"242 369 OFFCURVE",
"305 369 CURVE SMOOTH",
"368 369 OFFCURVE",
"419 315 OFFCURVE",
"419 250 CURVE SMOOTH",
"419 185 OFFCURVE",
"368 131 OFFCURVE",
"305 131 CURVE SMOOTH"
);
},
{
closed = 1;
nodes = (
"570 451 LINE",
"570 500 LINE",
"465 500 LINE",
"40 49 LINE",
"40 0 LINE",
"145 0 LINE"
);
}
);
width = 610;
},
{
background = {
paths = (
{
closed = 1;
nodes = (
"22 59 LINE",
"22 0 LINE",
"137 0 LINE",
"552 441 LINE",
"552 500 LINE",
"437 500 LINE"
);
},
{
closed = 1;
nodes = (
"459 -15 OFFCURVE",
"578 104 OFFCURVE",
"578 250 CURVE SMOOTH",
"578 396 OFFCURVE",
"459 515 OFFCURVE",
"313 515 CURVE SMOOTH",
"167 515 OFFCURVE",
"48 396 OFFCURVE",
"48 250 CURVE SMOOTH",
"48 104 OFFCURVE",
"147 -15 OFFCURVE",
"313 -15 CURVE SMOOTH"
);
},
{
closed = 1;
nodes = (
"250 131 OFFCURVE",
"199 185 OFFCURVE",
"199 250 CURVE SMOOTH",
"199 315 OFFCURVE",
"250 369 OFFCURVE",
"313 369 CURVE SMOOTH",
"376 369 OFFCURVE",
"427 315 OFFCURVE",
"427 250 CURVE SMOOTH",
"427 185 OFFCURVE",
"376 131 OFFCURVE",
"313 131 CURVE SMOOTH"
);
}
);
};
guideLines = (
{
angle = 90;
position = "{572, 245}";
}
);
layerId = "3129A168-24FD-451B-9986-F27775A960CA";
paths = (
{
closed = 1;
nodes = (
"455 -15 OFFCURVE",
"572 102 OFFCURVE",
"572 245 CURVE SMOOTH",
"572 389 OFFCURVE",
"455 506 OFFCURVE",
"312 505 CURVE SMOOTH",
"169 504 OFFCURVE",
"52 387 OFFCURVE",
"52 245 CURVE SMOOTH",
"52 102 OFFCURVE",
"169 -15 OFFCURVE",
"312 -15 CURVE SMOOTH"
);
},
{
closed = 1;
nodes = (
"204 40 OFFCURVE",
"112 134 OFFCURVE",
"112 245 CURVE SMOOTH",
"112 356 OFFCURVE",
"204 450 OFFCURVE",
"312 450 CURVE SMOOTH",
"420 450 OFFCURVE",
"512 356 OFFCURVE",
"512 245 CURVE SMOOTH",
"512 134 OFFCURVE",
"420 40 OFFCURVE",
"312 40 CURVE SMOOTH"
);
},
{
closed = 1;
nodes = (
"574 471 LINE",
"574 490 LINE",
"523 490 LINE",
"50 19 LINE",
"50 0 LINE",
"101 0 LINE"
);
}
);
width = 624;
}
);
leftKerningGroup = o;
leftMetricsKey = o;
rightKerningGroup = o;
rightMetricsKey = o;
unicode = 00F8;
},
{
glyphname = oe;
lastChange = "2017-06-02 12:56:05 +0000";
layers = (
{
layerId = "631A315E-0C3F-4988-8BF6-333737037850";
paths = (
{
closed = 1;
nodes = (
"441 -15 OFFCURVE",
"560 104 OFFCURVE",
"560 250 CURVE SMOOTH",
"560 396 OFFCURVE",
"441 515 OFFCURVE",
"295 515 CURVE SMOOTH",
"149 515 OFFCURVE",
"30 396 OFFCURVE",
"30 250 CURVE SMOOTH",
"30 104 OFFCURVE",
"149 -15 OFFCURVE",
"295 -15 CURVE SMOOTH"
);
},
{
closed = 1;
nodes = (
"232 131 OFFCURVE",
"181 185 OFFCURVE",
"181 250 CURVE SMOOTH",
"181 315 OFFCURVE",
"232 369 OFFCURVE",
"295 369 CURVE SMOOTH",
"358 369 OFFCURVE",
"409 315 OFFCURVE",
"409 250 CURVE SMOOTH",
"409 185 OFFCURVE",
"358 131 OFFCURVE",
"295 131 CURVE SMOOTH"
);
},
{
closed = 1;
nodes = (
"790 -15 OFFCURVE",
"889 60 OFFCURVE",
"925 164 CURVE",
"753 164 LINE",
"732 144 OFFCURVE",
"704 131 OFFCURVE",
"674 131 CURVE SMOOTH",
"611 131 OFFCURVE",
"560 185 OFFCURVE",
"560 250 CURVE SMOOTH",
"560 320 OFFCURVE",
"611 377 OFFCURVE",
"674 377 CURVE SMOOTH",
"737 377 OFFCURVE",
"788 320 OFFCURVE",
"788 250 CURVE SMOOTH",
"788 238 OFFCURVE",
"786 226 OFFCURVE",
"783 215 CURVE",
"937 215 LINE",
"938 226 OFFCURVE",
"939 238 OFFCURVE",
"939 250 CURVE SMOOTH",
"939 396 OFFCURVE",
"820 515 OFFCURVE",
"674 515 CURVE SMOOTH",
"528 515 OFFCURVE",
"409 396 OFFCURVE",
"409 250 CURVE SMOOTH",
"409 104 OFFCURVE",
"528 -15 OFFCURVE",
"674 -15 CURVE SMOOTH"
);
},
{
closed = 1;
nodes = (
"830 215 LINE",
"830 306 LINE",
"530 306 LINE",
"530 215 LINE"
);
}
);
width = 969;
},
{
layerId = "3129A168-24FD-451B-9986-F27775A960CA";
paths = (
{
closed = 1;
nodes = (
"433 -15 OFFCURVE",
"550 102 OFFCURVE",
"550 245 CURVE SMOOTH",
"550 389 OFFCURVE",
"433 506 OFFCURVE",
"290 505 CURVE SMOOTH",
"147 504 OFFCURVE",
"30 387 OFFCURVE",
"30 245 CURVE SMOOTH",
"30 102 OFFCURVE",
"147 -15 OFFCURVE",
"290 -15 CURVE SMOOTH"
);
},
{
closed = 1;
nodes = (
"178 36 OFFCURVE",
"86 130 OFFCURVE",
"86 245 CURVE SMOOTH",
"86 360 OFFCURVE",
"178 454 OFFCURVE",
"290 454 CURVE SMOOTH",
"402 454 OFFCURVE",
"494 360 OFFCURVE",
"494 245 CURVE SMOOTH",
"494 130 OFFCURVE",
"402 36 OFFCURVE",
"290 36 CURVE SMOOTH"
);
},
{
closed = 1;
nodes = (
"851 -15 OFFCURVE",
"936 39 OFFCURVE",
"981 118 CURVE",
"916 118 LINE",
"879 68 OFFCURVE",
"820 36 OFFCURVE",
"754 36 CURVE SMOOTH",
"642 36 OFFCURVE",
"550 130 OFFCURVE",
"550 245 CURVE SMOOTH",
"550 360 OFFCURVE",
"642 454 OFFCURVE",
"754 454 CURVE SMOOTH",
"866 454 OFFCURVE",
"958 360 OFFCURVE",
"958 245 CURVE SMOOTH",
"958 235 OFFCURVE",
"957 225 OFFCURVE",
"956 215 CURVE",
"1012 215 LINE",
"1013 225 OFFCURVE",
"1014 235 OFFCURVE",
"1014 245 CURVE SMOOTH",
"1014 389 OFFCURVE",
"897 506 OFFCURVE",
"754 505 CURVE SMOOTH",
"611 504 OFFCURVE",
"494 387 OFFCURVE",
"494 245 CURVE SMOOTH",
"494 102 OFFCURVE",
"611 -15 OFFCURVE",
"754 -15 CURVE SMOOTH"
);
},
{
closed = 1;
nodes = (
"996 215 LINE",
"996 266 LINE",
"525 266 LINE",
"525 215 LINE"
);
}
);
width = 1044;
}
);
unicode = 0153;
},
{
glyphname = p;
lastChange = "2018-10-02 10:57:43 +0000";
layers = (
{
anchors = (
{
name = bottom;
position = "{323, 0}";
},
{
name = top;
position = "{323, 500}";
}
);
background = {
guideLines = (
{
position = "{212, 49}";
},
{
position = "{219, 28}";
}
);
paths = (
{
closed = 1;
nodes = (
"226 -230 LINE",
"226 64 LINE",
"212 54 LINE",
"219 33 OFFCURVE",
"277 -10 OFFCURVE",
"348 -10 CURVE SMOOTH",
"473 -10 OFFCURVE",
"600 101 OFFCURVE",
"600 261 CURVE SMOOTH",
"600 391 OFFCURVE",
"516 510 OFFCURVE",
"374 510 CURVE SMOOTH",
"284 510 OFFCURVE",
"210 454 OFFCURVE",
"205 411 CURVE",
"223 417 LINE",
"223 500 LINE",
"70 500 LINE",
"70 -230 LINE"
);
},
{
closed = 1;
nodes = (
"283 136 OFFCURVE",
"245 161 OFFCURVE",
"226 198 CURVE",
"226 302 LINE",
"245 339 OFFCURVE",
"283 364 OFFCURVE",
"331 364 CURVE SMOOTH",
"399 364 OFFCURVE",
"450 313 OFFCURVE",
"450 250 CURVE SMOOTH",
"450 187 OFFCURVE",
"399 136 OFFCURVE",
"331 136 CURVE SMOOTH"
);
}
);
};
guideLines = (
{
position = "{210, 459}";
},
{
position = "{590, 396}";
},
{
angle = 90;
position = "{506, 515}";
},
{
position = "{590, 261}";
},
{
position = "{590, 96}";
},
{
position = "{212, 49}";
},
{
position = "{219, 28}";
}
);
layerId = "631A315E-0C3F-4988-8BF6-333737037850";
paths = (
{
closed = 1;
nodes = (
"226 -230 LINE",
"226 59 LINE",
"212 49 LINE",
"219 28 OFFCURVE",
"278 -8 OFFCURVE",
"347 -8 CURVE SMOOTH",
"464 -8 OFFCURVE",
"590 96 OFFCURVE",
"590 261 CURVE SMOOTH",
"590 396 OFFCURVE",
"506 508 OFFCURVE",
"373 508 CURVE SMOOTH",
"285 508 OFFCURVE",
"210 459 OFFCURVE",
"205 416 CURVE",
"223 422 LINE",
"223 500 LINE",
"70 500 LINE",
"70 -230 LINE"
);
},
{
closed = 1;
nodes = (
"283 131 OFFCURVE",
"245 156 OFFCURVE",
"226 193 CURVE",
"226 307 LINE",
"245 344 OFFCURVE",
"283 369 OFFCURVE",
"326 369 CURVE SMOOTH",
"389 369 OFFCURVE",
"440 315 OFFCURVE",
"440 250 CURVE SMOOTH",
"440 185 OFFCURVE",
"389 131 OFFCURVE",
"326 131 CURVE SMOOTH"
);
}
);
width = 630;
},
{
anchors = (
{
name = bottom;
position = "{321, 0}";
},
{
name = top;
position = "{321, 490}";
}
);
layerId = "3129A168-24FD-451B-9986-F27775A960CA";
paths = (
{
closed = 1;
nodes = (
"135 -200 LINE",
"135 101 LINE",
"115 78 LINE",
"163 21 OFFCURVE",
"233 -16 OFFCURVE",
"314 -15 CURVE SMOOTH",
"460 -13 OFFCURVE",
"574 106 OFFCURVE",
"574 246 CURVE SMOOTH",
"574 388 OFFCURVE",
"457 505 OFFCURVE",
"314 505 CURVE SMOOTH",
"234 505 OFFCURVE",
"163 469 OFFCURVE",
"115 412 CURVE",
"135 388 LINE",
"135 490 LINE",
"79 490 LINE",
"79 -200 LINE"
);
},
{
closed = 1;
nodes = (
"243 40 OFFCURVE",
"172 76 OFFCURVE",
"135 135 CURVE",
"135 353 LINE",
"170 409 OFFCURVE",
"238 450 OFFCURVE",
"312 450 CURVE SMOOTH",
"425 450 OFFCURVE",
"516 356 OFFCURVE",
"516 245 CURVE SMOOTH",
"516 134 OFFCURVE",
"425 40 OFFCURVE",
"313 40 CURVE SMOOTH"
);
}
);
width = 624;
}
);
leftMetricsKey = n;
rightKerningGroup = o;
rightMetricsKey = o;
unicode = 0070;
},
{
glyphname = thorn;
lastChange = "2016-06-27 07:51:32 +0000";
layers = (
{
layerId = "631A315E-0C3F-4988-8BF6-333737037850";
paths = (
{
closed = 1;
nodes = (
"253 439 OFFCURVE",
"208 426 OFFCURVE",
"186 410 CURVE",
"186 500 LINE",
"40 500 LINE",
"40 -200 LINE",
"186 -200 LINE",
"186 -62 LINE",
"208 -78 OFFCURVE",
"253 -91 OFFCURVE",
"285 -91 CURVE SMOOTH",
"431 -91 OFFCURVE",
"550 28 OFFCURVE",
"550 174 CURVE SMOOTH",
"550 320 OFFCURVE",
"431 439 OFFCURVE",
"285 439 CURVE SMOOTH"
);
},
{
closed = 1;
nodes = (
"250 50 OFFCURVE",
"205 75 OFFCURVE",
"186 106 CURVE",
"186 242 LINE",
"205 273 OFFCURVE",
"250 298 OFFCURVE",
"285 298 CURVE SMOOTH",
"350 298 OFFCURVE",
"404 242 OFFCURVE",
"404 174 CURVE SMOOTH",
"404 106 OFFCURVE",
"350 50 OFFCURVE",
"285 50 CURVE SMOOTH"
);
}
);
width = 580;
},
{
layerId = "3129A168-24FD-451B-9986-F27775A960CA";
paths = (
{
closed = 1;
nodes = (
"206 425 OFFCURVE",
"143 398 OFFCURVE",
"96 353 CURVE",
"96 490 LINE",
"40 490 LINE",
"40 -200 LINE",
"96 -200 LINE",
"96 -24 LINE",
"143 -68 OFFCURVE",
"206 -96 OFFCURVE",
"275 -95 CURVE SMOOTH",
"418 -93 OFFCURVE",
"535 23 OFFCURVE",
"535 165 CURVE SMOOTH",
"535 308 OFFCURVE",
"418 425 OFFCURVE",
"275 425 CURVE SMOOTH"
);
},
{
closed = 1;
nodes = (
"198 -44 OFFCURVE",
"131 0 OFFCURVE",
"96 65 CURVE",
"96 265 LINE",
"131 330 OFFCURVE",
"198 374 OFFCURVE",
"275 374 CURVE SMOOTH",
"387 374 OFFCURVE",
"479 280 OFFCURVE",
"479 165 CURVE SMOOTH",
"479 50 OFFCURVE",
"387 -44 OFFCURVE",
"275 -44 CURVE SMOOTH"
);
}
);
width = 565;
}
);
unicode = 00FE;
},
{
glyphname = q;
lastChange = "2018-10-01 11:21:30 +0000";
layers = (
{
anchors = (
{
name = bottom;
position = "{307, 0}";
},
{
name = top;
position = "{307, 500}";
}
);
background = {
paths = (
{
closed = 1;
nodes = (
"365 -15 OFFCURVE",
"409 38 OFFCURVE",
"424 83 CURVE",
"404 79 LINE",
"404 0 LINE",
"560 0 LINE",
"560 500 LINE",
"407 500 LINE",
"407 421 LINE",
"425 418 LINE",
"423 450 OFFCURVE",
"381 515 OFFCURVE",
"283 515 CURVE SMOOTH",
"173 515 OFFCURVE",
"35 410 OFFCURVE",
"35 244 CURVE SMOOTH",
"35 110 OFFCURVE",
"115 -15 OFFCURVE",
"267 -15 CURVE SMOOTH"
);
},
{
closed = 1;
nodes = (
"246 131 OFFCURVE",
"195 183 OFFCURVE",
"195 254 CURVE SMOOTH",
"195 320 OFFCURVE",
"238 373 OFFCURVE",
"303 373 CURVE SMOOTH",
"354 373 OFFCURVE",
"392 341 OFFCURVE",
"409 307 CURVE",
"409 193 LINE",
"390 156 OFFCURVE",
"352 131 OFFCURVE",
"309 131 CURVE SMOOTH"
);
}
);
};
guideLines = (
{
position = "{331, 500}";
}
);
layerId = "631A315E-0C3F-4988-8BF6-333737037850";
paths = (
{
closed = 1;
nodes = (
"560 -230 LINE",
"560 500 LINE",
"407 500 LINE",
"407 421 LINE",
"425 407 LINE",
"425 434 OFFCURVE",
"391 508 OFFCURVE",
"278 508 CURVE SMOOTH",
"161 508 OFFCURVE",
"40 405 OFFCURVE",
"40 237 CURVE SMOOTH",
"40 97 OFFCURVE",
"124 -8 OFFCURVE",
"259 -8 CURVE SMOOTH",
"339 -8 OFFCURVE",
"402 24 OFFCURVE",
"420 63 CURVE",
"404 59 LINE",
"404 -230 LINE"
);
},
{
closed = 1;
nodes = (
"241 131 OFFCURVE",
"190 182 OFFCURVE",
"190 255 CURVE SMOOTH",
"190 320 OFFCURVE",
"231 373 OFFCURVE",
"300 373 CURVE SMOOTH",
"353 373 OFFCURVE",
"386 341 OFFCURVE",
"404 307 CURVE",
"404 193 LINE",
"385 156 OFFCURVE",
"347 131 OFFCURVE",
"304 131 CURVE SMOOTH"
);
}
);
width = 630;
},
{
anchors = (
{
name = bottom;
position = "{303, 0}";
},
{
name = top;
position = "{303, 490}";
}
);
layerId = "3129A168-24FD-451B-9986-F27775A960CA";
paths = (
{
closed = 1;
nodes = (
"546 -200 LINE",
"546 490 LINE",
"490 490 LINE",
"490 387 LINE",
"510 411 LINE",
"462 469 OFFCURVE",
"390 505 OFFCURVE",
"310 505 CURVE SMOOTH",
"167 505 OFFCURVE",
"50 388 OFFCURVE",
"50 246 CURVE SMOOTH",
"50 102 OFFCURVE",
"169 -14 OFFCURVE",
"310 -15 CURVE SMOOTH",
"390 -16 OFFCURVE",
"462 21 OFFCURVE",
"510 79 CURVE",
"490 102 LINE",
"490 -200 LINE"
);
},
{
closed = 1;
nodes = (
"201 40 OFFCURVE",
"110 134 OFFCURVE",
"110 245 CURVE SMOOTH",
"110 356 OFFCURVE",
"201 450 OFFCURVE",
"312 450 CURVE SMOOTH",
"385 450 OFFCURVE",
"455 410 OFFCURVE",
"490 353 CURVE",
"490 137 LINE",
"456 81 OFFCURVE",
"385 40 OFFCURVE",
"312 40 CURVE SMOOTH"
);
}
);
width = 625;
}
);
leftKerningGroup = o;
leftMetricsKey = o;
rightMetricsKey = "=|n";
unicode = 0071;
},
{
glyphname = r;
lastChange = "2019-03-25 10:22:28 +0000";
layers = (
{
anchors = (
{
name = bottom;
position = "{238, 0}";
},
{
name = top;
position = "{238, 500}";
}
);
background = {
paths = (
{
closed = 1;
nodes = (
"226 220 LINE",
"226 299 OFFCURVE",
"302 364 OFFCURVE",
"395 364 CURVE",
"395 515 LINE",
"216 515 OFFCURVE",
"70 382 OFFCURVE",
"70 220 CURVE"
);
},
{
closed = 1;
nodes = (
"226 0 LINE",
"226 500 LINE",
"70 500 LINE",
"70 0 LINE"
);
}
);
};
guideLines = (
{
angle = 90;
position = "{395, 559}";
}
);
layerId = "631A315E-0C3F-4988-8BF6-333737037850";
paths = (
{
closed = 1;
nodes = (
"226 500 LINE",
"70 500 LINE",
"70 0 LINE",
"226 0 LINE",
"226 222 LINE SMOOTH",
"226 277 OFFCURVE",
"280 364 OFFCURVE",
"395 364 CURVE",
"395 515 LINE",
"291 515 OFFCURVE",
"211 387 OFFCURVE",
"199 344 CURVE",
"226 356 LINE"
);
}
);
width = 425;
},
{
anchors = (
{
name = bottom;
position = "{189, 0}";
},
{
name = top;
position = "{189, 490}";
}
);
background = {
paths = (
{
closed = 1;
nodes = (
"135 490 LINE",
"79 490 LINE",
"79 0 LINE",
"135 0 LINE",
"135 292 LINE SMOOTH",
"135 364 OFFCURVE",
"213 450 OFFCURVE",
"309 450 CURVE",
"309 505 LINE",
"228 504 OFFCURVE",
"150 445 OFFCURVE",
"117 371 CURVE",
"135 378 LINE"
);
}
);
};
layerId = "3129A168-24FD-451B-9986-F27775A960CA";
paths = (
{
closed = 1;
nodes = (
"135 490 LINE",
"79 490 LINE",
"79 0 LINE",
"135 0 LINE",
"135 292 LINE SMOOTH",
"135 364 OFFCURVE",
"213 450 OFFCURVE",
"309 450 CURVE",
"309 505 LINE",
"228 504 OFFCURVE",
"150 445 OFFCURVE",
"117 356 CURVE",
"135 363 LINE"
);
}
);
width = 339;
}
);
leftMetricsKey = n;
unicode = 0072;
},
{
glyphname = s;
lastChange = "2018-10-01 11:04:34 +0000";
layers = (
{
anchors = (
{
name = bottom;
position = "{258, 0}";
},
{
name = top;
position = "{258, 500}";
}
);
background = {
paths = (
{
closed = 1;
nodes = (
"382 -15 OFFCURVE",
"485 62 OFFCURVE",
"484 158 CURVE",
"485 353 OFFCURVE",
"212 292 OFFCURVE",
"212 352 CURVE SMOOTH",
"212 370 OFFCURVE",
"235 388 OFFCURVE",
"264 388 CURVE SMOOTH",
"292 388 OFFCURVE",
"316 371 OFFCURVE",
"316 351 CURVE",
"471 351 LINE",
"471 441 OFFCURVE",
"377 515 OFFCURVE",
"263 515 CURVE SMOOTH",
"155 515 OFFCURVE",
"57 449 OFFCURVE",
"57 342 CURVE SMOOTH",
"57 165 OFFCURVE",
"329 214 OFFCURVE",
"329 155 CURVE SMOOTH",
"329 135 OFFCURVE",
"298 112 OFFCURVE",
"260 112 CURVE SMOOTH",
"221 112 OFFCURVE",
"191 136 OFFCURVE",
"192 165 CURVE",
"37 165 LINE",
"36 67 OFFCURVE",
"134 -15 OFFCURVE",
"260 -15 CURVE SMOOTH"
);
}
);
};
guideLines = (
{
position = "{191, 158}";
}
);
layerId = "631A315E-0C3F-4988-8BF6-333737037850";
paths = (
{
closed = 1;
nodes = (
"382 -15 OFFCURVE",
"485 62 OFFCURVE",
"484 158 CURVE",
"485 354 OFFCURVE",
"212 289 OFFCURVE",
"212 354 CURVE SMOOTH",
"212 373 OFFCURVE",
"234 393 OFFCURVE",
"264 393 CURVE SMOOTH",
"292 393 OFFCURVE",
"316 376 OFFCURVE",
"316 351 CURVE",
"471 351 LINE",
"471 441 OFFCURVE",
"377 515 OFFCURVE",
"263 515 CURVE SMOOTH",
"155 515 OFFCURVE",
"57 449 OFFCURVE",
"57 342 CURVE SMOOTH",
"57 164 OFFCURVE",
"329 217 OFFCURVE",
"329 153 CURVE SMOOTH",
"329 132 OFFCURVE",
"299 107 OFFCURVE",
"260 107 CURVE SMOOTH",
"221 107 OFFCURVE",
"191 131 OFFCURVE",
"192 165 CURVE",
"37 165 LINE",
"36 67 OFFCURVE",
"134 -15 OFFCURVE",
"260 -15 CURVE SMOOTH"
);
}
);
width = 522;
},
{
anchors = (
{
name = bottom;
position = "{235, 0}";
},
{
name = top;
position = "{235, 490}";
}
);
layerId = "3129A168-24FD-451B-9986-F27775A960CA";
paths = (
{
closed = 1;
nodes = (
"339 -15 OFFCURVE",
"423 53 OFFCURVE",
"422 136 CURVE",
"422 297 OFFCURVE",
"129 232 OFFCURVE",
"129 359 CURVE SMOOTH",
"129 410 OFFCURVE",
"177 450 OFFCURVE",
"238 450 CURVE SMOOTH",
"300 450 OFFCURVE",
"349 409 OFFCURVE",
"349 363 CURVE",
"407 363 LINE",
"407 441 OFFCURVE",
"332 505 OFFCURVE",
"239 505 CURVE SMOOTH",
"152 505 OFFCURVE",
"71 449 OFFCURVE",
"71 355 CURVE SMOOTH",
"71 177 OFFCURVE",
"364 236 OFFCURVE",
"364 131 CURVE SMOOTH",
"364 86 OFFCURVE",
"310 40 OFFCURVE",
"238 40 CURVE SMOOTH",
"160 40 OFFCURVE",
"103 94 OFFCURVE",
"105 144 CURVE",
"47 144 LINE",
"46 57 OFFCURVE",
"131 -15 OFFCURVE",
"236 -15 CURVE SMOOTH"
);
}
);
width = 470;
}
);
leftKerningGroup = o;
leftMetricsKey = "=o-3";
rightKerningGroup = o;
rightMetricsKey = "=o-2";
unicode = 0073;
},
{
glyphname = germandbls;
lastChange = "2019-06-13 09:16:40 +0000";
layers = (
{
layerId = "631A315E-0C3F-4988-8BF6-333737037850";
paths = (
{
closed = 1;
nodes = (
"605 72 OFFCURVE",
"523 -8 OFFCURVE",
"350 -8 CURVE SMOOTH",
"331 -8 OFFCURVE",
"308 -7 OFFCURVE",
"275 -6 CURVE",
"275 143 LINE",
"329 143 LINE SMOOTH",
"410 143 OFFCURVE",
"449 160 OFFCURVE",
"449 210 CURVE SMOOTH",
"449 259 OFFCURVE",
"413 276 OFFCURVE",
"355 276 CURVE SMOOTH",
"287 276 LINE",
"287 407 LINE",
"365 422 OFFCURVE",
"394 458 OFFCURVE",
"394 495 CURVE SMOOTH",
"394 538 OFFCURVE",
"354 565 OFFCURVE",
"302 565 CURVE SMOOTH",
"224 565 OFFCURVE",
"196 503 OFFCURVE",
"196 408 CURVE SMOOTH",
"196 0 LINE",
"40 0 LINE",
"40 416 LINE SMOOTH",
"40 605 OFFCURVE",
"129 716 OFFCURVE",
"295 716 CURVE SMOOTH",
"444 716 OFFCURVE",
"544 626 OFFCURVE",
"550 508 CURVE SMOOTH",
"553 445 OFFCURVE",
"531 393 OFFCURVE",
"480 370 CURVE",
"559 348 OFFCURVE",
"605 298 OFFCURVE",
"605 201 CURVE SMOOTH"
);
}
);
width = 645;
},
{
layerId = "3129A168-24FD-451B-9986-F27775A960CA";
paths = (
{
closed = 1;
nodes = (
"570 63 OFFCURVE",
"473 0 OFFCURVE",
"269 0 CURVE SMOOTH",
"267 0 OFFCURVE",
"260 0 OFFCURVE",
"260 0 CURVE",
"260 51 LINE",
"327 51 LINE SMOOTH",
"418 51 OFFCURVE",
"514 91 OFFCURVE",
"514 184 CURVE SMOOTH",
"514 277 OFFCURVE",
"420 316 OFFCURVE",
"327 316 CURVE",
"272 316 LINE",
"272 367 LINE",
"375 367 OFFCURVE",
"459 418 OFFCURVE",
"459 508 CURVE SMOOTH",
"459 588 OFFCURVE",
"393 665 OFFCURVE",
"300 665 CURVE SMOOTH",
"187 665 OFFCURVE",
"131 552 OFFCURVE",
"131 412 CURVE SMOOTH",
"131 0 LINE",
"75 0 LINE",
"75 412 LINE SMOOTH",
"75 579 OFFCURVE",
"155 716 OFFCURVE",
"300 716 CURVE SMOOTH",
"422 716 OFFCURVE",
"515 618 OFFCURVE",
"515 505 CURVE SMOOTH",
"515 434 OFFCURVE",
"479 387 OFFCURVE",
"418 357 CURVE",
"501 333 OFFCURVE",
"570 273 OFFCURVE",
"570 177 CURVE SMOOTH"
);
}
);
width = 630;
}
);
unicode = 00DF;
},
{
glyphname = t;
lastChange = "2018-10-02 11:20:37 +0000";
layers = (
{
anchors = (
{
name = bottom;
position = "{268, 0}";
},
{
name = center;
position = "{208, 250}";
},
{
name = top;
position = "{208, 500}";
},
{
name = topright;
position = "{395, 500}";
}
);
background = {
paths = (
{
closed = 1;
nodes = (
"254 158 LINE",
"254 662 LINE",
"108 620 LINE",
"108 158 LINE"
);
},
{
closed = 1;
nodes = (
"317 126 LINE",
"282 126 OFFCURVE",
"254 140 OFFCURVE",
"254 158 CURVE",
"108 158 LINE",
"108 63 OFFCURVE",
"202 -15 OFFCURVE",
"317 -15 CURVE"
);
},
{
closed = 1;
nodes = (
"385 -15 LINE",
"355 126 LINE",
"317 126 LINE",
"317 -15 LINE"
);
},
{
closed = 1;
nodes = (
"254 359 LINE",
"359 379 LINE",
"359 500 LINE",
"30 500 LINE",
"30 379 LINE",
"108 359 LINE"
);
}
);
};
guideLines = (
{
position = "{108, 359}";
},
{
position = "{254, 359}";
}
);
layerId = "631A315E-0C3F-4988-8BF6-333737037850";
paths = (
{
closed = 1;
nodes = (
"384 -10 LINE",
"353 136 LINE",
"316 136 LINE SMOOTH",
"283 136 OFFCURVE",
"256 154 OFFCURVE",
"256 176 CURVE SMOOTH",
"256 359 LINE",
"359 379 LINE",
"359 500 LINE",
"256 500 LINE",
"256 662 LINE",
"105 619 LINE",
"105 500 LINE",
"30 500 LINE",
"30 379 LINE",
"105 359 LINE",
"105 176 LINE SMOOTH",
"105 74 OFFCURVE",
"200 -10 OFFCURVE",
"316 -10 CURVE SMOOTH"
);
}
);
width = 438;
},
{
anchors = (
{
name = bottom;
position = "{180, 0}";
},
{
name = center;
position = "{180, 245}";
},
{
name = top;
position = "{180, 490}";
},
{
name = topright;
position = "{329, 490}";
}
);
layerId = "3129A168-24FD-451B-9986-F27775A960CA";
paths = (
{
closed = 1;
nodes = (
"319 -15 LINE",
"308 36 LINE",
"299 36 LINE SMOOTH",
"240 36 OFFCURVE",
"192 71 OFFCURVE",
"192 113 CURVE SMOOTH",
"192 439 LINE",
"308 452 LINE",
"308 490 LINE",
"192 490 LINE",
"192 644 LINE",
"136 628 LINE",
"136 490 LINE",
"40 490 LINE",
"40 452 LINE",
"136 439 LINE",
"136 113 LINE SMOOTH",
"136 43 OFFCURVE",
"210 -15 OFFCURVE",
"299 -15 CURVE SMOOTH"
);
}
);
width = 376;
}
);
leftMetricsKey = "=f";
unicode = 0074;
},
{
glyphname = tcaron;
lastChange = "2016-06-27 08:22:32 +0000";
layers = (
{
layerId = "631A315E-0C3F-4988-8BF6-333737037850";
paths = (
{
closed = 1;
nodes = (
"317 141 LINE SMOOTH",
"282 141 OFFCURVE",
"254 155 OFFCURVE",
"254 173 CURVE SMOOTH",
"254 359 LINE",
"359 379 LINE",
"359 500 LINE",
"254 500 LINE",
"254 683 LINE",
"108 683 LINE",
"108 500 LINE",
"30 500 LINE",
"30 379 LINE",
"108 359 LINE",
"108 173 LINE SMOOTH",
"108 78 OFFCURVE",
"202 0 OFFCURVE",
"317 0 CURVE SMOOTH",
"385 0 LINE",
"355 141 LINE"
);
},
{
closed = 1;
nodes = (
"283 579 LINE",
"387 579 LINE",
"478 730 LINE",
"338 730 LINE"
);
}
);
width = 480;
},
{
layerId = "3129A168-24FD-451B-9986-F27775A960CA";
paths = (
{
closed = 1;
nodes = (
"289 36 LINE SMOOTH",
"230 36 OFFCURVE",
"182 71 OFFCURVE",
"182 113 CURVE SMOOTH",
"182 439 LINE",
"298 452 LINE",
"298 490 LINE",
"182 490 LINE",
"182 700 LINE",
"126 700 LINE",
"126 490 LINE",
"30 490 LINE",
"30 452 LINE",
"126 439 LINE",
"126 113 LINE SMOOTH",
"126 43 OFFCURVE",
"200 -15 OFFCURVE",
"289 -15 CURVE SMOOTH",
"309 -15 LINE",
"298 36 LINE"
);
},
{
closed = 1;
nodes = (
"220 556 LINE",
"269 556 LINE",
"340 707 LINE",
"275 707 LINE"
);
}
);
width = 370;
}
);
unicode = 0165;
},
{
glyphname = u;
lastChange = "2018-10-02 10:58:01 +0000";
layers = (
{
anchors = (
{
name = bottom;
position = "{326, 0}";
},
{
name = ogonek;
position = "{630, 10}";
},
{
name = top;
position = "{326, 500}";
},
{
name = topright;
position = "{601, 500}";
}
);
background = {
paths = (
{
closed = 1;
nodes = (
"367 -15 OFFCURVE",
"403 -4 OFFCURVE",
"435 17 CURVE",
"435 0 LINE",
"591 0 LINE",
"591 500 LINE",
"435 500 LINE",
"435 187 LINE",
"412 155 OFFCURVE",
"373 136 OFFCURVE",
"331 136 CURVE SMOOTH",
"271 136 OFFCURVE",
"222 187 OFFCURVE",
"222 250 CURVE SMOOTH",
"222 500 LINE",
"66 500 LINE",
"66 250 LINE SMOOTH",
"66 104 OFFCURVE",
"185 -15 OFFCURVE",
"331 -15 CURVE SMOOTH"
);
}
);
};
layerId = "631A315E-0C3F-4988-8BF6-333737037850";
paths = (
{
closed = 1;
nodes = (
"366 -8 OFFCURVE",
"408 26 OFFCURVE",
"456 85 CURVE",
"430 84 LINE",
"430 0 LINE",
"586 0 LINE",
"586 500 LINE",
"430 500 LINE",
"430 200 LINE",
"416 159 OFFCURVE",
"376 115 OFFCURVE",
"309 115 CURVE SMOOTH",
"258 115 OFFCURVE",
"222 144 OFFCURVE",
"222 250 CURVE SMOOTH",
"222 500 LINE",
"66 500 LINE",
"66 230 LINE SMOOTH",
"66 59 OFFCURVE",
"131 -8 OFFCURVE",
"262 -8 CURVE SMOOTH"
);
}
);
width = 656;
},
{
anchors = (
{
name = bottom;
position = "{300, 0}";
},
{
name = ogonek;
position = "{567, 23}";
},
{
name = top;
position = "{300, 490}";
},
{
name = topright;
position = "{545, 490}";
}
);
layerId = "3129A168-24FD-451B-9986-F27775A960CA";
paths = (
{
closed = 1;
nodes = (
"388 -15 OFFCURVE",
"457 40 OFFCURVE",
"487 99 CURVE",
"469 114 LINE",
"469 0 LINE",
"525 0 LINE",
"525 490 LINE",
"469 490 LINE",
"469 171 LINE",
"469 127 OFFCURVE",
"407 40 OFFCURVE",
"289 40 CURVE SMOOTH",
"212 40 OFFCURVE",
"131 77 OFFCURVE",
"131 210 CURVE SMOOTH",
"131 490 LINE",
"75 490 LINE",
"75 210 LINE SMOOTH",
"75 44 OFFCURVE",
"176 -15 OFFCURVE",
"284 -15 CURVE SMOOTH"
);
}
);
width = 604;
}
);
leftMetricsKey = "=n-4";
rightMetricsKey = "=|n";
unicode = 0075;
},
{
glyphname = v;
lastChange = "2018-10-02 11:17:37 +0000";
layers = (
{
anchors = (
{
name = bottom;
position = "{295, 0}";
},
{
name = top;
position = "{295, 500}";
}
);
background = {
paths = (
{
closed = 1;
nodes = (
"549 412 LINE",
"549 499 LINE",
"426 499 LINE",
"283 128 LINE",
"306 128 LINE",
"163 499 LINE",
"40 499 LINE",
"40 412 LINE",
"202 -1 LINE",
"387 -1 LINE"
);
}
);
};
guideLines = (
{
angle = -68.8129;
position = "{214, 554}";
},
{
angle = 249.0418;
position = "{423, 500}";
}
);
layerId = "631A315E-0C3F-4988-8BF6-333737037850";
paths = (
{
closed = 1;
nodes = (
"389 0 LINE",
"559 436 LINE",
"559 500 LINE",
"430 500 LINE",
"286 99 LINE",
"310 99 LINE",
"166 500 LINE",
"27 500 LINE",
"27 436 LINE",
"196 0 LINE"
);
}
);
width = 589;
},
{
anchors = (
{
name = bottom;
position = "{269, 0}";
},
{
name = top;
position = "{269, 490}";
}
);
guideLines = (
{
angle = 68.1569;
position = "{312, 0}";
}
);
layerId = "3129A168-24FD-451B-9986-F27775A960CA";
paths = (
{
closed = 1;
nodes = (
"307 0 LINE",
"497 474 LINE",
"497 490 LINE",
"446 490 LINE",
"253 9 LINE",
"286 9 LINE",
"93 490 LINE",
"40 490 LINE",
"40 474 LINE",
"230 0 LINE"
);
}
);
width = 537;
}
);
leftKerningGroup = v;
rightKerningGroup = v;
unicode = 0076;
},
{
glyphname = w;
lastChange = "2018-10-02 10:59:46 +0000";
layers = (
{
anchors = (
{
name = bottom;
position = "{423, 0}";
},
{
name = top;
position = "{423, 500}";
}
);
background = {
paths = (
{
closed = 1;
nodes = (
"274 129 LINE",
"160 500 LINE",
"29 500 LINE",
"29 436 LINE",
"168 0 LINE",
"350 0 LINE",
"488 436 LINE",
"488 500 LINE",
"357 500 LINE",
"245 129 LINE"
);
},
{
closed = 1;
nodes = (
"602 129 LINE",
"488 500 LINE",
"357 500 LINE",
"357 436 LINE",
"496 0 LINE",
"678 0 LINE",
"816 436 LINE",
"816 500 LINE",
"685 500 LINE",
"573 129 LINE"
);
}
);
};
guideLines = (
{
position = "{252, 134}";
}
);
layerId = "631A315E-0C3F-4988-8BF6-333737037850";
paths = (
{
closed = 1;
nodes = (
"355 0 LINE",
"427 345 LINE",
"402 345 LINE",
"474 0 LINE",
"672 0 LINE",
"800 436 LINE",
"800 500 LINE",
"674 500 LINE",
"574 91 LINE",
"594 91 LINE",
"492 500 LINE",
"353 500 LINE",
"252 91 LINE",
"273 91 LINE",
"171 500 LINE",
"32 500 LINE",
"32 436 LINE",
"161 0 LINE"
);
}
);
width = 834;
},
{
anchors = (
{
name = bottom;
position = "{392, 0}";
},
{
name = top;
position = "{392, 490}";
}
);
guideLines = (
{
position = "{303, 54}";
}
);
layerId = "3129A168-24FD-451B-9986-F27775A960CA";
paths = (
{
closed = 1;
nodes = (
"268 0 LINE",
"406 460 LINE",
"378 460 LINE",
"515 0 LINE",
"591 0 LINE",
"741 474 LINE",
"741 490 LINE",
"690 490 LINE",
"541 9 LINE",
"572 9 LINE",
"422 490 LINE",
"366 490 LINE",
"217 9 LINE",
"247 9 LINE",
"97 490 LINE",
"42 490 LINE",
"42 474 LINE",
"192 0 LINE"
);
}
);
width = 783;
}
);
unicode = 0077;
},
{
glyphname = x;
lastChange = "2018-10-02 10:58:09 +0000";
layers = (
{
anchors = (
{
name = bottom;
position = "{285, 0}";
},
{
name = top;
position = "{285, 500}";
}
);
background = {
paths = (
{
closed = 1;
nodes = (
"399 0 LINE",
"514 0 LINE",
"514 87 LINE",
"371 276 LINE",
"371 224 LINE",
"514 413 LINE",
"514 500 LINE",
"399 500 LINE",
"266 324 LINE",
"304 324 LINE",
"171 500 LINE",
"56 500 LINE",
"56 413 LINE",
"199 224 LINE",
"199 276 LINE",
"56 87 LINE",
"56 0 LINE",
"171 0 LINE",
"304 176 LINE",
"266 176 LINE"
);
}
);
};
guideLines = (
{
angle = -52.9223;
position = "{534, 69}";
}
);
layerId = "631A315E-0C3F-4988-8BF6-333737037850";
paths = (
{
closed = 1;
nodes = (
"171 0 LINE",
"304 196 LINE",
"266 196 LINE",
"399 0 LINE",
"534 0 LINE",
"534 69 LINE",
"357 290 LINE",
"357 210 LINE",
"534 431 LINE",
"534 500 LINE",
"399 500 LINE",
"266 304 LINE",
"304 304 LINE",
"171 500 LINE",
"36 500 LINE",
"36 431 LINE",
"213 210 LINE",
"213 290 LINE",
"36 69 LINE",
"36 0 LINE"
);
}
);
width = 570;
},
{
anchors = (
{
name = bottom;
position = "{247, 0}";
},
{
name = top;
position = "{247, 490}";
}
);
guideLines = (
{
angle = -52.878;
position = "{450, 19}";
},
{
position = "{41, 19}";
},
{
angle = 52.8777;
position = "{44, 19}";
},
{
angle = -52.878;
position = "{394, 0}";
}
);
layerId = "3129A168-24FD-451B-9986-F27775A960CA";
paths = (
{
closed = 1;
nodes = (
"100 0 LINE",
"275 235 LINE",
"229 235 LINE",
"404 0 LINE",
"459 0 LINE",
"459 19 LINE",
"256 281 LINE",
"256 209 LINE",
"459 471 LINE",
"459 490 LINE",
"404 490 LINE",
"229 255 LINE",
"275 255 LINE",
"100 490 LINE",
"45 490 LINE",
"45 471 LINE",
"248 209 LINE",
"248 281 LINE",
"45 19 LINE",
"45 0 LINE"
);
}
);
width = 504;
}
);
unicode = 0078;
},
{
glyphname = y;
lastChange = "2018-10-02 11:00:03 +0000";
layers = (
{
anchors = (
{
name = bottom;
position = "{321, 0}";
},
{
name = top;
position = "{321, 500}";
}
);
background = {
paths = (
{
closed = 1;
nodes = (
"595 412 LINE",
"595 499 LINE",
"474 499 LINE",
"288 118 LINE",
"341 88 LINE",
"167 499 LINE",
"43 499 LINE",
"43 412 LINE",
"227 0 LINE",
"393 -1 LINE"
);
},
{
closed = 1;
nodes = (
"101 -248 LINE",
"272 -248 LINE",
"393 -1 LINE",
"227 0 LINE"
);
}
);
};
guideLines = (
{
angle = -65.9035;
position = "{157, 500}";
},
{
angle = 245.5758;
position = "{459, 500}";
},
{
angle = 244.3889;
position = "{600, 436}";
}
);
layerId = "631A315E-0C3F-4988-8BF6-333737037850";
paths = (
{
closed = 1;
nodes = (
"280 -231 LINE",
"599 436 LINE",
"599 500 LINE",
"469 500 LINE",
"295 99 LINE",
"327 99 LINE",
"157 500 LINE",
"16 500 LINE",
"16 436 LINE",
"239 -41 LINE",
"245 41 LINE",
"113 -230 LINE"
);
}
);
width = 619;
},
{
anchors = (
{
name = bottom;
position = "{274, 0}";
},
{
name = top;
position = "{274, 490}";
}
);
guideLines = (
{
angle = 246.1048;
position = "{469, 490}";
},
{
angle = -66.1048;
position = "{78, 490}";
},
{
angle = -66.1048;
position = "{25, 474}";
}
);
layerId = "3129A168-24FD-451B-9986-F27775A960CA";
paths = (
{
closed = 1;
nodes = (
"214 -222 LINE",
"522 474 LINE",
"522 490 LINE",
"471 490 LINE",
"262 7 LINE",
"290 7 LINE",
"78 490 LINE",
"25 490 LINE",
"25 474 LINE",
"262 -60 LINE",
"266 22 LINE",
"154 -222 LINE"
);
}
);
width = 552;
}
);
unicode = 0079;
},
{
glyphname = z;
lastChange = "2018-10-02 10:53:51 +0000";
layers = (
{
anchors = (
{
name = bottom;
position = "{262, 0}";
},
{
name = top;
position = "{262, 500}";
}
);
layerId = "631A315E-0C3F-4988-8BF6-333737037850";
paths = (
{
closed = 1;
nodes = (
"456 0 LINE",
"456 130 LINE",
"249 151 LINE",
"469 349 LINE",
"469 500 LINE",
"67 500 LINE",
"67 370 LINE",
"273 349 LINE",
"54 151 LINE",
"54 0 LINE"
);
}
);
width = 523;
},
{
anchors = (
{
name = bottom;
position = "{257, 0}";
},
{
name = top;
position = "{257, 490}";
}
);
background = {
paths = (
{
closed = 1;
nodes = (
"45 141 LINE",
"229 141 LINE",
"460 359 LINE",
"276 359 LINE"
);
},
{
closed = 1;
nodes = (
"58 380 LINE",
"276 359 LINE",
"460 359 LINE",
"460 500 LINE",
"58 500 LINE"
);
},
{
closed = 1;
nodes = (
"447 120 LINE",
"229 141 LINE",
"45 141 LINE",
"45 0 LINE",
"447 0 LINE"
);
}
);
};
guideLines = (
{
angle = 49.8944;
position = "{448, 428}";
}
);
layerId = "3129A168-24FD-451B-9986-F27775A960CA";
paths = (
{
closed = 1;
nodes = (
"436 0 LINE",
"436 45 LINE",
"130 51 LINE",
"448 432 LINE",
"448 490 LINE",
"77 490 LINE",
"77 445 LINE",
"383 439 LINE",
"65 58 LINE",
"65 0 LINE"
);
}
);
width = 513;
}
);
unicode = 007A;
},
{
glyphname = a.sc;
lastChange = "2019-02-27 08:19:12 +0000";
layers = (
{
anchors = (
{
name = bottom;
position = "{356, 0}";
},
{
name = ogonek;
position = "{709, 9}";
},
{
name = top;
position = "{356, 595}";
}
);
background = {
paths = (
{
closed = 1;
nodes = (
"81 122 LINE",
"81 0 LINE",
"208 0 LINE",
"478 700 LINE",
"307 700 LINE"
);
},
{
closed = 1;
nodes = (
"632 144 LINE",
"632 283 LINE",
"172 283 LINE",
"172 144 LINE"
);
},
{
closed = 1;
nodes = (
"302 122 LINE",
"488 122 LINE",
"538 144 LINE",
"252 144 LINE"
);
},
{
closed = 1;
nodes = (
"307 700 LINE",
"577 0 LINE",
"704 0 LINE",
"704 122 LINE",
"478 700 LINE"
);
},
{
closed = 1;
nodes = (
"307 700 LINE",
"81 122 LINE",
"81 0 LINE",
"208 0 LINE",
"262 139 LINE",
"300 122 LINE",
"486 122 LINE",
"524 139 LINE",
"577 0 LINE",
"704 0 LINE",
"704 122 LINE",
"478 700 LINE"
);
},
{
closed = 1;
nodes = (
"318 283 LINE",
"393 478 LINE",
"468 283 LINE"
);
}
);
};
layerId = "631A315E-0C3F-4988-8BF6-333737037850";
paths = (
{
closed = 1;
nodes = (
"197 0 LINE",
"243 109 LINE",
"275 97 LINE",
"437 97 LINE",
"469 109 LINE",
"515 0 LINE",
"659 0 LINE",
"659 58 LINE",
"439 595 LINE",
"273 595 LINE",
"53 58 LINE",
"53 0 LINE"
);
},
{
closed = 1;
nodes = (
"370 409 LINE",
"342 409 LINE",
"415 251 LINE",
"297 251 LINE"
);
}
);
userData = {
RMXScaler = {
adjustSpace = 5;
height = 85;
weight = -8;
width = 90;
};
};
width = 712;
},
{
anchors = (
{
name = bottom;
position = "{316, 0}";
},
{
name = ogonek;
position = "{544, 8}";
},
{
name = top;
position = "{316, 560}";
}
);
layerId = "3129A168-24FD-451B-9986-F27775A960CA";
paths = (
{
closed = 1;
nodes = (
"110 0 LINE",
"173 150 LINE",
"210 128 LINE",
"423 128 LINE",
"460 150 LINE",
"523 0 LINE",
"571 0 LINE",
"571 24 LINE",
"351 560 LINE",
"282 560 LINE",
"62 24 LINE",
"62 0 LINE"
);
},
{
closed = 1;
nodes = (
"333 544 LINE",
"299 544 LINE",
"451 176 LINE",
"182 176 LINE"
);
}
);
userData = {
RMXScaler = {
height = 80;
weight = -5;
width = 84;
};
};
width = 633;
}
);
leftKerningGroup = a.sc;
rightKerningGroup = a.sc;
userData = {
RMXScaler = {
source = A;
};
};
},
{
glyphname = aring.sc;
lastChange = "2017-06-08 08:20:00 +0000";
layers = (
{
layerId = "631A315E-0C3F-4988-8BF6-333737037850";
paths = (
{
closed = 1;
nodes = (
"197 0 LINE",
"243 109 LINE",
"275 97 LINE",
"437 97 LINE",
"469 109 LINE",
"515 0 LINE",
"659 0 LINE",
"659 58 LINE",
"439 595 LINE",
"273 595 LINE",
"53 58 LINE",
"53 0 LINE"
);
},
{
closed = 1;
nodes = (
"370 409 LINE",
"342 409 LINE",
"415 251 LINE",
"297 251 LINE"
);
},
{
closed = 1;
nodes = (
"418 632 OFFCURVE",
"467 681 OFFCURVE",
"467 741 CURVE SMOOTH",
"467 800 OFFCURVE",
"418 848 OFFCURVE",
"357 848 CURVE SMOOTH",
"295 848 OFFCURVE",
"245 800 OFFCURVE",
"245 741 CURVE SMOOTH",
"245 681 OFFCURVE",
"295 632 OFFCURVE",
"357 632 CURVE SMOOTH"
);
},
{
closed = 1;
nodes = (
"340 712 OFFCURVE",
"326 725 OFFCURVE",
"326 741 CURVE SMOOTH",
"326 755 OFFCURVE",
"340 769 OFFCURVE",
"357 769 CURVE SMOOTH",
"373 769 OFFCURVE",
"387 755 OFFCURVE",
"387 741 CURVE SMOOTH",
"387 725 OFFCURVE",
"373 712 OFFCURVE",
"357 712 CURVE SMOOTH"
);
}
);
userData = {
RMXScaler = {
adjustSpace = 5;
height = 85;
weight = -8;
width = 90;
};
};
width = 712;
},
{
layerId = "3129A168-24FD-451B-9986-F27775A960CA";
paths = (
{
closed = 1;
nodes = (
"110 0 LINE",
"174 150 LINE",
"210 128 LINE",
"423 128 LINE",
"460 150 LINE",
"523 0 LINE",
"571 0 LINE",
"571 23 LINE",
"350 560 LINE",
"282 560 LINE",
"62 23 LINE",
"62 0 LINE"
);
},
{
closed = 1;
nodes = (
"335 544 LINE",
"298 544 LINE",
"450 176 LINE",
"183 176 LINE"
);
},
{
closed = 1;
nodes = (
"357 595 OFFCURVE",
"390 627 OFFCURVE",
"390 666 CURVE SMOOTH",
"390 705 OFFCURVE",
"357 737 OFFCURVE",
"317 737 CURVE SMOOTH",
"277 737 OFFCURVE",
"243 705 OFFCURVE",
"243 666 CURVE SMOOTH",
"243 627 OFFCURVE",
"277 595 OFFCURVE",
"317 595 CURVE SMOOTH"
);
},
{
closed = 1;
nodes = (
"298 634 OFFCURVE",
"283 648 OFFCURVE",
"283 666 CURVE SMOOTH",
"283 684 OFFCURVE",
"298 698 OFFCURVE",
"317 698 CURVE SMOOTH",
"335 698 OFFCURVE",
"350 684 OFFCURVE",
"350 666 CURVE SMOOTH",
"350 648 OFFCURVE",
"335 634 OFFCURVE",
"317 634 CURVE SMOOTH"
);
}
);
userData = {
RMXScaler = {
height = 80;
weight = -5;
width = 84;
};
};
width = 633;
}
);
leftKerningGroup = a.sc;
leftMetricsKey = a.sc;
rightKerningGroup = a.sc;
rightMetricsKey = a.sc;
userData = {
RMXScaler = {
source = Aring;
};
};
},
{
glyphname = ae.sc;
lastChange = "2017-06-08 08:20:00 +0000";
layers = (
{
guideLines = (
{
position = "{458, 478}";
},
{
angle = 61.4104;
position = "{88, 122}";
},
{
position = "{89, 61}";
},
{
angle = 62.2684;
position = "{55, 61}";
}
);
layerId = "631A315E-0C3F-4988-8BF6-333737037850";
paths = (
{
closed = 1;
nodes = (
"196 0 LINE",
"263 115 LINE",
"308 97 LINE",
"372 97 LINE",
"418 115 LINE",
"418 0 LINE",
"842 0 LINE",
"842 153 LINE",
"575 153 LINE",
"575 221 LINE",
"721 240 LINE",
"721 356 LINE",
"575 375 LINE",
"575 442 LINE",
"842 442 LINE",
"842 595 LINE",
"354 595 LINE",
"53 57 LINE",
"53 0 LINE"
);
},
{
closed = 1;
nodes = (
"418 387 LINE",
"418 251 LINE",
"333 251 LINE"
);
}
);
userData = {
RMXScaler = {
adjustSpace = 5;
height = 85;
weight = -8;
width = 90;
};
};
width = 912;
},
{
guideLines = (
{
angle = 61.9723;
position = "{127, 0}";
},
{
angle = 90;
position = "{452, 700}";
},
{
angle = 61.9723;
position = "{75, 25}";
},
{
position = "{229, 192}";
}
);
layerId = "3129A168-24FD-451B-9986-F27775A960CA";
paths = (
{
closed = 1;
nodes = (
"110 0 LINE",
"195 150 LINE",
"232 128 LINE",
"343 128 LINE",
"380 150 LINE",
"380 0 LINE",
"775 0 LINE",
"775 51 LINE",
"434 51 LINE",
"434 255 LINE",
"632 262 LINE",
"632 300 LINE",
"434 306 LINE",
"434 509 LINE",
"775 509 LINE",
"775 560 LINE",
"363 560 LINE",
"62 22 LINE",
"62 0 LINE"
);
},
{
closed = 1;
nodes = (
"380 479 LINE",
"380 176 LINE",
"207 176 LINE"
);
}
);
userData = {
RMXScaler = {
height = 80;
weight = -5;
width = 84;
};
};
width = 862;
}
);
leftMetricsKey = a.sc;
rightKerningGroup = e.sc;
rightMetricsKey = e.sc;
userData = {
RMXScaler = {
source = AE;
};
};
},
{
glyphname = b.sc;
lastChange = "2019-01-09 13:26:38 +0000";
layers = (
{
anchors = (
{
name = bottom;
position = "{319, 0}";
},
{
name = top;
position = "{319, 595}";
}
);
background = {
paths = (
{
closed = 1;
nodes = (
"-497 0 LINE",
"-497 700 LINE",
"-663 700 LINE",
"-663 0 LINE"
);
},
{
closed = 1;
nodes = (
"-337 544 OFFCURVE",
"-315 520 OFFCURVE",
"-314 490 CURVE SMOOTH",
"-313 463 OFFCURVE",
"-337 441 OFFCURVE",
"-367 441 CURVE",
"-378 312 LINE",
"-257 312 OFFCURVE",
"-158 392 OFFCURVE",
"-158 490 CURVE SMOOTH",
"-158 606 OFFCURVE",
"-252 700 OFFCURVE",
"-368 700 CURVE",
"-506 700 LINE",
"-506 544 LINE",
"-363 544 LINE"
);
},
{
closed = 1;
nodes = (
"-294 283 OFFCURVE",
"-269 255 OFFCURVE",
"-269 220 CURVE SMOOTH",
"-269 186 OFFCURVE",
"-294 158 OFFCURVE",
"-325 158 CURVE",
"-506 158 LINE",
"-506 0 LINE",
"-328 0 LINE",
"-207 0 OFFCURVE",
"-108 99 OFFCURVE",
"-108 221 CURVE SMOOTH",
"-108 342 OFFCURVE",
"-225 441 OFFCURVE",
"-368 441 CURVE",
"-504 441 LINE",
"-504 283 LINE",
"-325 283 LINE"
);
},
{
closed = 1;
nodes = (
"261 0 LINE",
"261 700 LINE",
"95 700 LINE",
"95 0 LINE"
);
},
{
closed = 1;
nodes = (
"440 544 OFFCURVE",
"462 520 OFFCURVE",
"463 490 CURVE SMOOTH",
"464 459 OFFCURVE",
"455 434 OFFCURVE",
"414 434 CURVE",
"379 305 LINE",
"511 305 OFFCURVE",
"619 388 OFFCURVE",
"619 490 CURVE SMOOTH",
"619 606 OFFCURVE",
"525 700 OFFCURVE",
"409 700 CURVE",
"251 700 LINE",
"251 544 LINE",
"414 544 LINE"
);
},
{
closed = 1;
nodes = (
"463 276 OFFCURVE",
"488 248 OFFCURVE",
"488 213 CURVE SMOOTH",
"488 183 OFFCURVE",
"463 158 OFFCURVE",
"432 158 CURVE",
"251 158 LINE",
"251 0 LINE",
"429 0 LINE",
"550 0 OFFCURVE",
"649 96 OFFCURVE",
"649 214 CURVE SMOOTH",
"649 335 OFFCURVE",
"532 434 OFFCURVE",
"389 434 CURVE",
"253 434 LINE",
"253 276 LINE",
"432 276 LINE"
);
}
);
};
guideLines = (
{
angle = 90;
position = "{414, 544}";
},
{
angle = 90;
position = "{650, 221}";
},
{
angle = 270;
position = "{95, 234}";
},
{
position = "{319, 362}";
}
);
layerId = "631A315E-0C3F-4988-8BF6-333737037850";
paths = (
{
closed = 1;
nodes = (
"394 0 LINE SMOOTH",
"503 0 OFFCURVE",
"591 82 OFFCURVE",
"591 177 CURVE SMOOTH",
"591 254 OFFCURVE",
"533 303 OFFCURVE",
"472 336 CURVE",
"472 296 LINE",
"515 319 OFFCURVE",
"565 362 OFFCURVE",
"565 426 CURVE SMOOTH",
"565 510 OFFCURVE",
"479 595 OFFCURVE",
"375 595 CURVE SMOOTH",
"70 595 LINE",
"70 0 LINE"
);
},
{
closed = 1;
nodes = (
"227 243 LINE",
"397 243 LINE SMOOTH",
"420 243 OFFCURVE",
"438 224 OFFCURVE",
"438 194 CURVE SMOOTH",
"438 164 OFFCURVE",
"420 140 OFFCURVE",
"397 140 CURVE SMOOTH",
"227 140 LINE"
);
},
{
closed = 1;
nodes = (
"227 457 LINE",
"379 457 LINE SMOOTH",
"399 457 OFFCURVE",
"417 443 OFFCURVE",
"417 409 CURVE SMOOTH",
"417 376 OFFCURVE",
"400 353 OFFCURVE",
"379 353 CURVE SMOOTH",
"227 353 LINE"
);
}
);
userData = {
RMXScaler = {
adjustSpace = 5;
height = 85;
weight = -8;
width = 90;
};
};
width = 639;
},
{
anchors = (
{
name = bottom;
position = "{300, 0}";
},
{
name = top;
position = "{300, 560}";
}
);
background = {
paths = (
{
closed = 1;
nodes = (
"417 544 OFFCURVE",
"439 520 OFFCURVE",
"439 490 CURVE SMOOTH",
"439 454 OFFCURVE",
"417 424 OFFCURVE",
"390 424 CURVE",
"355 305 LINE",
"487 305 OFFCURVE",
"595 388 OFFCURVE",
"595 490 CURVE SMOOTH",
"595 606 OFFCURVE",
"501 700 OFFCURVE",
"385 700 CURVE",
"207 700 LINE",
"207 544 LINE",
"390 544 LINE"
);
}
);
};
guideLines = (
{
angle = 90;
position = "{407, -136}";
}
);
layerId = "3129A168-24FD-451B-9986-F27775A960CA";
paths = (
{
closed = 1;
nodes = (
"327 0 LINE SMOOTH",
"434 0 OFFCURVE",
"522 74 OFFCURVE",
"523 164 CURVE SMOOTH",
"524 235 OFFCURVE",
"457 301 OFFCURVE",
"380 318 CURVE",
"382 292 LINE",
"440 307 OFFCURVE",
"493 363 OFFCURVE",
"494 419 CURVE SMOOTH",
"496 496 OFFCURVE",
"419 560 OFFCURVE",
"325 560 CURVE SMOOTH",
"87 560 LINE",
"87 0 LINE"
);
},
{
closed = 1;
nodes = (
"141 280 LINE",
"326 280 LINE SMOOTH",
"404 280 OFFCURVE",
"469 229 OFFCURVE",
"469 165 CURVE SMOOTH",
"469 102 OFFCURVE",
"405 50 OFFCURVE",
"327 50 CURVE SMOOTH",
"141 50 LINE"
);
},
{
closed = 1;
nodes = (
"141 510 LINE",
"325 510 LINE SMOOTH",
"388 510 OFFCURVE",
"440 469 OFFCURVE",
"440 419 CURVE SMOOTH",
"440 366 OFFCURVE",
"389 325 OFFCURVE",
"326 325 CURVE SMOOTH",
"141 325 LINE"
);
}
);
userData = {
RMXScaler = {
height = 80;
weight = -5;
width = 84;
};
};
width = 589;
}
);
leftMetricsKey = n.sc;
rightKerningGroup = o.sc;
rightMetricsKey = o.sc;
userData = {
RMXScaler = {
source = B;
};
};
},
{
glyphname = c.sc;
lastChange = "2017-06-08 08:20:00 +0000";
layers = (
{
anchors = (
{
name = bottom;
position = "{375, 0}";
},
{
name = top;
position = "{375, 595}";
}
);
background = {
paths = (
{
closed = 1;
nodes = (
"545 517 OFFCURVE",
"485 554 OFFCURVE",
"416 554 CURVE",
"306 554 OFFCURVE",
"216 462 OFFCURVE",
"216 350 CURVE",
"216 238 OFFCURVE",
"306 146 OFFCURVE",
"416 146 CURVE",
"498 146 OFFCURVE",
"568 197 OFFCURVE",
"598 269 CURVE",
"771 269 LINE",
"735 107 OFFCURVE",
"589 -15 OFFCURVE",
"416 -15 CURVE",
"214 -15 OFFCURVE",
"49 149 OFFCURVE",
"50 350 CURVE",
"51 551 OFFCURVE",
"216 715 OFFCURVE",
"416 715 CURVE",
"577 715 OFFCURVE",
"715 608 OFFCURVE",
"762 461 CURVE",
"581 461 LINE"
);
}
);
};
guideLines = (
{
position = "{623, 461}";
},
{
angle = -61.5809;
position = "{677, 269}";
},
{
angle = 90;
position = "{564, 701}";
},
{
angle = 61.4293;
position = "{677, 431}";
}
);
layerId = "631A315E-0C3F-4988-8BF6-333737037850";
paths = (
{
closed = 1;
nodes = (
"499 -13 OFFCURVE",
"606 51 OFFCURVE",
"662 144 CURVE",
"610 240 LINE",
"535 240 LINE",
"510 182 OFFCURVE",
"449 141 OFFCURVE",
"377 141 CURVE",
"282 141 OFFCURVE",
"205 211 OFFCURVE",
"205 298 CURVE",
"205 384 OFFCURVE",
"282 454 OFFCURVE",
"377 454 CURVE",
"449 454 OFFCURVE",
"510 413 OFFCURVE",
"535 355 CURVE",
"610 355 LINE",
"662 451 LINE",
"606 544 OFFCURVE",
"499 608 OFFCURVE",
"377 608 CURVE",
"196 608 OFFCURVE",
"47 469 OFFCURVE",
"48 298 CURVE",
"47 127 OFFCURVE",
"196 -13 OFFCURVE",
"377 -13 CURVE"
);
}
);
userData = {
RMXScaler = {
adjustSpace = 5;
height = 85;
weight = -8;
width = 90;
};
};
width = 710;
},
{
anchors = (
{
name = bottom;
position = "{351, 0}";
},
{
name = top;
position = "{351, 560}";
}
);
background = {
paths = (
{
closed = 1;
nodes = (
"691 42 OFFCURVE",
"763 141 CURVE",
"731 198 LINE",
"709 198 LINE",
"658 113 OFFCURVE",
"566 39 OFFCURVE",
"460 39 CURVE SMOOTH",
"299 39 OFFCURVE",
"150 191 OFFCURVE",
"150 350 CURVE SMOOTH",
"150 509 OFFCURVE",
"299 661 OFFCURVE",
"460 661 CURVE SMOOTH",
"566 661 OFFCURVE",
"658 587 OFFCURVE",
"709 502 CURVE",
"731 502 LINE",
"763 559 LINE",
"693 656 OFFCURVE",
"586 713 OFFCURVE",
"459 715 CURVE SMOOTH",
"262 718 OFFCURVE",
"91 547 OFFCURVE",
"91 350 CURVE SMOOTH",
"91 153 OFFCURVE",
"262 -18 OFFCURVE",
"459 -15 CURVE SMOOTH",
"583 -13 OFFCURVE"
);
}
);
};
guideLines = (
{
position = "{709, 502}";
},
{
position = "{709, 198}";
},
{
angle = -65.254;
position = "{737, 198}";
},
{
angle = 65.254;
position = "{737, 502}";
}
);
layerId = "3129A168-24FD-451B-9986-F27775A960CA";
paths = (
{
closed = 1;
nodes = (
"483 -12 OFFCURVE",
"579 44 OFFCURVE",
"634 127 CURVE",
"616 163 LINE",
"592 163 LINE",
"548 90 OFFCURVE",
"465 39 OFFCURVE",
"373 39 CURVE SMOOTH",
"237 39 OFFCURVE",
"120 150 OFFCURVE",
"120 279 CURVE SMOOTH",
"120 410 OFFCURVE",
"237 521 OFFCURVE",
"373 521 CURVE SMOOTH",
"464 521 OFFCURVE",
"547 470 OFFCURVE",
"591 397 CURVE",
"616 397 LINE",
"633 432 LINE",
"579 516 OFFCURVE",
"483 572 OFFCURVE",
"373 572 CURVE SMOOTH",
"204 572 OFFCURVE",
"66 440 OFFCURVE",
"66 279 CURVE SMOOTH",
"66 118 OFFCURVE",
"204 -12 OFFCURVE",
"373 -12 CURVE SMOOTH"
);
}
);
userData = {
RMXScaler = {
height = 80;
weight = -5;
width = 84;
};
};
width = 700;
}
);
leftKerningGroup = o.sc;
leftMetricsKey = o.sc;
rightKerningGroup = o.sc;
rightMetricsKey = o.sc;
userData = {
RMXScaler = {
source = C;
};
};
},
{
glyphname = d.sc;
lastChange = "2017-06-08 08:20:00 +0000";
layers = (
{
anchors = (
{
name = bottom;
position = "{345, 0}";
},
{
name = center;
position = "{170, 298}";
},
{
name = top;
position = "{306, 595}";
}
);
layerId = "631A315E-0C3F-4988-8BF6-333737037850";
paths = (
{
closed = 1;
nodes = (
"491 0 OFFCURVE",
"638 133 OFFCURVE",
"637 298 CURVE",
"636 462 OFFCURVE",
"489 595 OFFCURVE",
"310 595 CURVE",
"310 442 LINE",
"403 442 OFFCURVE",
"479 377 OFFCURVE",
"480 298 CURVE",
"481 218 OFFCURVE",
"404 153 OFFCURVE",
"310 153 CURVE",
"310 0 LINE"
);
},
{
closed = 1;
nodes = (
"310 0 LINE",
"310 153 LINE",
"129 153 LINE",
"129 0 LINE"
);
},
{
closed = 1;
nodes = (
"227 0 LINE",
"227 595 LINE",
"70 595 LINE",
"70 0 LINE"
);
},
{
closed = 1;
nodes = (
"310 442 LINE",
"310 595 LINE",
"129 595 LINE",
"129 442 LINE"
);
}
);
userData = {
RMXScaler = {
adjustSpace = 5;
height = 85;
weight = -8;
width = 90;
};
};
width = 685;
},
{
anchors = (
{
name = bottom;
position = "{337, 0}";
},
{
name = center;
position = "{329, 280}";
},
{
name = top;
position = "{335, 560}";
}
);
background = {
paths = (
{
closed = 1;
nodes = (
"516 629 OFFCURVE",
"649 503 OFFCURVE",
"649 348 CURVE SMOOTH",
"649 196 OFFCURVE",
"516 71 OFFCURVE",
"353 71 CURVE SMOOTH",
"174 71 LINE",
"174 629 LINE",
"353 629 LINE SMOOTH"
);
},
{
closed = 1;
nodes = (
"558 0 OFFCURVE",
"725 157 OFFCURVE",
"725 348 CURVE SMOOTH",
"725 542 OFFCURVE",
"558 700 OFFCURVE",
"353 700 CURVE SMOOTH",
"98 700 LINE",
"98 0 LINE",
"353 0 LINE SMOOTH"
);
}
);
};
layerId = "3129A168-24FD-451B-9986-F27775A960CA";
paths = (
{
closed = 1;
nodes = (
"464 0 OFFCURVE",
"602 126 OFFCURVE",
"602 279 CURVE SMOOTH",
"602 434 OFFCURVE",
"464 560 OFFCURVE",
"296 560 CURVE",
"296 509 LINE",
"435 509 OFFCURVE",
"547 406 OFFCURVE",
"547 279 CURVE SMOOTH",
"547 153 OFFCURVE",
"435 51 OFFCURVE",
"296 51 CURVE",
"296 0 LINE"
);
},
{
closed = 1;
nodes = (
"296 0 LINE",
"296 51 LINE",
"137 51 LINE",
"137 0 LINE"
);
},
{
closed = 1;
nodes = (
"141 0 LINE",
"141 560 LINE",
"87 560 LINE",
"87 0 LINE"
);
},
{
closed = 1;
nodes = (
"296 509 LINE",
"296 560 LINE",
"137 560 LINE",
"137 509 LINE"
);
}
);
userData = {
RMXScaler = {
height = 80;
weight = -5;
width = 84;
};
};
width = 668;
}
);
leftMetricsKey = n.sc;
rightKerningGroup = o.sc;
rightMetricsKey = o.sc;
userData = {
RMXScaler = {
source = D;
};
};
},
{
glyphname = e.sc;
lastChange = "2017-06-08 08:20:00 +0000";
layers = (
{
anchors = (
{
name = bottom;
position = "{293, 0}";
},
{
name = ogonek;
position = "{558, 6}";
},
{
name = top;
position = "{283, 597}";
},
{
name = topleft;
position = "{34, 595}";
}
);
background = {
paths = (
{
closed = 1;
nodes = (
"95 0 LINE",
"261 0 LINE",
"261 700 LINE",
"95 700 LINE"
);
},
{
closed = 1;
nodes = (
"261 539 LINE",
"566 539 LINE",
"566 700 LINE",
"261 700 LINE"
);
},
{
closed = 1;
nodes = (
"261 0 LINE",
"566 0 LINE",
"566 161 LINE",
"261 161 LINE"
);
},
{
closed = 1;
nodes = (
"261 270 LINE",
"429 290 LINE",
"429 411 LINE",
"261 431 LINE"
);
}
);
};
guideLines = (
{
position = "{356, 198}";
}
);
layerId = "631A315E-0C3F-4988-8BF6-333737037850";
paths = (
{
closed = 1;
nodes = (
"513 0 LINE",
"513 153 LINE",
"227 153 LINE",
"227 221 LINE",
"393 240 LINE",
"393 356 LINE",
"227 375 LINE",
"227 442 LINE",
"513 442 LINE",
"513 595 LINE",
"70 595 LINE",
"70 0 LINE"
);
}
);
userData = {
RMXScaler = {
adjustSpace = 5;
height = 85;
weight = -8;
width = 90;
};
};
width = 583;
},
{
anchors = (
{
name = bottom;
position = "{277, 0}";
},
{
name = ogonek;
position = "{518, 18}";
},
{
name = top;
position = "{276, 560}";
},
{
name = topleft;
position = "{53, 560}";
}
);
background = {
paths = (
{
closed = 1;
nodes = (
"575 0 LINE",
"575 71 LINE",
"164 71 LINE",
"164 312 LINE",
"403 327 LINE",
"403 375 LINE",
"164 390 LINE",
"164 629 LINE",
"575 629 LINE",
"575 700 LINE",
"88 700 LINE",
"88 0 LINE"
);
}
);
};
layerId = "3129A168-24FD-451B-9986-F27775A960CA";
paths = (
{
closed = 1;
nodes = (
"483 0 LINE",
"483 51 LINE",
"141 51 LINE",
"141 255 LINE",
"340 262 LINE",
"340 300 LINE",
"141 306 LINE",
"141 509 LINE",
"483 509 LINE",
"483 560 LINE",
"87 560 LINE",
"87 0 LINE"
);
}
);
userData = {
RMXScaler = {
height = 80;
weight = -5;
width = 84;
};
};
width = 570;
}
);
leftMetricsKey = n.sc;
rightKerningGroup = e.sc;
rightMetricsKey = n.sc;
userData = {
RMXScaler = {
source = E;
};
};
},
{
glyphname = f.sc;
lastChange = "2019-02-27 08:11:00 +0000";
layers = (
{
anchors = (
{
name = bottom;
position = "{293, 0}";
},
{
name = top;
position = "{293, 595}";
}
);
layerId = "631A315E-0C3F-4988-8BF6-333737037850";
paths = (
{
closed = 1;
nodes = (
"227 0 LINE",
"227 595 LINE",
"70 595 LINE",
"70 0 LINE"
);
},
{
closed = 1;
nodes = (
"393 240 LINE",
"393 356 LINE",
"227 375 LINE",
"227 221 LINE"
);
},
{
closed = 1;
nodes = (
"513 442 LINE",
"513 595 LINE",
"227 595 LINE",
"227 442 LINE"
);
}
);
userData = {
RMXScaler = {
adjustSpace = 5;
height = 85;
weight = -8;
width = 90;
};
};
width = 583;
},
{
anchors = (
{
name = bottom;
position = "{277, 0}";
},
{
name = top;
position = "{277, 560}";
}
);
layerId = "3129A168-24FD-451B-9986-F27775A960CA";
paths = (
{
closed = 1;
nodes = (
"141 0 LINE",
"141 560 LINE",
"87 560 LINE",
"87 0 LINE"
);
},
{
closed = 1;
nodes = (
"341 262 LINE",
"340 300 LINE",
"141 306 LINE",
"141 255 LINE"
);
},
{
closed = 1;
nodes = (
"484 509 LINE",
"483 560 LINE",
"141 560 LINE",
"141 509 LINE"
);
}
);
userData = {
RMXScaler = {
height = 80;
weight = -5;
width = 84;
};
};
width = 571;
}
);
leftMetricsKey = n.sc;
rightMetricsKey = n.sc;
userData = {
RMXScaler = {
source = F;
};
};
},
{
glyphname = g.sc;
lastChange = "2017-06-08 08:20:00 +0000";
layers = (
{
anchors = (
{
name = bottom;
position = "{370, 0}";
},
{
name = top;
position = "{370, 595}";
}
);
background = {
paths = (
{
closed = 1;
nodes = (
"672 238 LINE",
"672 399 LINE",
"367 399 LINE",
"367 238 LINE"
);
},
{
closed = 1;
nodes = (
"611 382 OFFCURVE",
"614 360 OFFCURVE",
"614 350 CURVE",
"615 238 OFFCURVE",
"526 146 OFFCURVE",
"416 146 CURVE",
"306 146 OFFCURVE",
"216 238 OFFCURVE",
"216 350 CURVE",
"216 462 OFFCURVE",
"306 554 OFFCURVE",
"416 554 CURVE",
"474 554 OFFCURVE",
"548 512 OFFCURVE",
"581 461 CURVE",
"762 461 LINE",
"717 601 OFFCURVE",
"561 715 OFFCURVE",
"416 715 CURVE",
"216 715 OFFCURVE",
"51 551 OFFCURVE",
"50 350 CURVE",
"49 149 OFFCURVE",
"214 -15 OFFCURVE",
"416 -15 CURVE",
"617 -15 OFFCURVE",
"781 149 OFFCURVE",
"780 350 CURVE",
"780 364 OFFCURVE",
"779 386 OFFCURVE",
"777 399 CURVE",
"608 399 LINE"
);
}
);
};
guideLines = (
{
position = "{595, 461}";
},
{
position = "{597, 399}";
},
{
angle = -61.429;
position = "{684, 399}";
},
{
angle = 61.4293;
position = "{684, 461}";
}
);
layerId = "631A315E-0C3F-4988-8BF6-333737037850";
paths = (
{
closed = 1;
nodes = (
"526 -13 OFFCURVE",
"651 80 OFFCURVE",
"692 206 CURVE",
"615 347 LINE",
"329 347 LINE",
"329 193 LINE",
"517 193 LINE",
"484 160 OFFCURVE",
"434 141 OFFCURVE",
"377 141 CURVE SMOOTH",
"282 141 OFFCURVE",
"205 211 OFFCURVE",
"205 298 CURVE SMOOTH",
"205 384 OFFCURVE",
"282 454 OFFCURVE",
"377 454 CURVE SMOOTH",
"427 454 OFFCURVE",
"492 420 OFFCURVE",
"520 380 CURVE",
"618 380 LINE",
"656 452 LINE",
"596 542 OFFCURVE",
"482 608 OFFCURVE",
"377 608 CURVE SMOOTH",
"197 608 OFFCURVE",
"49 469 OFFCURVE",
"48 298 CURVE SMOOTH",
"47 127 OFFCURVE",
"195 -13 OFFCURVE",
"377 -13 CURVE SMOOTH"
);
}
);
userData = {
RMXScaler = {
adjustSpace = 5;
height = 85;
weight = -8;
width = 90;
};
};
width = 740;
},
{
anchors = (
{
name = bottom;
position = "{370, 0}";
},
{
name = top;
position = "{370, 560}";
}
);
background = {
paths = (
{
closed = 1;
nodes = (
"734 188 OFFCURVE",
"604 56 OFFCURVE",
"446 56 CURVE SMOOTH",
"286 56 OFFCURVE",
"156 188 OFFCURVE",
"156 350 CURVE SMOOTH",
"156 512 OFFCURVE",
"286 644 OFFCURVE",
"446 644 CURVE SMOOTH",
"534 644 OFFCURVE",
"614 602 OFFCURVE",
"667 537 CURVE",
"725 537 LINE",
"740 564 LINE",
"674 656 OFFCURVE",
"566 715 OFFCURVE",
"446 715 CURVE SMOOTH",
"245 715 OFFCURVE",
"80 550 OFFCURVE",
"80 348 CURVE SMOOTH",
"80 148 OFFCURVE",
"245 -15 OFFCURVE",
"446 -15 CURVE SMOOTH",
"615 -15 OFFCURVE",
"759 103 OFFCURVE",
"799 260 CURVE",
"750 349 LINE",
"734 349 LINE"
);
},
{
closed = 1;
nodes = (
"449 278 LINE",
"750 278 LINE",
"750 349 LINE",
"449 349 LINE"
);
}
);
};
guideLines = (
{
position = "{667, 537}";
},
{
angle = 60.9234;
position = "{725, 537}";
},
{
position = "{449, 278}";
},
{
angle = 118.728;
position = "{766, 349}";
},
{
position = "{449, 349}";
}
);
layerId = "3129A168-24FD-451B-9986-F27775A960CA";
paths = (
{
closed = 1;
nodes = (
"522 -12 OFFCURVE",
"646 89 OFFCURVE",
"674 223 CURVE",
"640 283 LINE",
"374 283 LINE",
"374 232 LINE",
"620 232 LINE",
"598 125 OFFCURVE",
"493 39 OFFCURVE",
"373 39 CURVE SMOOTH",
"237 39 OFFCURVE",
"120 150 OFFCURVE",
"120 280 CURVE SMOOTH",
"120 410 OFFCURVE",
"237 521 OFFCURVE",
"373 521 CURVE SMOOTH",
"452 521 OFFCURVE",
"526 483 OFFCURVE",
"572 424 CURVE",
"607 424 LINE",
"621 449 LINE",
"565 524 OFFCURVE",
"474 572 OFFCURVE",
"373 572 CURVE SMOOTH",
"205 572 OFFCURVE",
"66 440 OFFCURVE",
"66 279 CURVE SMOOTH",
"66 119 OFFCURVE",
"204 -12 OFFCURVE",
"373 -12 CURVE SMOOTH"
);
}
);
userData = {
RMXScaler = {
height = 80;
weight = -5;
width = 84;
};
};
width = 740;
}
);
leftKerningGroup = o.sc;
leftMetricsKey = o.sc;
rightKerningGroup = o.sc;
rightMetricsKey = o.sc;
userData = {
RMXScaler = {
source = G;
};
};
},
{
glyphname = h.sc;
lastChange = "2017-06-08 08:20:00 +0000";
layers = (
{
anchors = (
{
name = bottom;
position = "{353, 0}";
},
{
name = center;
position = "{353, 298}";
},
{
name = top;
position = "{353, 595}";
},
{
name = topleft;
position = "{18, 595}";
}
);
guideLines = (
{
angle = -23.7495;
position = "{241, 276}";
}
);
layerId = "631A315E-0C3F-4988-8BF6-333737037850";
paths = (
{
closed = 1;
nodes = (
"227 0 LINE",
"227 223 LINE",
"272 207 LINE",
"434 207 LINE",
"478 223 LINE",
"478 0 LINE",
"635 0 LINE",
"635 595 LINE",
"478 595 LINE",
"478 360 LINE",
"227 360 LINE",
"227 595 LINE",
"70 595 LINE",
"70 0 LINE"
);
}
);
userData = {
RMXScaler = {
adjustSpace = 5;
height = 85;
weight = -8;
width = 90;
};
};
width = 705;
},
{
anchors = (
{
name = bottom;
position = "{297, 0}";
},
{
name = center;
position = "{297, 280}";
},
{
name = top;
position = "{297, 560}";
},
{
name = topleft;
position = "{63, 560}";
}
);
guideLines = (
{
position = "{165, 339}";
},
{
angle = 23.749;
position = "{540, 339}";
}
);
layerId = "3129A168-24FD-451B-9986-F27775A960CA";
paths = (
{
closed = 1;
nodes = (
"141 0 LINE",
"141 267 LINE",
"189 247 LINE",
"406 247 LINE",
"453 267 LINE",
"453 0 LINE",
"507 0 LINE",
"507 560 LINE",
"453 560 LINE",
"453 298 LINE",
"141 298 LINE",
"141 560 LINE",
"87 560 LINE",
"87 0 LINE"
);
}
);
userData = {
RMXScaler = {
height = 80;
weight = -5;
width = 84;
};
};
width = 594;
}
);
leftKerningGroup = n.sc;
leftMetricsKey = n.sc;
rightKerningGroup = n.sc;
rightMetricsKey = n.sc;
userData = {
RMXScaler = {
source = H;
};
};
},
{
glyphname = i.sc;
lastChange = "2017-06-08 08:20:00 +0000";
layers = (
{
anchors = (
{
name = bottom;
position = "{149, 0}";
},
{
name = ogonek;
position = "{271, 9}";
},
{
name = top;
position = "{149, 595}";
},
{
name = topleft;
position = "{34, 595}";
}
);
guideLines = (
{
angle = 90;
position = "{158, 700}";
}
);
layerId = "631A315E-0C3F-4988-8BF6-333737037850";
paths = (
{
closed = 1;
nodes = (
"227 0 LINE",
"227 595 LINE",
"70 595 LINE",
"70 0 LINE"
);
}
);
userData = {
RMXScaler = {
adjustSpace = 5;
height = 85;
weight = -8;
width = 90;
};
};
width = 297;
},
{
anchors = (
{
name = bottom;
position = "{115, 0}";
},
{
name = ogonek;
position = "{177, 8}";
},
{
name = top;
position = "{115, 560}";
},
{
name = topleft;
position = "{53, 560}";
}
);
layerId = "3129A168-24FD-451B-9986-F27775A960CA";
paths = (
{
closed = 1;
nodes = (
"141 0 LINE",
"141 560 LINE",
"87 560 LINE",
"87 0 LINE"
);
}
);
userData = {
RMXScaler = {
height = 80;
weight = -5;
width = 84;
};
};
width = 228;
}
);
leftKerningGroup = n.sc;
leftMetricsKey = n.sc;
rightKerningGroup = n.sc;
rightMetricsKey = n.sc;
userData = {
RMXScaler = {
source = I;
};
};
},
{
glyphname = j.sc;
lastChange = "2017-06-08 08:20:00 +0000";
layers = (
{
anchors = (
{
name = bottom;
position = "{273, 0}";
},
{
name = top;
position = "{273, 595}";
}
);
background = {
paths = (
{
closed = 1;
nodes = (
"349 267 LINE",
"349 200 OFFCURVE",
"295 146 OFFCURVE",
"230 146 CURVE",
"163 146 OFFCURVE",
"109 200 OFFCURVE",
"109 267 CURVE",
"-57 267 LINE",
"-58 112 OFFCURVE",
"71 -15 OFFCURVE",
"230 -15 CURVE",
"388 -15 OFFCURVE",
"516 112 OFFCURVE",
"515 267 CURVE"
);
}
);
};
guideLines = (
{
angle = -90;
position = "{55, 128}";
},
{
position = "{-41, 172}";
}
);
layerId = "631A315E-0C3F-4988-8BF6-333737037850";
paths = (
{
closed = 1;
nodes = (
"360 -13 OFFCURVE",
"477 97 OFFCURVE",
"476 230 CURVE",
"476 595 LINE",
"319 595 LINE",
"319 230 LINE SMOOTH",
"319 180 OFFCURVE",
"272 141 OFFCURVE",
"216 141 CURVE SMOOTH",
"197 141 OFFCURVE",
"165 151 OFFCURVE",
"149 161 CURVE",
"55 120 LINE",
"55 40 LINE",
"93 12 OFFCURVE",
"167 -13 OFFCURVE",
"216 -13 CURVE SMOOTH"
);
}
);
userData = {
RMXScaler = {
adjustSpace = 5;
height = 85;
weight = -8;
width = 90;
};
};
width = 544;
},
{
anchors = (
{
name = bottom;
position = "{204, 0}";
},
{
name = top;
position = "{204, 560}";
}
);
background = {
paths = (
{
closed = 1;
nodes = (
"302 -20 OFFCURVE",
"415 111 OFFCURVE",
"415 256 CURVE SMOOTH",
"415 701 LINE",
"339 701 LINE",
"339 256 LINE SMOOTH",
"339 151 OFFCURVE",
"274 57 OFFCURVE",
"175 57 CURVE SMOOTH",
"153 57 OFFCURVE",
"122 65 OFFCURVE",
"96 80 CURVE",
"50 56 LINE",
"50 28 LINE",
"81 7 OFFCURVE",
"132 -12 OFFCURVE",
"176 -14 CURVE SMOOTH"
);
}
);
};
guideLines = (
{
angle = 207.5528;
position = "{96, 80}";
},
{
angle = 90;
position = "{50, 56}";
}
);
layerId = "3129A168-24FD-451B-9986-F27775A960CA";
paths = (
{
closed = 1;
nodes = (
"264 -12 OFFCURVE",
"353 83 OFFCURVE",
"353 199 CURVE SMOOTH",
"353 559 LINE",
"298 559 LINE",
"298 199 LINE SMOOTH",
"298 111 OFFCURVE",
"233 39 OFFCURVE",
"156 39 CURVE SMOOTH",
"127 39 OFFCURVE",
"99 49 OFFCURVE",
"77 66 CURVE",
"46 50 LINE",
"46 24 LINE",
"77 2 OFFCURVE",
"115 -12 OFFCURVE",
"155 -12 CURVE SMOOTH"
);
}
);
userData = {
RMXScaler = {
height = 80;
weight = -5;
width = 84;
};
};
width = 412;
}
);
userData = {
RMXScaler = {
source = J;
};
};
},
{
glyphname = k.sc;
lastChange = "2019-01-09 13:29:15 +0000";
layers = (
{
anchors = (
{
name = bottom;
position = "{317, 0}";
},
{
name = top;
position = "{317, 595}";
}
);
background = {
paths = (
{
closed = 1;
nodes = (
"241 0 LINE",
"241 700 LINE",
"75 700 LINE",
"75 0 LINE"
);
},
{
closed = 1;
nodes = (
"616 0 LINE",
"616 112 LINE",
"387 400 LINE",
"260 282 LINE",
"484 0 LINE"
);
},
{
closed = 1;
nodes = (
"146 350 LINE",
"146 118 LINE",
"586 589 LINE",
"586 701 LINE",
"474 701 LINE"
);
}
);
};
guideLines = (
{
angle = 226.9401;
position = "{586, 589}";
},
{
angle = 226.9401;
position = "{474, 701}";
},
{
angle = -51.5104;
position = "{220, 282}";
},
{
angle = -51.5104;
position = "{387, 400}";
}
);
layerId = "631A315E-0C3F-4988-8BF6-333737037850";
paths = (
{
closed = 1;
nodes = (
"227 0 LINE",
"227 184 LINE",
"261 212 LINE",
"447 0 LINE",
"581 0 LINE",
"581 86 LINE",
"369 327 LINE",
"554 506 LINE",
"554 596 LINE",
"428 596 LINE",
"227 406 LINE",
"227 595 LINE",
"70 595 LINE",
"70 0 LINE"
);
}
);
userData = {
RMXScaler = {
adjustSpace = 5;
height = 85;
weight = -8;
width = 90;
};
};
width = 640;
},
{
anchors = (
{
name = bottom;
position = "{286, 0}";
},
{
name = top;
position = "{286, 560}";
}
);
guideLines = (
{
angle = 227.614;
position = "{141, 191}";
},
{
angle = 128.0061;
position = "{437, 0}";
}
);
layerId = "3129A168-24FD-451B-9986-F27775A960CA";
paths = (
{
closed = 1;
nodes = (
"141 0 LINE",
"141 191 LINE",
"220 276 LINE",
"437 0 LINE",
"492 0 LINE",
"492 16 LINE",
"256 318 LINE",
"465 546 LINE",
"465 560 LINE",
"407 560 LINE",
"141 269 LINE",
"141 560 LINE",
"87 560 LINE",
"87 0 LINE"
);
}
);
userData = {
RMXScaler = {
height = 80;
weight = -5;
width = 84;
};
};
width = 542;
}
);
leftKerningGroup = n.sc;
leftMetricsKey = n.sc;
userData = {
RMXScaler = {
source = K;
};
};
},
{
glyphname = l.sc;
lastChange = "2017-06-08 08:20:00 +0000";
layers = (
{
anchors = (
{
name = bottom;
position = "{287, 0}";
},
{
name = center;
position = "{161, 298}";
},
{
name = top;
position = "{287, 595}";
},
{
name = topright;
position = "{538, 595}";
}
);
layerId = "631A315E-0C3F-4988-8BF6-333737037850";
paths = (
{
closed = 1;
nodes = (
"502 0 LINE",
"502 154 LINE",
"227 154 LINE",
"227 595 LINE",
"70 595 LINE",
"70 0 LINE"
);
}
);
userData = {
RMXScaler = {
adjustSpace = 5;
height = 85;
weight = -8;
width = 90;
};
};
width = 561;
},
{
anchors = (
{
name = bottom;
position = "{240, 0}";
},
{
name = center;
position = "{114, 280}";
},
{
name = top;
position = "{240, 560}";
},
{
name = topright;
position = "{433, 560}";
}
);
layerId = "3129A168-24FD-451B-9986-F27775A960CA";
paths = (
{
closed = 1;
nodes = (
"400 0 LINE",
"400 48 LINE",
"141 48 LINE",
"141 560 LINE",
"87 560 LINE",
"87 0 LINE"
);
}
);
userData = {
RMXScaler = {
height = 80;
weight = -5;
width = 84;
};
};
width = 450;
}
);
leftKerningGroup = n.sc;
leftMetricsKey = n.sc;
userData = {
RMXScaler = {
source = L;
};
};
},
{
glyphname = m.sc;
lastChange = "2019-01-09 12:46:32 +0000";
layers = (
{
anchors = (
{
name = bottom;
position = "{413, 0}";
},
{
name = top;
position = "{413, 595}";
}
);
background = {
paths = (
{
closed = 1;
nodes = (
"508 153 LINE",
"765 578 LINE",
"765 700 LINE",
"657 700 LINE",
"454 334 LINE",
"251 700 LINE",
"143 700 LINE",
"143 578 LINE",
"400 153 LINE"
);
},
{
closed = 1;
nodes = (
"241 0 LINE",
"241 700 LINE",
"75 700 LINE",
"75 0 LINE"
);
},
{
closed = 1;
nodes = (
"833 0 LINE",
"833 700 LINE",
"667 700 LINE",
"667 0 LINE"
);
}
);
};
layerId = "631A315E-0C3F-4988-8BF6-333737037850";
paths = (
{
closed = 1;
nodes = (
"227 0 LINE",
"227 393 LINE",
"201 385 LINE",
"363 121 LINE",
"463 121 LINE",
"625 385 LINE",
"599 393 LINE",
"599 0 LINE",
"756 0 LINE",
"756 595 LINE",
"592 595 LINE",
"392 272 LINE",
"434 272 LINE",
"234 595 LINE",
"70 595 LINE",
"70 0 LINE"
);
}
);
userData = {
RMXScaler = {
adjustSpace = 5;
height = 85;
weight = -8;
width = 90;
};
};
width = 826;
},
{
anchors = (
{
name = bottom;
position = "{384, 0}";
},
{
name = top;
position = "{384, 560}";
}
);
guideLines = (
{
angle = 121.0408;
position = "{201, 700}";
},
{
angle = 58.9592;
position = "{713, 700}";
},
{
angle = 121.0408;
position = "{427, 209}";
},
{
angle = 58.9592;
position = "{487, 209}";
}
);
layerId = "3129A168-24FD-451B-9986-F27775A960CA";
paths = (
{
closed = 1;
nodes = (
"141 0 LINE",
"141 546 LINE",
"117 539 LINE",
"358 163 LINE",
"410 163 LINE",
"650 539 LINE",
"626 546 LINE",
"626 0 LINE",
"681 0 LINE",
"681 560 LINE",
"597 560 LINE",
"365 195 LINE",
"402 195 LINE",
"170 560 LINE",
"87 560 LINE",
"87 0 LINE"
);
}
);
userData = {
RMXScaler = {
height = 80;
weight = -5;
width = 84;
};
};
width = 768;
}
);
leftKerningGroup = n.sc;
leftMetricsKey = n.sc;
rightKerningGroup = n.sc;
rightMetricsKey = n.sc;
userData = {
RMXScaler = {
source = M;
};
};
},
{
glyphname = n.sc;
lastChange = "2019-01-09 12:47:45 +0000";
layers = (
{
anchors = (
{
name = bottom;
position = "{364, 0}";
},
{
name = top;
position = "{325, 595}";
}
);
guideLines = (
{
angle = 126.1848;
position = "{557, 0}";
}
);
layerId = "631A315E-0C3F-4988-8BF6-333737037850";
paths = (
{
closed = 1;
nodes = (
"227 0 LINE",
"227 400 LINE",
"198 390 LINE",
"502 0 LINE",
"657 0 LINE",
"657 595 LINE",
"500 595 LINE",
"500 215 LINE",
"529 205 LINE",
"225 595 LINE",
"70 595 LINE",
"70 0 LINE"
);
}
);
userData = {
RMXScaler = {
adjustSpace = 5;
height = 85;
weight = -8;
width = 90;
};
};
width = 727;
},
{
anchors = (
{
name = bottom;
position = "{337, 0}";
},
{
name = top;
position = "{335, 560}";
}
);
guideLines = (
{
angle = -55.1228;
position = "{194, 700}";
}
);
layerId = "3129A168-24FD-451B-9986-F27775A960CA";
paths = (
{
closed = 1;
nodes = (
"141 0 LINE",
"141 543 LINE",
"114 534 LINE",
"509 0 LINE",
"587 0 LINE",
"587 560 LINE",
"532 560 LINE",
"532 17 LINE",
"559 26 LINE",
"165 560 LINE",
"87 560 LINE",
"87 0 LINE"
);
}
);
userData = {
RMXScaler = {
height = 80;
weight = -5;
width = 84;
};
};
width = 674;
}
);
leftKerningGroup = n.sc;
rightKerningGroup = n.sc;
userData = {
RMXScaler = {
source = N;
};
};
},
{
glyphname = o.sc;
lastChange = "2019-01-09 13:33:56 +0000";
layers = (
{
anchors = (
{
name = bottom;
position = "{372, 0}";
},
{
name = center;
position = "{372, 298}";
},
{
name = ogonek;
position = "{663, 9}";
},
{
name = top;
position = "{372, 595}";
},
{
name = topleft;
position = "{25, 595}";
},
{
name = topright;
position = "{718, 595}";
}
);
guideLines = (
{
position = "{1686, 113}";
},
{
angle = 90;
position = "{1547, 112}";
},
{
angle = 90;
position = "{411, 713}";
}
);
layerId = "631A315E-0C3F-4988-8BF6-333737037850";
paths = (
{
closed = 1;
nodes = (
"547 -15 OFFCURVE",
"692 119 OFFCURVE",
"692 297 CURVE SMOOTH",
"692 474 OFFCURVE",
"547 608 OFFCURVE",
"370 608 CURVE SMOOTH",
"193 608 OFFCURVE",
"48 473 OFFCURVE",
"48 297 CURVE SMOOTH",
"48 120 OFFCURVE",
"193 -15 OFFCURVE",
"370 -15 CURVE SMOOTH"
);
},
{
closed = 1;
nodes = (
"274 132 OFFCURVE",
"211 197 OFFCURVE",
"211 296 CURVE SMOOTH",
"211 394 OFFCURVE",
"274 460 OFFCURVE",
"371 460 CURVE SMOOTH",
"467 460 OFFCURVE",
"528 394 OFFCURVE",
"528 296 CURVE SMOOTH",
"528 197 OFFCURVE",
"467 132 OFFCURVE",
"371 132 CURVE SMOOTH"
);
}
);
userData = {
RMXScaler = {
adjustSpace = 5;
height = 85;
weight = -8;
width = 90;
};
};
width = 740;
},
{
anchors = (
{
name = bottom;
position = "{358, 0}";
},
{
name = center;
position = "{357, 280}";
},
{
name = ogonek;
position = "{630, 8}";
},
{
name = top;
position = "{358, 560}";
},
{
name = topleft;
position = "{34, 560}";
},
{
name = topright;
position = "{681, 560}";
}
);
background = {
paths = (
{
closed = 1;
nodes = (
"526 -12 OFFCURVE",
"664 118 OFFCURVE",
"664 279 CURVE SMOOTH",
"664 441 OFFCURVE",
"526 572 OFFCURVE",
"358 572 CURVE SMOOTH",
"190 572 OFFCURVE",
"51 440 OFFCURVE",
"51 279 CURVE SMOOTH",
"51 119 OFFCURVE",
"189 -12 OFFCURVE",
"358 -12 CURVE SMOOTH"
);
},
{
closed = 1;
nodes = (
"222 39 OFFCURVE",
"105 150 OFFCURVE",
"105 280 CURVE SMOOTH",
"105 410 OFFCURVE",
"222 521 OFFCURVE",
"358 521 CURVE SMOOTH",
"494 521 OFFCURVE",
"610 409 OFFCURVE",
"610 279 CURVE SMOOTH",
"610 150 OFFCURVE",
"494 39 OFFCURVE",
"358 39 CURVE SMOOTH"
);
},
{
closed = 1;
nodes = (
"518 -11 OFFCURVE",
"649 120 OFFCURVE",
"649 281 CURVE SMOOTH",
"649 442 OFFCURVE",
"518 573 OFFCURVE",
"358 572 CURVE SMOOTH",
"197 571 OFFCURVE",
"66 440 OFFCURVE",
"66 281 CURVE SMOOTH",
"66 120 OFFCURVE",
"197 -11 OFFCURVE",
"358 -11 CURVE SMOOTH"
);
},
{
closed = 1;
nodes = (
"236 51 OFFCURVE",
"133 156 OFFCURVE",
"133 281 CURVE SMOOTH",
"133 405 OFFCURVE",
"236 511 OFFCURVE",
"358 511 CURVE SMOOTH",
"479 511 OFFCURVE",
"582 405 OFFCURVE",
"582 281 CURVE SMOOTH",
"582 156 OFFCURVE",
"479 51 OFFCURVE",
"358 51 CURVE SMOOTH"
);
}
);
};
layerId = "3129A168-24FD-451B-9986-F27775A960CA";
paths = (
{
closed = 1;
nodes = (
"518 -11 OFFCURVE",
"649 120 OFFCURVE",
"649 281 CURVE SMOOTH",
"649 442 OFFCURVE",
"519 572 OFFCURVE",
"360 572 CURVE SMOOTH",
"200 572 OFFCURVE",
"66 442 OFFCURVE",
"66 281 CURVE SMOOTH",
"66 121 OFFCURVE",
"197 -11 OFFCURVE",
"358 -11 CURVE SMOOTH"
);
},
{
closed = 1;
nodes = (
"223 40 OFFCURVE",
"120 146 OFFCURVE",
"120 281 CURVE SMOOTH",
"120 415 OFFCURVE",
"223 521 OFFCURVE",
"358 521 CURVE SMOOTH",
"492 521 OFFCURVE",
"595 416 OFFCURVE",
"595 281 CURVE SMOOTH",
"595 145 OFFCURVE",
"492 40 OFFCURVE",
"358 40 CURVE SMOOTH"
);
}
);
userData = {
RMXScaler = {
height = 80;
weight = -5;
width = 84;
};
};
width = 715;
}
);
leftKerningGroup = o.sc;
rightKerningGroup = o.sc;
userData = {
RMXScaler = {
source = O;
};
};
},
{
glyphname = oslash.sc;
lastChange = "2019-01-11 11:50:35 +0000";
layers = (
{
anchors = (
{
name = bottom;
position = "{370, 0}";
},
{
name = top;
position = "{370, 500}";
}
);
background = {
paths = (
{
closed = 1;
nodes = (
"553 -13 OFFCURVE",
"701 127 OFFCURVE",
"700 298 CURVE SMOOTH",
"699 469 OFFCURVE",
"551 608 OFFCURVE",
"372 608 CURVE SMOOTH",
"192 608 OFFCURVE",
"44 469 OFFCURVE",
"43 298 CURVE SMOOTH",
"42 127 OFFCURVE",
"190 -13 OFFCURVE",
"372 -13 CURVE SMOOTH"
);
},
{
closed = 1;
nodes = (
"336 141 OFFCURVE",
"302 148 OFFCURVE",
"273 162 CURVE",
"544 299 LINE",
"543 298 OFFCURVE",
"543 298 OFFCURVE",
"543 298 CURVE SMOOTH",
"543 211 OFFCURVE",
"467 141 OFFCURVE",
"372 141 CURVE SMOOTH"
);
},
{
closed = 1;
nodes = (
"199 297 OFFCURVE",
"200 297 OFFCURVE",
"200 298 CURVE SMOOTH",
"200 384 OFFCURVE",
"277 454 OFFCURVE",
"372 454 CURVE SMOOTH",
"409 454 OFFCURVE",
"442 447 OFFCURVE",
"470 433 CURVE",
"199 296 LINE"
);
}
);
};
guideLines = (
{
angle = 228.6545;
position = "{1111, 508}";
}
);
layerId = "631A315E-0C3F-4988-8BF6-333737037850";
paths = (
{
closed = 1;
nodes = (
"547 -15 OFFCURVE",
"692 119 OFFCURVE",
"692 297 CURVE SMOOTH",
"692 474 OFFCURVE",
"547 608 OFFCURVE",
"370 608 CURVE SMOOTH",
"193 608 OFFCURVE",
"48 473 OFFCURVE",
"48 297 CURVE SMOOTH",
"48 120 OFFCURVE",
"193 -15 OFFCURVE",
"370 -15 CURVE SMOOTH"
);
},
{
closed = 1;
nodes = (
"274 132 OFFCURVE",
"211 197 OFFCURVE",
"211 296 CURVE SMOOTH",
"211 394 OFFCURVE",
"274 460 OFFCURVE",
"371 460 CURVE SMOOTH",
"467 460 OFFCURVE",
"528 394 OFFCURVE",
"528 296 CURVE SMOOTH",
"528 197 OFFCURVE",
"467 132 OFFCURVE",
"371 132 CURVE SMOOTH"
);
},
{
closed = 1;
nodes = (
"678 558 LINE",
"678 600 LINE",
"554 600 LINE",
"63 42 LINE",
"63 0 LINE",
"187 0 LINE"
);
}
);
userData = {
RMXScaler = {
adjustSpace = 5;
height = 85;
weight = -8;
width = 90;
};
};
width = 740;
},
{
anchors = (
{
name = bottom;
position = "{359, 0}";
},
{
name = top;
position = "{359, 490}";
}
);
layerId = "3129A168-24FD-451B-9986-F27775A960CA";
paths = (
{
closed = 1;
nodes = (
"519 -11 OFFCURVE",
"650 120 OFFCURVE",
"650 281 CURVE SMOOTH",
"650 442 OFFCURVE",
"520 572 OFFCURVE",
"361 572 CURVE SMOOTH",
"201 572 OFFCURVE",
"67 442 OFFCURVE",
"67 281 CURVE SMOOTH",
"67 121 OFFCURVE",
"198 -11 OFFCURVE",
"359 -11 CURVE SMOOTH"
);
},
{
closed = 1;
nodes = (
"224 40 OFFCURVE",
"121 146 OFFCURVE",
"121 281 CURVE SMOOTH",
"121 415 OFFCURVE",
"224 521 OFFCURVE",
"359 521 CURVE SMOOTH",
"493 521 OFFCURVE",
"596 416 OFFCURVE",
"596 281 CURVE SMOOTH",
"596 145 OFFCURVE",
"493 40 OFFCURVE",
"359 40 CURVE SMOOTH"
);
},
{
closed = 1;
nodes = (
"652 543 LINE",
"652 558 LINE",
"596 558 LINE",
"66 15 LINE",
"66 0 LINE",
"122 0 LINE"
);
}
);
userData = {
RMXScaler = {
height = 80;
weight = -5;
width = 84;
};
};
width = 718;
}
);
leftKerningGroup = o.sc;
leftMetricsKey = o.sc;
rightKerningGroup = o.sc;
rightMetricsKey = o.sc;
userData = {
RMXScaler = {
source = Oslash;
};
};
},
{
glyphname = p.sc;
lastChange = "2017-06-08 08:20:00 +0000";
layers = (
{
anchors = (
{
name = bottom;
position = "{314, 0}";
},
{
name = top;
position = "{314, 595}";
}
);
layerId = "631A315E-0C3F-4988-8BF6-333737037850";
paths = (
{
closed = 1;
nodes = (
"344 157 LINE SMOOTH",
"470 157 OFFCURVE",
"573 256 OFFCURVE",
"573 377 CURVE SMOOTH",
"573 497 OFFCURVE",
"468 595 OFFCURVE",
"340 595 CURVE SMOOTH",
"220 595 LINE",
"220 442 LINE",
"345 442 LINE SMOOTH",
"384 442 OFFCURVE",
"416 412 OFFCURVE",
"416 377 CURVE SMOOTH",
"416 341 OFFCURVE",
"384 311 OFFCURVE",
"345 311 CURVE SMOOTH",
"220 311 LINE",
"220 157 LINE"
);
},
{
closed = 1;
nodes = (
"227 0 LINE",
"227 595 LINE",
"70 595 LINE",
"70 0 LINE"
);
}
);
userData = {
RMXScaler = {
adjustSpace = 5;
height = 85;
weight = -8;
width = 90;
};
};
width = 628;
},
{
anchors = (
{
name = bottom;
position = "{276, 0}";
},
{
name = top;
position = "{276, 560}";
}
);
background = {
paths = (
{
closed = 1;
nodes = (
"106 700 LINE",
"106 0 LINE",
"182 0 LINE",
"182 223 LINE",
"325 223 LINE",
"460 223 OFFCURVE",
"570 331 OFFCURVE",
"569 462 CURVE SMOOTH",
"568 593 OFFCURVE",
"457 700 OFFCURVE",
"322 700 CURVE"
);
},
{
closed = 1;
nodes = (
"417 629 OFFCURVE",
"494 554 OFFCURVE",
"493 462 CURVE SMOOTH",
"492 370 OFFCURVE",
"416 294 OFFCURVE",
"325 294 CURVE",
"182 294 LINE",
"182 629 LINE",
"322 629 LINE"
);
},
{
closed = 1;
nodes = (
"406 191 LINE SMOOTH",
"545 191 OFFCURVE",
"659 306 OFFCURVE",
"659 446 CURVE SMOOTH",
"659 586 OFFCURVE",
"543 700 OFFCURVE",
"402 700 CURVE SMOOTH",
"262 700 LINE",
"262 539 LINE",
"407 539 LINE SMOOTH",
"454 539 OFFCURVE",
"493 497 OFFCURVE",
"493 446 CURVE SMOOTH",
"493 395 OFFCURVE",
"454 352 OFFCURVE",
"407 352 CURVE SMOOTH",
"262 352 LINE",
"262 191 LINE"
);
},
{
closed = 1;
nodes = (
"272 0 LINE",
"272 700 LINE",
"106 700 LINE",
"106 0 LINE"
);
}
);
};
layerId = "3129A168-24FD-451B-9986-F27775A960CA";
paths = (
{
closed = 1;
nodes = (
"294 176 LINE SMOOTH",
"404 176 OFFCURVE",
"495 263 OFFCURVE",
"496 368 CURVE SMOOTH",
"497 473 OFFCURVE",
"406 560 OFFCURVE",
"293 560 CURVE SMOOTH",
"119 560 LINE",
"119 509 LINE",
"293 509 LINE SMOOTH",
"375 509 OFFCURVE",
"442 446 OFFCURVE",
"442 368 CURVE SMOOTH",
"442 290 OFFCURVE",
"375 227 OFFCURVE",
"294 227 CURVE SMOOTH",
"111 227 LINE",
"111 176 LINE"
);
},
{
closed = 1;
nodes = (
"141 0 LINE",
"141 560 LINE",
"87 560 LINE",
"87 0 LINE"
);
}
);
userData = {
RMXScaler = {
height = 80;
weight = -5;
width = 84;
};
};
width = 542;
}
);
leftKerningGroup = n.sc;
leftMetricsKey = n.sc;
userData = {
RMXScaler = {
source = P;
};
};
},
{
glyphname = q.sc;
lastChange = "2019-01-11 11:48:31 +0000";
layers = (
{
anchors = (
{
name = bottom;
position = "{377, 0}";
},
{
name = top;
position = "{377, 595}";
}
);
guideLines = (
{
angle = -61.429;
position = "{402, 282}";
},
{
angle = -61.429;
position = "{603, 282}";
}
);
layerId = "631A315E-0C3F-4988-8BF6-333737037850";
paths = (
{
closed = 1;
nodes = (
"558 -13 OFFCURVE",
"706 127 OFFCURVE",
"705 298 CURVE",
"704 469 OFFCURVE",
"556 608 OFFCURVE",
"377 608 CURVE",
"197 608 OFFCURVE",
"49 469 OFFCURVE",
"48 298 CURVE",
"47 127 OFFCURVE",
"196 -13 OFFCURVE",
"377 -13 CURVE"
);
},
{
closed = 1;
nodes = (
"625 -46 LINE",
"625 64 LINE",
"489 232 LINE",
"299 232 LINE",
"492 -46 LINE"
);
},
{
closed = 1;
nodes = (
"282 141 OFFCURVE",
"205 211 OFFCURVE",
"205 298 CURVE",
"205 384 OFFCURVE",
"282 454 OFFCURVE",
"377 454 CURVE",
"470 454 OFFCURVE",
"547 384 OFFCURVE",
"548 298 CURVE",
"549 211 OFFCURVE",
"472 141 OFFCURVE",
"377 141 CURVE"
);
}
);
userData = {
RMXScaler = {
adjustSpace = 5;
height = 85;
weight = -8;
width = 90;
};
};
width = 753;
},
{
anchors = (
{
name = bottom;
position = "{358, 0}";
},
{
name = top;
position = "{358, 560}";
}
);
guideLines = (
{
angle = 125.6939;
position = "{748, -15}";
}
);
layerId = "3129A168-24FD-451B-9986-F27775A960CA";
paths = (
{
closed = 1;
nodes = (
"518 -11 OFFCURVE",
"649 120 OFFCURVE",
"649 281 CURVE SMOOTH",
"649 442 OFFCURVE",
"518 573 OFFCURVE",
"358 572 CURVE SMOOTH",
"197 571 OFFCURVE",
"66 440 OFFCURVE",
"66 281 CURVE SMOOTH",
"66 120 OFFCURVE",
"197 -11 OFFCURVE",
"358 -11 CURVE SMOOTH"
);
},
{
closed = 1;
nodes = (
"623 -31 LINE",
"623 -7 LINE",
"483 178 LINE",
"417 178 LINE",
"572 -31 LINE"
);
},
{
closed = 1;
nodes = (
"223 48 OFFCURVE",
"120 153 OFFCURVE",
"120 281 CURVE SMOOTH",
"120 408 OFFCURVE",
"223 514 OFFCURVE",
"358 514 CURVE SMOOTH",
"492 514 OFFCURVE",
"595 408 OFFCURVE",
"595 281 CURVE SMOOTH",
"595 153 OFFCURVE",
"492 48 OFFCURVE",
"358 48 CURVE SMOOTH"
);
}
);
userData = {
RMXScaler = {
height = 80;
weight = -5;
width = 84;
};
};
width = 715;
}
);
leftKerningGroup = o.sc;
leftMetricsKey = o.sc;
rightKerningGroup = o.sc;
rightMetricsKey = o.sc;
userData = {
RMXScaler = {
source = Q;
};
};
},
